<svg width="25" height="25" viewBox="0 0 25 25" fill="none" xmlns="http://www.w3.org/2000/svg">
<path d="M19.3513 8H5.85132C5.25476 8.0006 4.68281 8.23784 4.26099 8.65967C3.83916 9.0815 3.60191 9.65345 3.60132 10.25V14.75C3.60132 15.1478 3.75935 15.5294 4.04066 15.8107C4.32196 16.092 4.70349 16.25 5.10132 16.25V21.5C5.10132 21.8978 5.25935 22.2794 5.54066 22.5607C5.82196 22.842 6.20349 23 6.60132 23H9.60132C9.99914 23 10.3807 22.842 10.662 22.5607C10.9433 22.2794 11.1013 21.8978 11.1013 21.5V12.5H9.60132V21.5H6.60132V14.75H5.10132V10.25C5.10132 10.0511 5.18034 9.86032 5.32099 9.71967C5.46164 9.57902 5.65241 9.5 5.85132 9.5H19.3513C19.5502 9.5 19.741 9.57902 19.8816 9.71967C20.0223 9.86032 20.1013 10.0511 20.1013 10.25V14.75H18.6013V21.5H15.6013V12.5H14.1013V21.5C14.1013 21.8978 14.2594 22.2794 14.5407 22.5607C14.822 22.842 15.2035 23 15.6013 23H18.6013C18.9991 23 19.3807 22.842 19.662 22.5607C19.9433 22.2794 20.1013 21.8978 20.1013 21.5V16.25C20.4991 16.25 20.8807 16.092 21.162 15.8107C21.4433 15.5294 21.6013 15.1478 21.6013 14.75V10.25C21.6007 9.65345 21.3635 9.0815 20.9417 8.65967C20.5198 8.23784 19.9479 8.0006 19.3513 8ZM8.10132 7.25C7.50797 7.25 6.92796 7.07405 6.43461 6.74441C5.94126 6.41477 5.55674 5.94623 5.32968 5.39805C5.10262 4.84987 5.04321 4.24667 5.15896 3.66473C5.27472 3.08279 5.56044 2.54824 5.98 2.12868C6.39956 1.70912 6.9341 1.4234 7.51605 1.30765C8.09799 1.19189 8.70119 1.2513 9.24937 1.47836C9.79755 1.70543 10.2661 2.08994 10.5957 2.58329C10.9254 3.07664 11.1013 3.65666 11.1013 4.25C11.1005 5.04541 10.7842 5.80801 10.2218 6.37044C9.65932 6.93288 8.89672 7.24921 8.10132 7.25ZM8.10132 2.75C7.80465 2.75 7.51464 2.83797 7.26796 3.0028C7.02129 3.16762 6.82903 3.40189 6.7155 3.67598C6.60197 3.95007 6.57226 4.25167 6.63014 4.54264C6.68802 4.83361 6.83088 5.10088 7.04066 5.31066C7.25044 5.52044 7.51771 5.6633 7.80868 5.72118C8.09965 5.77906 8.40125 5.74935 8.67534 5.63582C8.94943 5.52229 9.1837 5.33003 9.34852 5.08336C9.51334 4.83668 9.60132 4.54667 9.60132 4.25C9.60132 3.85218 9.44328 3.47065 9.16198 3.18934C8.88067 2.90804 8.49914 2.75 8.10132 2.75ZM17.1013 7.25C16.508 7.25 15.928 7.07405 15.4346 6.74441C14.9413 6.41477 14.5567 5.94623 14.3297 5.39805C14.1026 4.84987 14.0432 4.24667 14.159 3.66473C14.2747 3.08279 14.5604 2.54824 14.98 2.12868C15.3996 1.70912 15.9341 1.4234 16.516 1.30765C17.098 1.19189 17.7012 1.2513 18.2494 1.47836C18.7975 1.70543 19.2661 2.08994 19.5957 2.58329C19.9254 3.07664 20.1013 3.65666 20.1013 4.25C20.1005 5.04541 19.7842 5.80801 19.2218 6.37044C18.6593 6.93288 17.8967 7.24921 17.1013 7.25ZM17.1013 2.75C16.8046 2.75 16.5146 2.83797 16.268 3.0028C16.0213 3.16762 15.829 3.40189 15.7155 3.67598C15.602 3.95007 15.5723 4.25167 15.6301 4.54264C15.688 4.83361 15.8309 5.10088 16.0407 5.31066C16.2504 5.52044 16.5177 5.6633 16.8087 5.72118C17.0997 5.77906 17.4013 5.74935 17.6753 5.63582C17.9494 5.52229 18.1837 5.33003 18.3485 5.08336C18.5133 4.83668 18.6013 4.54667 18.6013 4.25C18.6013 3.85218 18.4433 3.47065 18.162 3.18934C17.8807 2.90804 17.4991 2.75 17.1013 2.75Z" fill="white"/>
</svg>
