<svg width="24" height="25" viewBox="0 0 24 25" fill="none" xmlns="http://www.w3.org/2000/svg">
<path d="M18.75 8H5.25C4.65345 8.0006 4.0815 8.23784 3.65967 8.65967C3.23784 9.0815 3.0006 9.65345 3 10.25V14.75C3 15.1478 3.15804 15.5294 3.43934 15.8107C3.72064 16.092 4.10218 16.25 4.5 16.25V21.5C4.5 21.8978 4.65804 22.2794 4.93934 22.5607C5.22064 22.842 5.60218 23 6 23H9C9.39782 23 9.77936 22.842 10.0607 22.5607C10.342 22.2794 10.5 21.8978 10.5 21.5V12.5H9V21.5H6V14.75H4.5V10.25C4.5 10.0511 4.57902 9.86032 4.71967 9.71967C4.86032 9.57902 5.05109 9.5 5.25 9.5H18.75C18.9489 9.5 19.1397 9.57902 19.2803 9.71967C19.421 9.86032 19.5 10.0511 19.5 10.25V14.75H18V21.5H15V12.5H13.5V21.5C13.5 21.8978 13.658 22.2794 13.9393 22.5607C14.2206 22.842 14.6022 23 15 23H18C18.3978 23 18.7794 22.842 19.0607 22.5607C19.342 22.2794 19.5 21.8978 19.5 21.5V16.25C19.8978 16.25 20.2794 16.092 20.5607 15.8107C20.842 15.5294 21 15.1478 21 14.75V10.25C20.9994 9.65345 20.7622 9.0815 20.3403 8.65967C19.9185 8.23784 19.3466 8.0006 18.75 8ZM7.5 7.25C6.90666 7.25 6.32664 7.07405 5.83329 6.74441C5.33994 6.41477 4.95542 5.94623 4.72836 5.39805C4.5013 4.84987 4.44189 4.24667 4.55764 3.66473C4.6734 3.08279 4.95912 2.54824 5.37868 2.12868C5.79824 1.70912 6.33279 1.4234 6.91473 1.30765C7.49667 1.19189 8.09987 1.2513 8.64805 1.47836C9.19623 1.70543 9.66476 2.08994 9.99441 2.58329C10.3241 3.07664 10.5 3.65666 10.5 4.25C10.4992 5.04541 10.1829 5.80801 9.62044 6.37044C9.05801 6.93288 8.29541 7.24921 7.5 7.25ZM7.5 2.75C7.20333 2.75 6.91332 2.83797 6.66664 3.0028C6.41997 3.16762 6.22771 3.40189 6.11418 3.67598C6.00065 3.95007 5.97094 4.25167 6.02882 4.54264C6.0867 4.83361 6.22956 5.10088 6.43934 5.31066C6.64912 5.52044 6.91639 5.6633 7.20736 5.72118C7.49834 5.77906 7.79994 5.74935 8.07402 5.63582C8.34811 5.52229 8.58238 5.33003 8.7472 5.08336C8.91203 4.83668 9 4.54667 9 4.25C9 3.85218 8.84196 3.47065 8.56066 3.18934C8.27936 2.90804 7.89782 2.75 7.5 2.75ZM16.5 7.25C15.9067 7.25 15.3266 7.07405 14.8333 6.74441C14.3399 6.41477 13.9554 5.94623 13.7284 5.39805C13.5013 4.84987 13.4419 4.24667 13.5576 3.66473C13.6734 3.08279 13.9591 2.54824 14.3787 2.12868C14.7982 1.70912 15.3328 1.4234 15.9147 1.30765C16.4967 1.19189 17.0999 1.2513 17.648 1.47836C18.1962 1.70543 18.6648 2.08994 18.9944 2.58329C19.3241 3.07664 19.5 3.65666 19.5 4.25C19.4992 5.04541 19.1829 5.80801 18.6204 6.37044C18.058 6.93288 17.2954 7.24921 16.5 7.25ZM16.5 2.75C16.2033 2.75 15.9133 2.83797 15.6666 3.0028C15.42 3.16762 15.2277 3.40189 15.1142 3.67598C15.0006 3.95007 14.9709 4.25167 15.0288 4.54264C15.0867 4.83361 15.2296 5.10088 15.4393 5.31066C15.6491 5.52044 15.9164 5.6633 16.2074 5.72118C16.4983 5.77906 16.7999 5.74935 17.074 5.63582C17.3481 5.52229 17.5824 5.33003 17.7472 5.08336C17.912 4.83668 18 4.54667 18 4.25C18 3.85218 17.842 3.47065 17.5607 3.18934C17.2794 2.90804 16.8978 2.75 16.5 2.75Z" fill="#C4C4C4"/>
</svg>
