<svg width="26" height="26" viewBox="0 0 26 26" fill="none" xmlns="http://www.w3.org/2000/svg">
<g clip-path="url(#clip0_4101_160)">
<path d="M13 26C20.1797 26 26 20.1797 26 13C26 5.8203 20.1797 0 13 0C5.8203 0 0 5.8203 0 13C0 20.1797 5.8203 26 13 26Z" fill="#F3BA2F"/>
<path d="M9.84425 11.7033L13 8.5475L16.1574 11.7049L17.9936 9.86862L13 4.875L8.008 9.867L9.84425 11.7033ZM4.875 13L6.71125 11.1637L8.5475 13L6.71125 14.8363L4.875 13ZM9.84425 14.2968L13 17.4525L16.1574 14.2951L17.9936 16.1306L13 21.125L8.008 16.133L8.00556 16.1306L9.84425 14.2968ZM17.4525 13L19.2887 11.1637L21.125 13L19.2887 14.8363L17.4525 13ZM14.8622 12.9984H14.8639V13L13 14.8639L11.1386 13.0033L11.1353 13L11.1386 12.9976L11.4644 12.6709L11.6228 12.5125L13 11.1361L14.8622 12.9984Z" fill="white"/>
</g>
<defs>
<clipPath id="clip0_4101_160">
<rect width="26" height="26" fill="white"/>
</clipPath>
</defs>
</svg>
