<svg width="24" height="24" viewBox="0 0 24 24" fill="none" xmlns="http://www.w3.org/2000/svg">
<path d="M21.8242 9.00086L21.8439 9.057L21.9172 9.29957L21.9785 9.51729L22.0046 9.61672L22.0475 9.79672C22.6034 12.305 22.1976 14.9306 20.9105 17.154C19.6262 19.3843 17.5502 21.0503 15.0947 21.8211L14.9216 21.8726L14.709 21.9274L14.4017 22.0003C14.2932 22.025 14.1807 22.0271 14.0713 22.0064C13.962 21.9857 13.858 21.9427 13.766 21.88C13.674 21.8174 13.5959 21.7364 13.5366 21.6422C13.4772 21.548 13.4379 21.4426 13.4212 21.3326C13.3867 21.1067 13.4383 20.8761 13.5658 20.6865C13.6933 20.4969 13.8873 20.3621 14.1095 20.3087L14.3567 20.2466C14.511 20.206 14.6437 20.167 14.7549 20.1296C16.7268 19.4638 18.3878 18.1009 19.4259 16.2969C20.47 14.4942 20.8194 12.3721 20.4082 10.3299L20.3786 10.1957L20.3392 10.0393L20.2899 9.86014L20.2307 9.65872C20.1645 9.43899 20.1832 9.20239 20.2833 8.99584C20.3833 8.78929 20.5573 8.62786 20.7707 8.54357C20.8699 8.50439 20.9759 8.48513 21.0825 8.4869C21.1891 8.48868 21.2944 8.51145 21.3922 8.55392C21.49 8.59639 21.5785 8.65772 21.6527 8.73441C21.7268 8.81109 21.7851 8.90164 21.8242 9.00086ZM3.16502 8.53714C3.18359 8.54286 3.20188 8.54914 3.21988 8.556C3.43286 8.63901 3.60688 8.799 3.70746 9.00428C3.80803 9.20955 3.82781 9.44512 3.76288 9.66429C3.68574 9.924 3.63002 10.1401 3.59574 10.3127C3.18634 12.3533 3.5361 14.4732 4.57931 16.2741C5.61827 18.0798 7.28129 19.4434 9.25545 20.1086L9.38659 20.1501L9.46116 20.1716L9.62831 20.217L9.92574 20.2903C10.1492 20.3428 10.3447 20.4774 10.4736 20.6674C10.6024 20.8574 10.6551 21.0888 10.6213 21.3159C10.5896 21.5287 10.4746 21.7203 10.3016 21.8484C10.1287 21.9765 9.91191 22.0307 9.69902 21.999L9.63988 21.9883L9.39302 21.9304L9.17445 21.8747L8.98331 21.8211L8.89759 21.7954C6.44713 21.0225 4.3761 19.3578 3.09431 17.1309C1.80478 14.9035 1.39985 12.2727 1.95988 9.76072L1.99288 9.62357L2.03574 9.46286L2.11888 9.17786L2.15145 9.07072C2.18293 8.96909 2.23412 8.87467 2.30209 8.79283C2.37007 8.711 2.4535 8.64335 2.54762 8.59377C2.64175 8.54418 2.74471 8.51362 2.85065 8.50383C2.95658 8.49404 3.06341 8.50564 3.16502 8.53714ZM12.0219 5.14286C15.8092 5.14286 18.879 8.21272 18.879 12C18.879 15.7873 15.8092 18.8571 12.0219 18.8571C8.23459 18.8571 5.16474 15.7873 5.16474 12C5.16474 8.21272 8.23502 5.14286 12.0219 5.14286ZM12.0219 6.85714C9.18174 6.85714 6.87902 9.15986 6.87902 12C6.87902 14.8401 9.18174 17.1429 12.0219 17.1429C14.8624 17.1429 17.1647 14.8401 17.1647 12C17.1647 9.15986 14.8624 6.85714 12.0219 6.85714ZM12.0219 1.71429C14.5956 1.71113 17.0765 2.67582 18.972 4.41686L19.0745 4.51414L19.1923 4.63157L19.3252 4.76957L19.4735 4.92772C19.5491 5.00935 19.6071 5.10569 19.6439 5.21074C19.6806 5.31579 19.6953 5.42729 19.6871 5.53828C19.6789 5.64927 19.6478 5.75736 19.596 5.85583C19.5441 5.95429 19.4725 6.04101 19.3856 6.11057C19.2072 6.2535 18.9816 6.32419 18.7536 6.30863C18.5255 6.29307 18.3116 6.1924 18.1543 6.02657C18.0612 5.928 17.9747 5.83986 17.895 5.76214L17.745 5.619L17.6765 5.55772C16.114 4.18277 14.1032 3.42565 12.0219 3.42857C9.93864 3.42555 7.92613 4.18398 6.36302 5.56114L6.31416 5.60486L6.20574 5.70772L6.08274 5.82986L5.87059 6.05057C5.54488 6.39729 5.00745 6.43629 4.63502 6.14057C4.5515 6.07427 4.48186 5.99215 4.43008 5.89892C4.37831 5.8057 4.34541 5.70318 4.33327 5.59723C4.32113 5.49128 4.32999 5.38398 4.35934 5.28145C4.38868 5.17893 4.43795 5.08319 4.50431 4.99972L4.54288 4.95429L4.71645 4.76957L4.87416 4.60757C4.94902 4.53243 5.01816 4.466 5.08159 4.40829C6.9758 2.67277 9.45239 1.71137 12.0214 1.71429" fill="white"/>
</svg>
