<svg width="36" height="36" viewBox="0 0 36 36" fill="none" xmlns="http://www.w3.org/2000/svg">
<path d="M23.8333 28.2083H29.6667C30.0534 28.2083 30.4244 28.0547 30.6979 27.7812C30.9714 27.5077 31.125 27.1368 31.125 26.75V25.2917C31.125 24.1313 30.6641 23.0185 29.8436 22.1981C29.0231 21.3776 27.9103 20.9167 26.75 20.9167H23.8333M20.5725 15.0833C21.1632 15.7437 21.9405 16.2092 22.8015 16.4182C23.6626 16.6272 24.5668 16.5698 25.3945 16.2537C26.2222 15.9375 26.9345 15.3775 27.4369 14.6477C27.9394 13.9179 28.2084 13.0527 28.2084 12.1667C28.2084 11.2806 27.9394 10.4154 27.4369 9.68565C26.9345 8.95585 26.2222 8.39581 25.3945 8.07965C24.5668 7.76349 23.6626 7.70611 22.8015 7.91509C21.9405 8.12407 21.1632 8.58957 20.5725 9.24999M4.875 26.75V25.2917C4.875 24.1313 5.33594 23.0185 6.15641 22.1981C6.97688 21.3776 8.08968 20.9167 9.25 20.9167H15.0833C16.2437 20.9167 17.3565 21.3776 18.1769 22.1981C18.9974 23.0185 19.4583 24.1313 19.4583 25.2917V26.75C19.4583 27.1368 19.3047 27.5077 19.0312 27.7812C18.7577 28.0547 18.3868 28.2083 18 28.2083H6.33333C5.94656 28.2083 5.57563 28.0547 5.30214 27.7812C5.02865 27.5077 4.875 27.1368 4.875 26.75ZM16.5417 12.1667C16.5417 13.327 16.0807 14.4398 15.2603 15.2603C14.4398 16.0807 13.327 16.5417 12.1667 16.5417C11.0063 16.5417 9.89355 16.0807 9.07307 15.2603C8.2526 14.4398 7.79167 13.327 7.79167 12.1667C7.79167 11.0063 8.2526 9.89354 9.07307 9.07307C9.89355 8.25259 11.0063 7.79166 12.1667 7.79166C13.327 7.79166 14.4398 8.25259 15.2603 9.07307C16.0807 9.89354 16.5417 11.0063 16.5417 12.1667Z" stroke="white" stroke-width="3.33333" stroke-linecap="round"/>
</svg>
