<svg width="40" height="41" viewBox="0 0 40 41" fill="none" xmlns="http://www.w3.org/2000/svg">
<g clip-path="url(#clip0_4152_949)">
<path d="M14.9025 21.8287C14.04 21.8287 13.34 22.5287 13.34 23.3912V25.2663C13.34 25.6807 13.5046 26.0781 13.7976 26.3711C14.0906 26.6641 14.4881 26.8288 14.9025 26.8288C15.3169 26.8288 15.7143 26.6641 16.0073 26.3711C16.3004 26.0781 16.465 25.6807 16.465 25.2663V23.3912C16.465 22.5287 15.765 21.8287 14.9025 21.8287ZM25.0975 21.8287C24.235 21.8287 23.535 22.5287 23.535 23.3912V25.2663C23.535 25.6807 23.6996 26.0781 23.9926 26.3711C24.2856 26.6641 24.6831 26.8288 25.0975 26.8288C25.5119 26.8288 25.9093 26.6641 26.2023 26.3711C26.4954 26.0781 26.66 25.6807 26.66 25.2663V23.3912C26.66 22.5287 25.96 21.8287 25.0975 21.8287ZM21.9825 28.8C21.9825 29.41 20.82 30.93 20.01 30.93C19.1425 30.93 18.0175 29.5425 18.0175 28.8013C18.0175 28.0588 18.8962 27.99 20.01 27.99C21.1225 27.99 21.9825 28.04 21.9825 28.8013M18.0812 34.4775C18.8125 34.5287 19.5062 34.1875 20 33.4938C20.4962 34.185 21.19 34.5237 21.9237 34.4688C22.9612 34.3887 23.8312 33.4937 23.7462 32.2925C23.7431 32.2087 23.7232 32.1265 23.6877 32.0506C23.6521 31.9747 23.6017 31.9067 23.5393 31.8507C23.4769 31.7947 23.404 31.7518 23.3247 31.7246C23.2454 31.6973 23.1615 31.6863 23.0779 31.6922C22.9943 31.6981 22.9127 31.7207 22.838 31.7587C22.7633 31.7968 22.6971 31.8494 22.6431 31.9136C22.5892 31.9778 22.5488 32.0521 22.5242 32.1323C22.4996 32.2124 22.4913 32.2966 22.5 32.38C22.535 32.8787 22.1975 33.1925 21.8275 33.2213C21.5212 33.245 20.9275 33.0538 20.6362 31.8913C20.6011 31.7511 20.5186 31.6274 20.4026 31.5413C20.2866 31.4551 20.1443 31.4118 20 31.4188C19.8557 31.4118 19.7134 31.4551 19.5974 31.5413C19.4814 31.6274 19.3988 31.7511 19.3637 31.8913C19.0725 33.0538 18.4762 33.2525 18.1675 33.2312C17.8012 33.2062 17.465 32.8962 17.5 32.4C17.5086 32.3166 17.5004 32.2324 17.4758 32.1523C17.4512 32.0721 17.4107 31.9978 17.3568 31.9336C17.3029 31.8694 17.2366 31.8168 17.1619 31.7787C17.0873 31.7407 17.0057 31.7181 16.9221 31.7122C16.8385 31.7063 16.7545 31.7173 16.6753 31.7446C16.596 31.7718 16.523 31.8147 16.4607 31.8707C16.3983 31.9267 16.3479 31.9947 16.3123 32.0706C16.2768 32.1465 16.2568 32.2287 16.2537 32.3125C16.1687 33.5138 17.0412 34.4062 18.0812 34.4775ZM13.945 12.375C13.945 12.9495 13.8318 13.5184 13.6119 14.0492C13.3921 14.58 13.0698 15.0623 12.6636 15.4686C12.2573 15.8748 11.775 16.1971 11.2442 16.417C10.7134 16.6368 10.1445 16.75 9.56998 16.75C8.99544 16.75 8.42654 16.6368 7.89574 16.417C7.36494 16.1971 6.88264 15.8748 6.47638 15.4686C6.07013 15.0623 5.74787 14.58 5.528 14.0492C5.30814 13.5184 5.19498 12.9495 5.19498 12.375C5.19498 11.2147 5.65591 10.1019 6.47638 9.28141C7.29686 8.46094 8.40965 8 9.56998 8C10.7303 8 11.8431 8.46094 12.6636 9.28141C13.484 10.1019 13.945 11.2147 13.945 12.375ZM30.3912 16.75C30.9658 16.75 31.5347 16.6368 32.0655 16.417C32.5963 16.1971 33.0786 15.8748 33.4848 15.4686C33.8911 15.0623 34.2133 14.58 34.4332 14.0492C34.6531 13.5184 34.7662 12.9495 34.7662 12.375C34.7662 11.8005 34.6531 11.2316 34.4332 10.7008C34.2133 10.17 33.8911 9.68766 33.4848 9.28141C33.0786 8.87515 32.5963 8.55289 32.0655 8.33303C31.5347 8.11316 30.9658 8 30.3912 8C29.2309 8 28.1181 8.46094 27.2976 9.28141C26.4772 10.1019 26.0162 11.2147 26.0162 12.375C26.0162 13.5353 26.4772 14.6481 27.2976 15.4686C28.1181 16.2891 29.2309 16.75 30.3912 16.75Z" fill="white"/>
<path d="M19.0937 10.6688C19.6976 10.6061 20.306 10.5986 20.9112 10.6463C21.2475 9.06374 21.9763 7.59117 23.0306 6.36401C24.0849 5.13684 25.4308 4.19448 26.9446 3.62359C28.4584 3.05271 30.0914 2.87163 31.6935 3.09701C33.2956 3.3224 34.8152 3.94701 36.1128 4.9134C37.4103 5.87979 38.444 7.15693 39.1187 8.62735C39.7935 10.0978 40.0877 11.7143 39.9743 13.3281C39.8609 14.942 39.3435 16.5014 38.4696 17.863C37.5958 19.2246 36.3937 20.3446 34.9737 21.12C35.4287 21.8975 35.83 22.6813 36.17 23.4525C36.9237 25.165 37.4412 26.9813 37.4412 28.645C37.4412 32.8613 35.4062 35.8825 32.8662 37.7713C30.4162 39.5963 27.4425 40.4213 25.1562 40.4213C22.6662 40.4213 21.3237 39.8338 20.3937 39.4075L20.1212 39.285L20.0987 39.275L20.04 39.2963L19.7525 39.4075C18.66 39.835 17.0787 40.4213 13.8675 40.4213C11.2512 40.4213 8.45874 39.1838 6.34249 37.215C4.18124 35.2025 2.53874 32.2488 2.53874 28.645C2.53874 26.9325 3.10499 25.0925 3.90249 23.385C4.24749 22.6475 4.65124 21.9013 5.10374 21.1613C3.67264 20.3966 2.45749 19.2834 1.57068 17.9246C0.683867 16.5658 0.154044 15.0053 0.0302163 13.3875C-0.0936118 11.7696 0.192554 10.1467 0.862244 8.66878C1.53193 7.19085 2.56352 5.90568 3.86158 4.93213C5.15964 3.95859 6.68225 3.32812 8.28857 3.09903C9.89489 2.86995 11.533 3.04965 13.0515 3.62152C14.57 4.1934 15.9197 5.13896 16.9758 6.37076C18.0319 7.60256 18.7604 9.08081 19.0937 10.6688ZM16.6475 11.1888C16.2844 9.45876 15.2932 7.92461 13.8654 6.88242C12.4376 5.84023 10.6744 5.36389 8.91601 5.54535C7.15765 5.72681 5.52884 6.55321 4.34396 7.86502C3.15909 9.17683 2.50217 10.8811 2.49999 12.6488C2.50019 14.4573 3.18574 16.1985 4.41853 17.5218C5.65132 18.845 7.33976 19.652 9.14374 19.78C8.55152 20.5068 8.00065 21.2663 7.49374 22.055C5.97499 24.425 5.03749 26.8263 5.03749 28.645C5.03749 34.25 10.1162 37.9225 13.8662 37.9225C16.6875 37.9225 17.9537 37.4263 18.8387 37.0788C19.3137 36.8925 19.6787 36.75 20.1162 36.75C20.595 36.75 20.97 36.9225 21.4337 37.1338C22.18 37.4763 23.155 37.9213 25.155 37.9213C28.69 37.9213 34.94 35.265 34.94 28.645C34.94 26.8475 34.065 24.4263 32.605 22.0325C32.1264 21.2469 31.6026 20.4898 31.0362 19.765C32.8054 19.5944 34.4476 18.771 35.6426 17.4554C36.8376 16.1397 37.4998 14.4261 37.5 12.6488C37.4998 11.666 37.2971 10.6939 36.9043 9.79307C36.5116 8.89223 35.9374 8.08203 35.2175 7.41309C34.4976 6.74414 33.6475 6.2308 32.7203 5.90514C31.7931 5.57947 30.8087 5.44847 29.8286 5.52032C28.8485 5.59216 27.8937 5.86531 27.024 6.32271C26.1542 6.7801 25.388 7.41192 24.7734 8.1787C24.1587 8.94548 23.7088 9.83075 23.4516 10.7792C23.1944 11.7277 23.1356 12.719 23.2787 13.6913C22.4533 13.3926 21.5914 13.2067 20.7162 13.1388C20.239 13.1036 19.7595 13.1119 19.2837 13.1638C18.3968 13.2682 17.5278 13.491 16.7 13.8263C16.8439 12.9513 16.8261 12.0573 16.6475 11.1888Z" fill="white"/>
</g>
<defs>
<clipPath id="clip0_4152_949">
<rect width="40" height="40" fill="white" transform="translate(0 0.5)"/>
</clipPath>
</defs>
</svg>
