<svg width="35" height="36" viewBox="0 0 35 36" fill="none" xmlns="http://www.w3.org/2000/svg">
<g filter="url(#filter0_i_4189_1749)">
<path d="M17.5 30.3473C24.0692 30.3473 29.3945 25.022 29.3945 18.4528C29.3945 11.8836 24.0692 6.55828 17.5 6.55828C10.9308 6.55828 5.60547 11.8836 5.60547 18.4528C5.60547 25.022 10.9308 30.3473 17.5 30.3473Z" fill="url(#paint0_linear_4189_1749)"/>
</g>
<g filter="url(#filter1_iiii_4189_1749)">
<path fill-rule="evenodd" clip-rule="evenodd" d="M17.5 33.7314C25.9383 33.7314 32.7786 26.8911 32.7786 18.4528C32.7786 10.0145 25.9383 3.17422 17.5 3.17422C9.06175 3.17422 2.22144 10.0156 2.22144 18.4539C2.22144 26.8911 9.06175 33.7314 17.5 33.7314ZM17.5 30.3473C24.0691 30.3473 29.3946 25.0219 29.3946 18.4528C29.3946 11.8837 24.0691 6.55937 17.5 6.55937C10.931 6.55937 5.6055 11.8837 5.6055 18.4528C5.6055 25.0219 10.931 30.3484 17.5 30.3484" fill="url(#paint1_linear_4189_1749)"/>
</g>
<g filter="url(#filter2_f_4189_1749)">
<path fill-rule="evenodd" clip-rule="evenodd" d="M10.8423 12.8758C10.749 12.9351 10.6722 13.0171 10.6191 13.114C10.5659 13.2109 10.5381 13.3197 10.5382 13.4303V13.7366C10.5383 13.8698 10.587 13.9985 10.6752 14.0984C10.7634 14.1983 10.8851 14.2625 11.0173 14.2791V22.5883H10.8992C10.7297 22.5884 10.5651 22.6447 10.4311 22.7485C10.2971 22.8522 10.2013 22.9974 10.1587 23.1614L9.81965 24.4586C9.79859 24.5395 9.79635 24.6241 9.81309 24.706C9.82983 24.7878 9.86512 24.8648 9.91623 24.9309C9.96735 24.997 10.0329 25.0505 10.108 25.0874C10.183 25.1242 10.2655 25.1433 10.349 25.1433H23.9662C24.0485 25.1434 24.1298 25.1249 24.2039 25.0893C24.2781 25.0536 24.3433 25.0017 24.3946 24.9374C24.4459 24.873 24.482 24.7979 24.5002 24.7177C24.5185 24.6374 24.5184 24.5541 24.5 24.4739L24.2025 23.1822C24.1636 23.0132 24.0685 22.8625 23.9328 22.7546C23.7971 22.6467 23.6288 22.5881 23.4554 22.5883H23.3384V14.2758C23.4669 14.2555 23.5839 14.1901 23.6685 14.0912C23.7531 13.9924 23.7997 13.8667 23.8 13.7366V13.4303C23.8002 13.3199 23.7726 13.2111 23.7196 13.1142C23.6667 13.0172 23.5901 12.9352 23.497 12.8758L17.6093 9.12969C17.4776 9.04578 17.3247 9.0012 17.1686 9.0012C17.0124 9.0012 16.8595 9.04578 16.7278 9.12969L10.8423 12.8758ZM21.5786 22.5883V14.2834H19.8176V22.5883H21.5786ZM18.0578 22.5883V14.2834H16.2968V22.5883H18.0578ZM14.537 22.5883V14.2834H12.7772V22.5883H14.537Z" fill="#DC7B3C"/>
</g>
<g filter="url(#filter3_ii_4189_1749)">
<path d="M10.8806 13.1219C10.8805 13.0116 10.9083 12.9031 10.9612 12.8064C11.0142 12.7096 11.0907 12.6278 11.1836 12.5684L17.0712 8.82125C17.2028 8.73756 17.3555 8.69311 17.5115 8.69311C17.6674 8.69311 17.8201 8.73756 17.9517 8.82125L23.8383 12.5684C23.9314 12.6277 24.0081 12.7094 24.0612 12.8062C24.1144 12.9029 24.1423 13.0115 24.1423 13.1219V13.4281C24.1423 13.5732 24.0847 13.7123 23.9822 13.8148C23.8796 13.9174 23.7405 13.975 23.5955 13.975H11.4275C11.2825 13.975 11.1433 13.9174 11.0408 13.8148C10.9382 13.7123 10.8806 13.5732 10.8806 13.4281V13.1219Z" fill="#FFC546"/>
</g>
<path d="M10.8806 13.1219C10.8805 13.0116 10.9083 12.9031 10.9612 12.8064C11.0142 12.7096 11.0907 12.6278 11.1836 12.5684L17.0712 8.82125C17.2028 8.73756 17.3555 8.69311 17.5115 8.69311C17.6674 8.69311 17.8201 8.73756 17.9517 8.82125L23.8383 12.5684C23.9314 12.6277 24.0081 12.7094 24.0612 12.8062C24.1144 12.9029 24.1423 13.0115 24.1423 13.1219V13.4281C24.1423 13.5732 24.0847 13.7123 23.9822 13.8148C23.8796 13.9174 23.7405 13.975 23.5955 13.975H11.4275C11.2825 13.975 11.1433 13.9174 11.0408 13.8148C10.9382 13.7123 10.8806 13.5732 10.8806 13.4281V13.1219Z" fill="url(#paint2_linear_4189_1749)"/>
<path d="M11.3586 13.753C11.3586 13.6804 11.3875 13.6109 11.4387 13.5596C11.49 13.5083 11.5596 13.4795 11.6321 13.4795H12.8461C12.9187 13.4795 12.9882 13.5083 13.0395 13.5596C13.0908 13.6109 13.1196 13.6804 13.1196 13.753V22.5205H11.3586V13.753Z" fill="url(#paint3_linear_4189_1749)"/>
<path d="M11.3586 13.753C11.3586 13.6804 11.3875 13.6109 11.4387 13.5596C11.49 13.5083 11.5596 13.4795 11.6321 13.4795H12.8461C12.9187 13.4795 12.9882 13.5083 13.0395 13.5596C13.0908 13.6109 13.1196 13.6804 13.1196 13.753V22.5205H11.3586V13.753Z" fill="url(#paint4_linear_4189_1749)"/>
<path d="M14.8794 13.4795H16.6392V22.5205H14.8794V13.4795Z" fill="url(#paint5_linear_4189_1749)"/>
<path d="M14.8794 13.4795H16.6392V22.5205H14.8794V13.4795Z" fill="url(#paint6_linear_4189_1749)"/>
<path d="M18.4001 13.4795H20.16V22.5205H18.4001V13.4795Z" fill="url(#paint7_linear_4189_1749)"/>
<path d="M18.4001 13.4795H20.16V22.5205H18.4001V13.4795Z" fill="url(#paint8_linear_4189_1749)"/>
<path d="M21.9199 13.4795H23.6798V22.5205H21.9199V13.4795Z" fill="url(#paint9_linear_4189_1749)"/>
<path d="M21.9199 13.4795H23.6798V22.5205H21.9199V13.4795Z" fill="url(#paint10_linear_4189_1749)"/>
<g filter="url(#filter4_ii_4189_1749)">
<path d="M10.5001 22.853C10.543 22.689 10.6391 22.5439 10.7733 22.4403C10.9075 22.3368 11.0722 22.2808 11.2417 22.2809H23.798C23.9711 22.281 24.1392 22.3397 24.2747 22.4476C24.4101 22.5555 24.5051 22.7061 24.5439 22.8748L24.8425 24.1655C24.8611 24.2457 24.8614 24.3292 24.8432 24.4096C24.825 24.49 24.7889 24.5652 24.7376 24.6297C24.6863 24.6941 24.6211 24.7462 24.5468 24.7819C24.4725 24.8176 24.3912 24.8361 24.3087 24.8359H10.6916C10.608 24.836 10.5255 24.8168 10.4505 24.78C10.3755 24.7432 10.3099 24.6897 10.2588 24.6236C10.2076 24.5575 10.1724 24.4805 10.1556 24.3986C10.1389 24.3167 10.1411 24.2321 10.1622 24.1513L10.5001 22.853Z" fill="#FFC248"/>
</g>
<defs>
<filter id="filter0_i_4189_1749" x="5.41797" y="6.55828" width="23.9766" height="23.9766" filterUnits="userSpaceOnUse" color-interpolation-filters="sRGB">
<feFlood flood-opacity="0" result="BackgroundImageFix"/>
<feBlend mode="normal" in="SourceGraphic" in2="BackgroundImageFix" result="shape"/>
<feColorMatrix in="SourceAlpha" type="matrix" values="0 0 0 0 0 0 0 0 0 0 0 0 0 0 0 0 0 0 127 0" result="hardAlpha"/>
<feOffset dx="-0.1875" dy="0.1875"/>
<feGaussianBlur stdDeviation="0.375"/>
<feComposite in2="hardAlpha" operator="arithmetic" k2="-1" k3="1"/>
<feColorMatrix type="matrix" values="0 0 0 0 0.831373 0 0 0 0 0.45098 0 0 0 0 0.196078 0 0 0 1 0"/>
<feBlend mode="normal" in2="shape" result="effect1_innerShadow_4189_1749"/>
</filter>
<filter id="filter1_iiii_4189_1749" x="1.99644" y="2.94922" width="31.0071" height="31.0072" filterUnits="userSpaceOnUse" color-interpolation-filters="sRGB">
<feFlood flood-opacity="0" result="BackgroundImageFix"/>
<feBlend mode="normal" in="SourceGraphic" in2="BackgroundImageFix" result="shape"/>
<feColorMatrix in="SourceAlpha" type="matrix" values="0 0 0 0 0 0 0 0 0 0 0 0 0 0 0 0 0 0 127 0" result="hardAlpha"/>
<feOffset dx="0.225" dy="0.225"/>
<feGaussianBlur stdDeviation="0.225"/>
<feComposite in2="hardAlpha" operator="arithmetic" k2="-1" k3="1"/>
<feColorMatrix type="matrix" values="0 0 0 0 0.886275 0 0 0 0 0.662745 0 0 0 0 0.235294 0 0 0 1 0"/>
<feBlend mode="normal" in2="shape" result="effect1_innerShadow_4189_1749"/>
<feColorMatrix in="SourceAlpha" type="matrix" values="0 0 0 0 0 0 0 0 0 0 0 0 0 0 0 0 0 0 127 0" result="hardAlpha"/>
<feOffset dx="0.225" dy="-0.225"/>
<feGaussianBlur stdDeviation="0.225"/>
<feComposite in2="hardAlpha" operator="arithmetic" k2="-1" k3="1"/>
<feColorMatrix type="matrix" values="0 0 0 0 0.956863 0 0 0 0 0.607843 0 0 0 0 0.294118 0 0 0 1 0"/>
<feBlend mode="normal" in2="effect1_innerShadow_4189_1749" result="effect2_innerShadow_4189_1749"/>
<feColorMatrix in="SourceAlpha" type="matrix" values="0 0 0 0 0 0 0 0 0 0 0 0 0 0 0 0 0 0 127 0" result="hardAlpha"/>
<feOffset dy="-0.225"/>
<feGaussianBlur stdDeviation="0.225"/>
<feComposite in2="hardAlpha" operator="arithmetic" k2="-1" k3="1"/>
<feColorMatrix type="matrix" values="0 0 0 0 0.956863 0 0 0 0 0.607843 0 0 0 0 0.294118 0 0 0 1 0"/>
<feBlend mode="normal" in2="effect2_innerShadow_4189_1749" result="effect3_innerShadow_4189_1749"/>
<feColorMatrix in="SourceAlpha" type="matrix" values="0 0 0 0 0 0 0 0 0 0 0 0 0 0 0 0 0 0 127 0" result="hardAlpha"/>
<feOffset dx="-0.225" dy="0.225"/>
<feGaussianBlur stdDeviation="0.225"/>
<feComposite in2="hardAlpha" operator="arithmetic" k2="-1" k3="1"/>
<feColorMatrix type="matrix" values="0 0 0 0 1 0 0 0 0 0.882353 0 0 0 0 0.337255 0 0 0 1 0"/>
<feBlend mode="normal" in2="effect3_innerShadow_4189_1749" result="effect4_innerShadow_4189_1749"/>
</filter>
<filter id="filter2_f_4189_1749" x="9.352" y="8.5512" width="15.6119" height="17.0421" filterUnits="userSpaceOnUse" color-interpolation-filters="sRGB">
<feFlood flood-opacity="0" result="BackgroundImageFix"/>
<feBlend mode="normal" in="SourceGraphic" in2="BackgroundImageFix" result="shape"/>
<feGaussianBlur stdDeviation="0.225" result="effect1_foregroundBlur_4189_1749"/>
</filter>
<filter id="filter3_ii_4189_1749" x="10.8806" y="8.50561" width="13.3742" height="5.65689" filterUnits="userSpaceOnUse" color-interpolation-filters="sRGB">
<feFlood flood-opacity="0" result="BackgroundImageFix"/>
<feBlend mode="normal" in="SourceGraphic" in2="BackgroundImageFix" result="shape"/>
<feColorMatrix in="SourceAlpha" type="matrix" values="0 0 0 0 0 0 0 0 0 0 0 0 0 0 0 0 0 0 127 0" result="hardAlpha"/>
<feOffset dy="-0.1875"/>
<feGaussianBlur stdDeviation="0.1875"/>
<feComposite in2="hardAlpha" operator="arithmetic" k2="-1" k3="1"/>
<feColorMatrix type="matrix" values="0 0 0 0 0.980392 0 0 0 0 0.647059 0 0 0 0 0.172549 0 0 0 1 0"/>
<feBlend mode="normal" in2="shape" result="effect1_innerShadow_4189_1749"/>
<feColorMatrix in="SourceAlpha" type="matrix" values="0 0 0 0 0 0 0 0 0 0 0 0 0 0 0 0 0 0 127 0" result="hardAlpha"/>
<feOffset dx="0.1125" dy="0.1875"/>
<feGaussianBlur stdDeviation="0.1875"/>
<feComposite in2="hardAlpha" operator="arithmetic" k2="-1" k3="1"/>
<feColorMatrix type="matrix" values="0 0 0 0 0.980392 0 0 0 0 0.647059 0 0 0 0 0.172549 0 0 0 1 0"/>
<feBlend mode="normal" in2="effect1_innerShadow_4189_1749" result="effect2_innerShadow_4189_1749"/>
</filter>
<filter id="filter4_ii_4189_1749" x="9.95703" y="22.0934" width="15.0872" height="2.93" filterUnits="userSpaceOnUse" color-interpolation-filters="sRGB">
<feFlood flood-opacity="0" result="BackgroundImageFix"/>
<feBlend mode="normal" in="SourceGraphic" in2="BackgroundImageFix" result="shape"/>
<feColorMatrix in="SourceAlpha" type="matrix" values="0 0 0 0 0 0 0 0 0 0 0 0 0 0 0 0 0 0 127 0" result="hardAlpha"/>
<feOffset dx="0.1875" dy="-0.1875"/>
<feGaussianBlur stdDeviation="0.15"/>
<feComposite in2="hardAlpha" operator="arithmetic" k2="-1" k3="1"/>
<feColorMatrix type="matrix" values="0 0 0 0 0.992157 0 0 0 0 0.658824 0 0 0 0 0.0705882 0 0 0 1 0"/>
<feBlend mode="normal" in2="shape" result="effect1_innerShadow_4189_1749"/>
<feColorMatrix in="SourceAlpha" type="matrix" values="0 0 0 0 0 0 0 0 0 0 0 0 0 0 0 0 0 0 127 0" result="hardAlpha"/>
<feOffset dx="-0.1875" dy="0.1875"/>
<feGaussianBlur stdDeviation="0.15"/>
<feComposite in2="hardAlpha" operator="arithmetic" k2="-1" k3="1"/>
<feColorMatrix type="matrix" values="0 0 0 0 1 0 0 0 0 0.8 0 0 0 0 0.290196 0 0 0 1 0"/>
<feBlend mode="normal" in2="effect1_innerShadow_4189_1749" result="effect2_innerShadow_4189_1749"/>
</filter>
<linearGradient id="paint0_linear_4189_1749" x1="12.647" y1="24.4006" x2="25.4986" y2="8.19891" gradientUnits="userSpaceOnUse">
<stop stop-color="#F19D48"/>
<stop offset="1" stop-color="#E89A44"/>
</linearGradient>
<linearGradient id="paint1_linear_4189_1749" x1="17.5" y1="3.17422" x2="17.5" y2="33.7314" gradientUnits="userSpaceOnUse">
<stop stop-color="#FFC444"/>
<stop offset="1" stop-color="#FFC24B"/>
</linearGradient>
<linearGradient id="paint2_linear_4189_1749" x1="21.1236" y1="10.6598" x2="20.6784" y2="11.3347" gradientUnits="userSpaceOnUse">
<stop offset="0.459" stop-color="#FFCA3F"/>
<stop offset="1" stop-color="#FFCA3F" stop-opacity="0"/>
</linearGradient>
<linearGradient id="paint3_linear_4189_1749" x1="11.5183" y1="16.9708" x2="12.3736" y2="16.9708" gradientUnits="userSpaceOnUse">
<stop offset="0.167" stop-color="#FFB33B"/>
<stop offset="1" stop-color="#FFC047"/>
</linearGradient>
<linearGradient id="paint4_linear_4189_1749" x1="13.1196" y1="18.7503" x2="12.6974" y2="18.7503" gradientUnits="userSpaceOnUse">
<stop offset="0.067" stop-color="#FFC34C"/>
<stop offset="1" stop-color="#FFC34C" stop-opacity="0"/>
</linearGradient>
<linearGradient id="paint5_linear_4189_1749" x1="15.0391" y1="16.9708" x2="15.8933" y2="16.9708" gradientUnits="userSpaceOnUse">
<stop offset="0.167" stop-color="#FFB33B"/>
<stop offset="1" stop-color="#FFC047"/>
</linearGradient>
<linearGradient id="paint6_linear_4189_1749" x1="16.6392" y1="18.7503" x2="16.2181" y2="18.7503" gradientUnits="userSpaceOnUse">
<stop offset="0.067" stop-color="#FFC34C"/>
<stop offset="1" stop-color="#FFC34C" stop-opacity="0"/>
</linearGradient>
<linearGradient id="paint7_linear_4189_1749" x1="18.5598" y1="16.9708" x2="19.4141" y2="16.9708" gradientUnits="userSpaceOnUse">
<stop offset="0.167" stop-color="#FFB33B"/>
<stop offset="1" stop-color="#FFC047"/>
</linearGradient>
<linearGradient id="paint8_linear_4189_1749" x1="20.16" y1="18.7503" x2="19.7389" y2="18.7503" gradientUnits="userSpaceOnUse">
<stop offset="0.067" stop-color="#FFC34C"/>
<stop offset="1" stop-color="#FFC34C" stop-opacity="0"/>
</linearGradient>
<linearGradient id="paint9_linear_4189_1749" x1="22.0807" y1="16.9708" x2="22.9349" y2="16.9708" gradientUnits="userSpaceOnUse">
<stop offset="0.167" stop-color="#FFB33B"/>
<stop offset="1" stop-color="#FFC047"/>
</linearGradient>
<linearGradient id="paint10_linear_4189_1749" x1="23.6809" y1="18.7503" x2="23.2598" y2="18.7503" gradientUnits="userSpaceOnUse">
<stop offset="0.067" stop-color="#FFC34C"/>
<stop offset="1" stop-color="#FFC34C" stop-opacity="0"/>
</linearGradient>
</defs>
</svg>
