<svg width="24" height="25" viewBox="0 0 24 25" fill="none" xmlns="http://www.w3.org/2000/svg">
<path d="M9.59998 6.49998V19.7H14.4V6.49998C14.4 6.18172 14.2735 5.87649 14.0485 5.65145C13.8235 5.4264 13.5182 5.29998 13.2 5.29998H10.8C10.4817 5.29998 10.1765 5.4264 9.95145 5.65145C9.7264 5.87649 9.59998 6.18172 9.59998 6.49998ZM8.39998 11.3V6.49998C8.39998 5.86346 8.65283 5.25301 9.10292 4.80292C9.55301 4.35283 10.1635 4.09998 10.8 4.09998H13.2C13.8365 4.09998 14.4469 4.35283 14.897 4.80292C15.3471 5.25301 15.6 5.86346 15.6 6.49998V7.69998H18C18.6365 7.69998 19.2469 7.95283 19.697 8.40292C20.1471 8.85301 20.4 9.46346 20.4 10.1V20.3C20.4 20.4591 20.3368 20.6117 20.2242 20.7242C20.1117 20.8368 19.9591 20.9 19.8 20.9H4.19998C4.04085 20.9 3.88823 20.8368 3.77571 20.7242C3.66319 20.6117 3.59998 20.4591 3.59998 20.3V13.7C3.59998 13.0635 3.85283 12.453 4.30292 12.0029C4.75301 11.5528 5.36346 11.3 5.99998 11.3H8.39998ZM8.39998 19.7V12.5H5.99998C5.68172 12.5 5.37649 12.6264 5.15145 12.8514C4.9264 13.0765 4.79998 13.3817 4.79998 13.7V19.7H8.39998ZM15.6 19.7H19.2V10.1C19.2 9.78172 19.0735 9.47649 18.8485 9.25145C18.6235 9.0264 18.3182 8.89998 18 8.89998H15.6V19.7Z" fill="#C4C4C4"/>
</svg>
