<svg width="40" height="40" viewBox="0 0 40 40" fill="none" xmlns="http://www.w3.org/2000/svg">
<g clip-path="url(#clip0_4152_1482)">
<path d="M30.8333 17.0917C30.8333 17.1661 30.8317 17.24 30.8283 17.3133C30.3579 16.896 29.7506 16.6659 29.1217 16.6667C28.8517 16.6667 28.5889 16.7078 28.3333 16.79V9.58334C28.3333 9.25182 28.2016 8.93388 27.9672 8.69946C27.7328 8.46504 27.4149 8.33334 27.0833 8.33334H12.9167C12.5852 8.33334 12.2672 8.46504 12.0328 8.69946C11.7984 8.93388 11.6667 9.25182 11.6667 9.58334V17.0917C11.6667 17.7817 12.2267 18.3417 12.9167 18.3417H26.71L26.6933 18.3833L26.6883 18.4033L25.9383 20.71L25.9217 20.7533L25.89 20.8417H12.9167C11.9221 20.8417 10.9683 20.4466 10.265 19.7433C9.56176 19.0401 9.16667 18.0862 9.16667 17.0917V9.58334C9.16667 8.58878 9.56176 7.63495 10.265 6.93169C10.9683 6.22843 11.9221 5.83334 12.9167 5.83334H18.75V4.58334C18.7501 4.28103 18.8597 3.98899 19.0586 3.7613C19.2575 3.53362 19.5321 3.38572 19.8317 3.34501L20 3.33334C20.3023 3.33341 20.5944 3.44304 20.8221 3.64192C21.0497 3.8408 21.1976 4.11545 21.2383 4.41501L21.25 4.58334L21.2483 5.83334H27.0817C28.0762 5.83334 29.0301 6.22843 29.7333 6.93169C30.4366 7.63495 30.8317 8.58878 30.8317 9.58334L30.8333 17.0917ZM21.7383 23.3933L21.925 23.3333H10.4233C9.42878 23.3333 8.47495 23.7284 7.77169 24.4317C7.06843 25.135 6.67334 26.0888 6.67334 27.0833V28.595C6.67318 29.4951 6.86743 30.3846 7.24282 31.2027C7.61821 32.0208 8.16587 32.7481 8.84834 33.335C11.4533 35.5733 15.185 36.6683 20 36.6683C23.46 36.6683 26.3617 36.1033 28.6883 34.955C28.2461 34.8704 27.8336 34.6716 27.4918 34.3783C27.1501 34.0851 26.8909 33.7076 26.74 33.2833L26.7333 33.2633L26.6833 33.1083C24.8733 33.8117 22.65 34.1683 20 34.1683C15.735 34.1683 12.575 33.2417 10.4783 31.4383C10.0689 31.0863 9.7404 30.65 9.51517 30.1593C9.28994 29.6685 9.17334 29.135 9.17334 28.595V27.0833C9.17334 26.7518 9.30504 26.4339 9.53946 26.1995C9.77388 25.965 10.0918 25.8333 10.4233 25.8333H20V25.8283C19.9991 25.2955 20.1641 24.7757 20.472 24.3408C20.7799 23.906 21.2155 23.5778 21.7183 23.4017L21.7383 23.3933ZM18.3317 12.9167C18.3396 12.6382 18.2915 12.3611 18.1904 12.1015C18.0893 11.842 17.9372 11.6053 17.743 11.4056C17.5488 11.2059 17.3166 11.0471 17.06 10.9387C16.8034 10.8303 16.5277 10.7744 16.2492 10.7744C15.9706 10.7744 15.6949 10.8303 15.4383 10.9387C15.1817 11.0471 14.9495 11.2059 14.7553 11.4056C14.5612 11.6053 14.4091 11.842 14.3079 12.1015C14.2068 12.3611 14.1588 12.6382 14.1667 12.9167C14.182 13.4588 14.4081 13.9736 14.797 14.3516C15.1859 14.7296 15.7068 14.9411 16.2492 14.9411C16.7915 14.9411 17.3125 14.7296 17.7013 14.3516C18.0902 13.9736 18.3163 13.4588 18.3317 12.9167ZM23.7367 10.8333C24.0151 10.8255 24.2923 10.8735 24.5518 10.9746C24.8114 11.0757 25.048 11.2279 25.2478 11.422C25.4475 11.6162 25.6062 11.8484 25.7147 12.105C25.8231 12.3616 25.8789 12.6373 25.8789 12.9158C25.8789 13.1944 25.8231 13.4701 25.7147 13.7267C25.6062 13.9833 25.4475 14.2155 25.2478 14.4097C25.048 14.6038 24.8114 14.756 24.5518 14.8571C24.2923 14.9582 24.0151 15.0062 23.7367 14.9983C23.1946 14.983 22.6798 14.7569 22.3018 14.368C21.9237 13.9791 21.7123 13.4582 21.7123 12.9158C21.7123 12.3735 21.9237 11.8526 22.3018 11.4637C22.6798 11.0748 23.1946 10.8487 23.7367 10.8333ZM26.815 29.02C26.2411 28.2778 25.4589 27.7236 24.5683 27.4283L22.2733 26.6817C22.097 26.6189 21.9444 26.5031 21.8365 26.3502C21.7286 26.1973 21.6707 26.0147 21.6707 25.8275C21.6707 25.6403 21.7286 25.4578 21.8365 25.3048C21.9444 25.1519 22.097 25.0361 22.2733 24.9733L24.5683 24.2267C25.2483 23.9922 25.8658 23.6059 26.3741 23.097C26.8823 22.5882 27.268 21.9702 27.5017 21.29L27.5183 21.2333L28.2667 18.9383C28.3291 18.7614 28.4448 18.6083 28.598 18.4999C28.7511 18.3916 28.9341 18.3334 29.1217 18.3334C29.3093 18.3334 29.4922 18.3916 29.6454 18.4999C29.7985 18.6083 29.9143 18.7614 29.9767 18.9383L30.7233 21.2333C30.9561 21.9307 31.348 22.5643 31.8682 23.0839C32.3883 23.6035 33.0224 23.9947 33.72 24.2267L36.0167 24.9733L36.0617 24.985C36.238 25.0478 36.3906 25.1636 36.4985 25.3165C36.6064 25.4694 36.6643 25.652 36.6643 25.8392C36.6643 26.0263 36.6064 26.2089 36.4985 26.3619C36.3906 26.5148 36.238 26.6306 36.0617 26.6933L33.765 27.44C33.0674 27.672 32.4333 28.0632 31.9132 28.5828C31.393 29.1024 31.0011 29.736 30.7683 30.4333L30.0233 32.7283C29.9598 32.9052 29.8434 33.0582 29.69 33.1667C29.5756 33.2476 29.4439 33.3009 29.3054 33.3223C29.1669 33.3438 29.0254 33.3329 28.8918 33.2904C28.7582 33.2479 28.6363 33.1751 28.5357 33.0775C28.435 32.98 28.3584 32.8605 28.3117 32.7283L27.565 30.4333C27.3982 29.9226 27.1445 29.4444 26.815 29.02ZM39.6383 35.355L38.3633 34.9417C37.9758 34.8126 37.6237 34.5951 37.3347 34.3064C37.0457 34.0177 36.8279 33.6657 36.6983 33.2783L36.2833 32.0033C36.2488 31.9049 36.1846 31.8196 36.0995 31.7593C36.0144 31.6989 35.9127 31.6665 35.8083 31.6665C35.704 31.6665 35.6023 31.6989 35.5172 31.7593C35.4321 31.8196 35.3678 31.9049 35.3333 32.0033L34.9183 33.2767C34.7917 33.6615 34.578 34.012 34.2939 34.3008C34.0097 34.5896 33.6628 34.8089 33.28 34.9417L32.0033 35.355C31.9049 35.3895 31.8196 35.4538 31.7593 35.5389C31.6989 35.624 31.6665 35.7257 31.6665 35.83C31.6665 35.9343 31.6989 36.0361 31.7593 36.1212C31.8196 36.2063 31.9049 36.2705 32.0033 36.305L33.28 36.72C33.6682 36.8498 34.0209 37.0683 34.3099 37.3582C34.5989 37.6481 34.8164 38.0014 34.945 38.39L35.3583 39.6633C35.3936 39.761 35.4581 39.8455 35.5431 39.9052C35.6281 39.9649 35.7295 39.9969 35.8333 39.9969C35.9372 39.9969 36.0385 39.9649 36.1235 39.9052C36.2085 39.8455 36.2731 39.761 36.3083 39.6633L36.725 38.39C36.8541 38.0025 37.0716 37.6503 37.3603 37.3614C37.649 37.0724 38.001 36.8545 38.3883 36.725L39.665 36.3117C39.7635 36.2772 39.8487 36.2129 39.9091 36.1278C39.9694 36.0427 40.0018 35.941 40.0018 35.8367C40.0018 35.7324 39.9694 35.6306 39.9091 35.5455C39.8487 35.4604 39.7635 35.3962 39.665 35.3617L39.6383 35.355Z" fill="white"/>
</g>
<defs>
<clipPath id="clip0_4152_1482">
<rect width="40" height="40" fill="white"/>
</clipPath>
</defs>
</svg>
