<svg width="40" height="41" viewBox="0 0 40 41" fill="none" xmlns="http://www.w3.org/2000/svg">
<g filter="url(#filter0_i_4230_183)">
<path d="M20 34.6112C27.5076 34.6112 33.5938 28.5251 33.5938 21.0175C33.5938 13.5099 27.5076 7.42375 20 7.42375C12.4924 7.42375 6.40625 13.5099 6.40625 21.0175C6.40625 28.5251 12.4924 34.6112 20 34.6112Z" fill="url(#paint0_linear_4230_183)"/>
</g>
<g filter="url(#filter1_iiii_4230_183)">
<path fill-rule="evenodd" clip-rule="evenodd" d="M20.0001 38.4787C29.6438 38.4787 37.4613 30.6612 37.4613 21.0175C37.4613 11.3737 29.6438 3.55625 20.0001 3.55625C10.3563 3.55625 2.53882 11.375 2.53882 21.0187C2.53882 30.6612 10.3563 38.4787 20.0001 38.4787ZM20.0001 34.6112C27.5076 34.6112 33.5938 28.525 33.5938 21.0175C33.5938 13.51 27.5076 7.425 20.0001 7.425C12.4926 7.425 6.40632 13.51 6.40632 21.0175C6.40632 28.525 12.4926 34.6125 20.0001 34.6125" fill="url(#paint1_linear_4230_183)"/>
</g>
<g filter="url(#filter2_f_4230_183)">
<path fill-rule="evenodd" clip-rule="evenodd" d="M12.3913 14.6437C12.2847 14.7116 12.1969 14.8052 12.1362 14.916C12.0754 15.0268 12.0437 15.1511 12.0438 15.2775V15.6275C12.0439 15.7798 12.0995 15.9269 12.2003 16.041C12.3011 16.1552 12.4402 16.2286 12.5913 16.2475V25.7438H12.4563C12.2627 25.7439 12.0745 25.8083 11.9214 25.9268C11.7682 26.0453 11.6588 26.2113 11.6101 26.3988L11.2226 27.8813C11.1985 27.9737 11.1959 28.0704 11.2151 28.164C11.2342 28.2575 11.2745 28.3455 11.3329 28.421C11.3914 28.4966 11.4663 28.5578 11.5521 28.5998C11.6378 28.6419 11.7321 28.6638 11.8276 28.6638H27.3901C27.4841 28.6639 27.577 28.6428 27.6617 28.602C27.7465 28.5613 27.821 28.5019 27.8796 28.4284C27.9382 28.3549 27.9795 28.2691 28.0004 28.1773C28.0212 28.0856 28.0211 27.9904 28.0001 27.8988L27.6601 26.4225C27.6156 26.2294 27.507 26.0571 27.3519 25.9338C27.1968 25.8105 27.0044 25.7435 26.8063 25.7438H26.6726V16.2438C26.8194 16.2206 26.9532 16.1458 27.0499 16.0328C27.1465 15.9199 27.1998 15.7762 27.2001 15.6275V15.2775C27.2003 15.1513 27.1688 15.027 27.1082 14.9162C27.0477 14.8054 26.9602 14.7117 26.8538 14.6437L20.1251 10.3625C19.9745 10.2666 19.7998 10.2157 19.6213 10.2157C19.4428 10.2157 19.2681 10.2666 19.1176 10.3625L12.3913 14.6437ZM24.6613 25.7438V16.2525H22.6488V25.7438H24.6613ZM20.6376 25.7438V16.2525H18.6251V25.7438H20.6376ZM16.6138 25.7438V16.2525H14.6026V25.7438H16.6138Z" fill="#DC7B3C"/>
</g>
<g filter="url(#filter3_ii_4230_183)">
<path d="M12.4351 14.925C12.435 14.799 12.4667 14.675 12.5272 14.5644C12.5877 14.4539 12.6751 14.3603 12.7813 14.2925L19.5101 10.01C19.6604 9.91436 19.835 9.86356 20.0132 9.86356C20.1914 9.86356 20.3659 9.91436 20.5163 10.01L27.2438 14.2925C27.3502 14.3602 27.4379 14.4536 27.4986 14.5642C27.5594 14.6748 27.5913 14.7989 27.5913 14.925V15.275C27.5913 15.4408 27.5255 15.5997 27.4083 15.7169C27.291 15.8342 27.1321 15.9 26.9663 15.9H13.0601C12.8943 15.9 12.7353 15.8342 12.6181 15.7169C12.5009 15.5997 12.4351 15.4408 12.4351 15.275V14.925Z" fill="#FFC546"/>
</g>
<path d="M12.4351 14.925C12.435 14.799 12.4667 14.675 12.5272 14.5644C12.5877 14.4539 12.6751 14.3603 12.7813 14.2925L19.5101 10.01C19.6604 9.91436 19.835 9.86356 20.0132 9.86356C20.1914 9.86356 20.3659 9.91436 20.5163 10.01L27.2438 14.2925C27.3502 14.3602 27.4379 14.4536 27.4986 14.5642C27.5594 14.6748 27.5913 14.7989 27.5913 14.925V15.275C27.5913 15.4408 27.5255 15.5997 27.4083 15.7169C27.291 15.8342 27.1321 15.9 26.9663 15.9H13.0601C12.8943 15.9 12.7353 15.8342 12.6181 15.7169C12.5009 15.5997 12.4351 15.4408 12.4351 15.275V14.925Z" fill="url(#paint2_linear_4230_183)"/>
<path d="M12.9812 15.6462C12.9812 15.5634 13.0141 15.4839 13.0727 15.4253C13.1313 15.3667 13.2108 15.3337 13.2937 15.3337H14.6812C14.7641 15.3337 14.8436 15.3667 14.9022 15.4253C14.9608 15.4839 14.9937 15.5634 14.9937 15.6462V25.6662H12.9812V15.6462Z" fill="url(#paint3_linear_4230_183)"/>
<path d="M12.9812 15.6462C12.9812 15.5634 13.0141 15.4839 13.0727 15.4253C13.1313 15.3667 13.2108 15.3337 13.2937 15.3337H14.6812C14.7641 15.3337 14.8436 15.3667 14.9022 15.4253C14.9608 15.4839 14.9937 15.5634 14.9937 15.6462V25.6662H12.9812V15.6462Z" fill="url(#paint4_linear_4230_183)"/>
<path d="M17.0051 15.3337H19.0164V25.6662H17.0051V15.3337Z" fill="url(#paint5_linear_4230_183)"/>
<path d="M17.0051 15.3337H19.0164V25.6662H17.0051V15.3337Z" fill="url(#paint6_linear_4230_183)"/>
<path d="M21.0288 15.3337H23.0401V25.6662H21.0288V15.3337Z" fill="url(#paint7_linear_4230_183)"/>
<path d="M21.0288 15.3337H23.0401V25.6662H21.0288V15.3337Z" fill="url(#paint8_linear_4230_183)"/>
<path d="M25.0513 15.3337H27.0625V25.6662H25.0513V15.3337Z" fill="url(#paint9_linear_4230_183)"/>
<path d="M25.0513 15.3337H27.0625V25.6662H25.0513V15.3337Z" fill="url(#paint10_linear_4230_183)"/>
<g filter="url(#filter4_ii_4230_183)">
<path d="M12.0002 26.0462C12.0491 25.8588 12.1589 25.693 12.3123 25.5747C12.4657 25.4564 12.654 25.3923 12.8477 25.3925H27.1977C27.3956 25.3925 27.5876 25.4597 27.7425 25.583C27.8973 25.7062 28.0058 25.8784 28.0502 26.0713L28.3914 27.5462C28.4127 27.638 28.413 27.7334 28.3922 27.8252C28.3715 27.9171 28.3302 28.0031 28.2716 28.0768C28.2129 28.1504 28.1384 28.2099 28.0535 28.2507C27.9686 28.2916 27.8756 28.3127 27.7814 28.3125H12.2189C12.1234 28.3125 12.0292 28.2907 11.9434 28.2486C11.8577 28.2065 11.7827 28.1453 11.7243 28.0698C11.6659 27.9942 11.6256 27.9063 11.6064 27.8127C11.5873 27.7191 11.5899 27.6224 11.6139 27.53L12.0002 26.0462Z" fill="#FFC248"/>
</g>
<defs>
<filter id="filter0_i_4230_183" x="6.21875" y="7.42375" width="27.375" height="27.375" filterUnits="userSpaceOnUse" color-interpolation-filters="sRGB">
<feFlood flood-opacity="0" result="BackgroundImageFix"/>
<feBlend mode="normal" in="SourceGraphic" in2="BackgroundImageFix" result="shape"/>
<feColorMatrix in="SourceAlpha" type="matrix" values="0 0 0 0 0 0 0 0 0 0 0 0 0 0 0 0 0 0 127 0" result="hardAlpha"/>
<feOffset dx="-0.1875" dy="0.1875"/>
<feGaussianBlur stdDeviation="0.375"/>
<feComposite in2="hardAlpha" operator="arithmetic" k2="-1" k3="1"/>
<feColorMatrix type="matrix" values="0 0 0 0 0.831373 0 0 0 0 0.45098 0 0 0 0 0.196078 0 0 0 1 0"/>
<feBlend mode="normal" in2="shape" result="effect1_innerShadow_4230_183"/>
</filter>
<filter id="filter1_iiii_4230_183" x="2.31382" y="3.33125" width="35.3726" height="35.3725" filterUnits="userSpaceOnUse" color-interpolation-filters="sRGB">
<feFlood flood-opacity="0" result="BackgroundImageFix"/>
<feBlend mode="normal" in="SourceGraphic" in2="BackgroundImageFix" result="shape"/>
<feColorMatrix in="SourceAlpha" type="matrix" values="0 0 0 0 0 0 0 0 0 0 0 0 0 0 0 0 0 0 127 0" result="hardAlpha"/>
<feOffset dx="0.225" dy="0.225"/>
<feGaussianBlur stdDeviation="0.225"/>
<feComposite in2="hardAlpha" operator="arithmetic" k2="-1" k3="1"/>
<feColorMatrix type="matrix" values="0 0 0 0 0.886275 0 0 0 0 0.662745 0 0 0 0 0.235294 0 0 0 1 0"/>
<feBlend mode="normal" in2="shape" result="effect1_innerShadow_4230_183"/>
<feColorMatrix in="SourceAlpha" type="matrix" values="0 0 0 0 0 0 0 0 0 0 0 0 0 0 0 0 0 0 127 0" result="hardAlpha"/>
<feOffset dx="0.225" dy="-0.225"/>
<feGaussianBlur stdDeviation="0.225"/>
<feComposite in2="hardAlpha" operator="arithmetic" k2="-1" k3="1"/>
<feColorMatrix type="matrix" values="0 0 0 0 0.956863 0 0 0 0 0.607843 0 0 0 0 0.294118 0 0 0 1 0"/>
<feBlend mode="normal" in2="effect1_innerShadow_4230_183" result="effect2_innerShadow_4230_183"/>
<feColorMatrix in="SourceAlpha" type="matrix" values="0 0 0 0 0 0 0 0 0 0 0 0 0 0 0 0 0 0 127 0" result="hardAlpha"/>
<feOffset dy="-0.225"/>
<feGaussianBlur stdDeviation="0.225"/>
<feComposite in2="hardAlpha" operator="arithmetic" k2="-1" k3="1"/>
<feColorMatrix type="matrix" values="0 0 0 0 0.956863 0 0 0 0 0.607843 0 0 0 0 0.294118 0 0 0 1 0"/>
<feBlend mode="normal" in2="effect2_innerShadow_4230_183" result="effect3_innerShadow_4230_183"/>
<feColorMatrix in="SourceAlpha" type="matrix" values="0 0 0 0 0 0 0 0 0 0 0 0 0 0 0 0 0 0 127 0" result="hardAlpha"/>
<feOffset dx="-0.225" dy="0.225"/>
<feGaussianBlur stdDeviation="0.225"/>
<feComposite in2="hardAlpha" operator="arithmetic" k2="-1" k3="1"/>
<feColorMatrix type="matrix" values="0 0 0 0 1 0 0 0 0 0.882353 0 0 0 0 0.337255 0 0 0 1 0"/>
<feBlend mode="normal" in2="effect3_innerShadow_4230_183" result="effect4_innerShadow_4230_183"/>
</filter>
<filter id="filter2_f_4230_183" x="10.7524" y="9.76566" width="17.7135" height="19.3481" filterUnits="userSpaceOnUse" color-interpolation-filters="sRGB">
<feFlood flood-opacity="0" result="BackgroundImageFix"/>
<feBlend mode="normal" in="SourceGraphic" in2="BackgroundImageFix" result="shape"/>
<feGaussianBlur stdDeviation="0.225" result="effect1_foregroundBlur_4230_183"/>
</filter>
<filter id="filter3_ii_4230_183" x="12.4351" y="9.67606" width="15.2688" height="6.41144" filterUnits="userSpaceOnUse" color-interpolation-filters="sRGB">
<feFlood flood-opacity="0" result="BackgroundImageFix"/>
<feBlend mode="normal" in="SourceGraphic" in2="BackgroundImageFix" result="shape"/>
<feColorMatrix in="SourceAlpha" type="matrix" values="0 0 0 0 0 0 0 0 0 0 0 0 0 0 0 0 0 0 127 0" result="hardAlpha"/>
<feOffset dy="-0.1875"/>
<feGaussianBlur stdDeviation="0.1875"/>
<feComposite in2="hardAlpha" operator="arithmetic" k2="-1" k3="1"/>
<feColorMatrix type="matrix" values="0 0 0 0 0.980392 0 0 0 0 0.647059 0 0 0 0 0.172549 0 0 0 1 0"/>
<feBlend mode="normal" in2="shape" result="effect1_innerShadow_4230_183"/>
<feColorMatrix in="SourceAlpha" type="matrix" values="0 0 0 0 0 0 0 0 0 0 0 0 0 0 0 0 0 0 127 0" result="hardAlpha"/>
<feOffset dx="0.1125" dy="0.1875"/>
<feGaussianBlur stdDeviation="0.1875"/>
<feComposite in2="hardAlpha" operator="arithmetic" k2="-1" k3="1"/>
<feColorMatrix type="matrix" values="0 0 0 0 0.980392 0 0 0 0 0.647059 0 0 0 0 0.172549 0 0 0 1 0"/>
<feBlend mode="normal" in2="effect1_innerShadow_4230_183" result="effect2_innerShadow_4230_183"/>
</filter>
<filter id="filter4_ii_4230_183" x="11.4062" y="25.205" width="17.1887" height="3.295" filterUnits="userSpaceOnUse" color-interpolation-filters="sRGB">
<feFlood flood-opacity="0" result="BackgroundImageFix"/>
<feBlend mode="normal" in="SourceGraphic" in2="BackgroundImageFix" result="shape"/>
<feColorMatrix in="SourceAlpha" type="matrix" values="0 0 0 0 0 0 0 0 0 0 0 0 0 0 0 0 0 0 127 0" result="hardAlpha"/>
<feOffset dx="0.1875" dy="-0.1875"/>
<feGaussianBlur stdDeviation="0.15"/>
<feComposite in2="hardAlpha" operator="arithmetic" k2="-1" k3="1"/>
<feColorMatrix type="matrix" values="0 0 0 0 0.992157 0 0 0 0 0.658824 0 0 0 0 0.0705882 0 0 0 1 0"/>
<feBlend mode="normal" in2="shape" result="effect1_innerShadow_4230_183"/>
<feColorMatrix in="SourceAlpha" type="matrix" values="0 0 0 0 0 0 0 0 0 0 0 0 0 0 0 0 0 0 127 0" result="hardAlpha"/>
<feOffset dx="-0.1875" dy="0.1875"/>
<feGaussianBlur stdDeviation="0.15"/>
<feComposite in2="hardAlpha" operator="arithmetic" k2="-1" k3="1"/>
<feColorMatrix type="matrix" values="0 0 0 0 1 0 0 0 0 0.8 0 0 0 0 0.290196 0 0 0 1 0"/>
<feBlend mode="normal" in2="effect1_innerShadow_4230_183" result="effect2_innerShadow_4230_183"/>
</filter>
<linearGradient id="paint0_linear_4230_183" x1="14.4538" y1="27.815" x2="29.1413" y2="9.29875" gradientUnits="userSpaceOnUse">
<stop stop-color="#F19D48"/>
<stop offset="1" stop-color="#E89A44"/>
</linearGradient>
<linearGradient id="paint1_linear_4230_183" x1="20.0001" y1="3.55625" x2="20.0001" y2="38.4787" gradientUnits="userSpaceOnUse">
<stop stop-color="#FFC444"/>
<stop offset="1" stop-color="#FFC24B"/>
</linearGradient>
<linearGradient id="paint2_linear_4230_183" x1="24.1413" y1="12.1113" x2="23.6326" y2="12.8825" gradientUnits="userSpaceOnUse">
<stop offset="0.459" stop-color="#FFCA3F"/>
<stop offset="1" stop-color="#FFCA3F" stop-opacity="0"/>
</linearGradient>
<linearGradient id="paint3_linear_4230_183" x1="13.1637" y1="19.3237" x2="14.1412" y2="19.3237" gradientUnits="userSpaceOnUse">
<stop offset="0.167" stop-color="#FFB33B"/>
<stop offset="1" stop-color="#FFC047"/>
</linearGradient>
<linearGradient id="paint4_linear_4230_183" x1="14.9937" y1="21.3575" x2="14.5112" y2="21.3575" gradientUnits="userSpaceOnUse">
<stop offset="0.067" stop-color="#FFC34C"/>
<stop offset="1" stop-color="#FFC34C" stop-opacity="0"/>
</linearGradient>
<linearGradient id="paint5_linear_4230_183" x1="17.1876" y1="19.3237" x2="18.1639" y2="19.3237" gradientUnits="userSpaceOnUse">
<stop offset="0.167" stop-color="#FFB33B"/>
<stop offset="1" stop-color="#FFC047"/>
</linearGradient>
<linearGradient id="paint6_linear_4230_183" x1="19.0164" y1="21.3575" x2="18.5351" y2="21.3575" gradientUnits="userSpaceOnUse">
<stop offset="0.067" stop-color="#FFC34C"/>
<stop offset="1" stop-color="#FFC34C" stop-opacity="0"/>
</linearGradient>
<linearGradient id="paint7_linear_4230_183" x1="21.2113" y1="19.3237" x2="22.1876" y2="19.3237" gradientUnits="userSpaceOnUse">
<stop offset="0.167" stop-color="#FFB33B"/>
<stop offset="1" stop-color="#FFC047"/>
</linearGradient>
<linearGradient id="paint8_linear_4230_183" x1="23.0401" y1="21.3575" x2="22.5588" y2="21.3575" gradientUnits="userSpaceOnUse">
<stop offset="0.067" stop-color="#FFC34C"/>
<stop offset="1" stop-color="#FFC34C" stop-opacity="0"/>
</linearGradient>
<linearGradient id="paint9_linear_4230_183" x1="25.235" y1="19.3237" x2="26.2113" y2="19.3237" gradientUnits="userSpaceOnUse">
<stop offset="0.167" stop-color="#FFB33B"/>
<stop offset="1" stop-color="#FFC047"/>
</linearGradient>
<linearGradient id="paint10_linear_4230_183" x1="27.0638" y1="21.3575" x2="26.5825" y2="21.3575" gradientUnits="userSpaceOnUse">
<stop offset="0.067" stop-color="#FFC34C"/>
<stop offset="1" stop-color="#FFC34C" stop-opacity="0"/>
</linearGradient>
</defs>
</svg>
