<svg width="30" height="31" viewBox="0 0 30 31" fill="none" xmlns="http://www.w3.org/2000/svg">
<g clip-path="url(#clip0_4242_174)">
<path d="M11.1766 16.4966C10.5297 16.4966 10.0047 17.0216 10.0047 17.6684V19.0747C10.0047 19.3855 10.1282 19.6836 10.348 19.9033C10.5677 20.1231 10.8658 20.2466 11.1766 20.2466C11.4874 20.2466 11.7855 20.1231 12.0053 19.9033C12.225 19.6836 12.3485 19.3855 12.3485 19.0747V17.6684C12.3485 17.0216 11.8235 16.4966 11.1766 16.4966ZM18.8229 16.4966C18.176 16.4966 17.651 17.0216 17.651 17.6684V19.0747C17.651 19.3855 17.7745 19.6836 17.9942 19.9033C18.214 20.1231 18.5121 20.2466 18.8229 20.2466C19.1337 20.2466 19.4317 20.1231 19.6515 19.9033C19.8713 19.6836 19.9947 19.3855 19.9947 19.0747V17.6684C19.9947 17.0216 19.4697 16.4966 18.8229 16.4966ZM16.4866 21.725C16.4866 22.1825 15.6147 23.3225 15.0072 23.3225C14.3566 23.3225 13.5129 22.2819 13.5129 21.7259C13.5129 21.1691 14.1719 21.1175 15.0072 21.1175C15.8416 21.1175 16.4866 21.155 16.4866 21.7259M13.5607 25.9831C14.1091 26.0216 14.6294 25.7656 14.9997 25.2453C15.3719 25.7637 15.8922 26.0178 16.4426 25.9766C17.2207 25.9166 17.8732 25.2453 17.8094 24.3444C17.8071 24.2816 17.7922 24.2199 17.7655 24.1629C17.7388 24.106 17.701 24.055 17.6542 24.013C17.6075 23.971 17.5527 23.9388 17.4933 23.9184C17.4338 23.898 17.3709 23.8897 17.3082 23.8941C17.2455 23.8985 17.1843 23.9155 17.1283 23.944C17.0723 23.9726 17.0226 24.0121 16.9821 24.0602C16.9417 24.1083 16.9113 24.1641 16.8929 24.2242C16.8744 24.2843 16.8683 24.3475 16.8747 24.41C16.901 24.7841 16.6479 25.0194 16.3704 25.0409C16.1407 25.0587 15.6954 24.9153 15.4769 24.0434C15.4506 23.9383 15.3887 23.8456 15.3017 23.7809C15.2147 23.7163 15.108 23.6839 14.9997 23.6891C14.8915 23.6839 14.7848 23.7163 14.6978 23.7809C14.6108 23.8456 14.5489 23.9383 14.5226 24.0434C14.3041 24.9153 13.8569 25.0644 13.6254 25.0484C13.3507 25.0297 13.0985 24.7972 13.1247 24.425C13.1312 24.3625 13.125 24.2993 13.1066 24.2392C13.0882 24.1791 13.0578 24.1233 13.0174 24.0752C12.9769 24.0271 12.9272 23.9876 12.8712 23.959C12.8152 23.9305 12.754 23.9135 12.6913 23.9091C12.6286 23.9047 12.5657 23.913 12.5062 23.9334C12.4468 23.9538 12.392 23.986 12.3453 24.028C12.2985 24.07 12.2607 24.121 12.234 24.1779C12.2073 24.2348 12.1924 24.2966 12.1901 24.3594C12.1263 25.2603 12.7807 25.9297 13.5607 25.9831ZM10.4585 9.40625C10.4585 9.83715 10.3736 10.2638 10.2087 10.6619C10.0438 11.06 9.80213 11.4218 9.49744 11.7264C9.19275 12.0311 8.83103 12.2728 8.43293 12.4377C8.03483 12.6026 7.60815 12.6875 7.17725 12.6875C6.74635 12.6875 6.31967 12.6026 5.92157 12.4377C5.52347 12.2728 5.16174 12.0311 4.85705 11.7264C4.55236 11.4218 4.31066 11.06 4.14577 10.6619C3.98087 10.2638 3.896 9.83715 3.896 9.40625C3.896 8.53601 4.2417 7.70141 4.85705 7.08606C5.47241 6.4707 6.307 6.125 7.17725 6.125C8.04749 6.125 8.88209 6.4707 9.49744 7.08606C10.1128 7.70141 10.4585 8.53601 10.4585 9.40625ZM22.7932 12.6875C23.2241 12.6875 23.6508 12.6026 24.0489 12.4377C24.447 12.2728 24.8087 12.0311 25.1134 11.7264C25.4181 11.4218 25.6598 11.06 25.8247 10.6619C25.9896 10.2638 26.0744 9.83715 26.0744 9.40625C26.0744 8.97535 25.9896 8.54867 25.8247 8.15057C25.6598 7.75247 25.4181 7.39075 25.1134 7.08606C24.8087 6.78136 24.447 6.53967 24.0489 6.37477C23.6508 6.20987 23.2241 6.125 22.7932 6.125C21.9229 6.125 21.0883 6.4707 20.473 7.08606C19.8576 7.70141 19.5119 8.53601 19.5119 9.40625C19.5119 10.2765 19.8576 11.1111 20.473 11.7264C21.0883 12.3418 21.9229 12.6875 22.7932 12.6875Z" fill="white"/>
<path d="M14.3202 8.12656C14.7731 8.07957 15.2294 8.07392 15.6833 8.10968C15.9355 6.92279 16.4821 5.81836 17.2728 4.89799C18.0636 3.97762 19.073 3.27084 20.2083 2.84268C21.3437 2.41451 22.5685 2.27871 23.77 2.44775C24.9716 2.61679 26.1113 3.08525 27.0845 3.81004C28.0576 4.53483 28.8329 5.49268 29.339 6.5955C29.845 7.69831 30.0657 8.91067 29.9806 10.1211C29.8956 11.3315 29.5075 12.5011 28.8521 13.5223C28.1968 14.5434 27.2952 15.3834 26.2302 15.965C26.5715 16.5481 26.8724 17.1359 27.1274 17.7144C27.6927 18.9987 28.0808 20.3609 28.0808 21.6087C28.0808 24.7709 26.5546 27.0369 24.6496 28.4534C22.8121 29.8222 20.5818 30.4409 18.8671 30.4409C16.9996 30.4409 15.9927 30.0003 15.2952 29.6806L15.0908 29.5887L15.074 29.5812L15.0299 29.5972L14.8143 29.6806C13.9949 30.0012 12.809 30.4409 10.4005 30.4409C8.43834 30.4409 6.34396 29.5128 4.75678 28.0362C3.13584 26.5269 1.90396 24.3116 1.90396 21.6087C1.90396 20.3244 2.32865 18.9444 2.92678 17.6637C3.18553 17.1106 3.48834 16.5509 3.82771 15.9959C2.75439 15.4224 1.84302 14.5875 1.17792 13.5684C0.512809 12.5493 0.115442 11.379 0.0225707 10.1656C-0.0703004 8.95222 0.144324 7.73501 0.646591 6.62657C1.14886 5.51812 1.92255 4.55424 2.89609 3.82408C3.86964 3.09393 5.01159 2.62107 6.21633 2.44926C7.42107 2.27745 8.64969 2.41223 9.78853 2.84113C10.9274 3.27003 11.9397 3.97921 12.7318 4.90306C13.5239 5.8269 14.0702 6.93559 14.3202 8.12656ZM12.4855 8.51656C12.2132 7.21906 11.4698 6.06844 10.399 5.2868C9.32813 4.50516 8.00569 4.1479 6.68692 4.284C5.36815 4.4201 4.14654 5.03989 3.25788 6.02375C2.36923 7.00761 1.87654 8.28578 1.8749 9.61156C1.87505 10.968 2.38921 12.2739 3.3138 13.2663C4.2384 14.2588 5.50472 14.864 6.85771 14.96C6.41355 15.5051 6.00039 16.0747 5.62021 16.6662C4.48115 18.4437 3.77803 20.2447 3.77803 21.6087C3.77803 25.8125 7.58709 28.5669 10.3996 28.5669C12.5155 28.5669 13.4652 28.1947 14.129 27.9341C14.4852 27.7944 14.759 27.6875 15.0871 27.6875C15.4462 27.6875 15.7274 27.8169 16.0752 27.9753C16.6349 28.2322 17.3662 28.5659 18.8662 28.5659C21.5174 28.5659 26.2049 26.5737 26.2049 21.6087C26.2049 20.2606 25.5487 18.4447 24.4537 16.6494C24.0947 16.0602 23.7019 15.4924 23.2771 14.9487C24.604 14.8208 25.8356 14.2033 26.7319 13.2165C27.6281 12.2298 28.1248 10.9446 28.1249 9.61156C28.1248 8.87452 27.9727 8.14541 27.6782 7.46978C27.3836 6.79415 26.9529 6.18651 26.413 5.6848C25.8731 5.18309 25.2355 4.79809 24.5401 4.55384C23.8447 4.30959 23.1064 4.21134 22.3714 4.26522C21.6363 4.31911 20.9202 4.52397 20.2679 4.86702C19.6155 5.21006 19.0409 5.68392 18.5799 6.25901C18.1189 6.83409 17.7815 7.49805 17.5886 8.20941C17.3957 8.92077 17.3516 9.66425 17.459 10.3934C16.8399 10.1694 16.1934 10.03 15.5371 9.97906C15.1791 9.95265 14.8195 9.95893 14.4627 9.99781C13.7975 10.0762 13.1458 10.2433 12.5249 10.4947C12.6329 9.83845 12.6195 9.16798 12.4855 8.51656Z" fill="white"/>
</g>
<defs>
<clipPath id="clip0_4242_174">
<rect width="30" height="30" fill="white" transform="translate(0 0.5)"/>
</clipPath>
</defs>
</svg>
