<svg width="24" height="24" viewBox="0 0 24 24" fill="none" xmlns="http://www.w3.org/2000/svg">
<g filter="url(#filter0_i_4152_1044)">
<path d="M12 20.4668C16.5046 20.4668 20.1562 16.8151 20.1562 12.3105C20.1562 7.80593 16.5046 4.15425 12 4.15425C7.49543 4.15425 3.84375 7.80593 3.84375 12.3105C3.84375 16.8151 7.49543 20.4668 12 20.4668Z" fill="url(#paint0_linear_4152_1044)"/>
</g>
<g filter="url(#filter1_iiii_4152_1044)">
<path fill-rule="evenodd" clip-rule="evenodd" d="M12 22.7873C17.7863 22.7873 22.4768 18.0968 22.4768 12.3105C22.4768 6.52425 17.7863 1.83375 12 1.83375C6.21375 1.83375 1.52325 6.525 1.52325 12.3113C1.52325 18.0968 6.21375 22.7873 12 22.7873ZM12 20.4667C16.5045 20.4667 20.1563 16.815 20.1563 12.3105C20.1563 7.806 16.5045 4.155 12 4.155C7.4955 4.155 3.84375 7.806 3.84375 12.3105C3.84375 16.815 7.4955 20.4675 12 20.4675" fill="url(#paint1_linear_4152_1044)"/>
</g>
<g filter="url(#filter2_f_4152_1044)">
<path fill-rule="evenodd" clip-rule="evenodd" d="M7.43473 8.48625C7.37076 8.52694 7.3181 8.58313 7.28165 8.64961C7.2452 8.71608 7.22614 8.79069 7.22623 8.8665V9.0765C7.22625 9.16789 7.25965 9.25612 7.32014 9.32462C7.38063 9.39312 7.46405 9.43717 7.55473 9.4485V15.1463H7.47373C7.35754 15.1463 7.24465 15.185 7.15277 15.2561C7.06089 15.3272 6.99519 15.4268 6.96598 15.5393L6.73348 16.4288C6.71904 16.4842 6.7175 16.5422 6.72898 16.5984C6.74046 16.6545 6.76465 16.7073 6.7997 16.7526C6.83476 16.798 6.87973 16.8347 6.93118 16.8599C6.98262 16.8851 7.03917 16.8983 7.09648 16.8983H16.434C16.4904 16.8983 16.5461 16.8857 16.597 16.8612C16.6478 16.8368 16.6925 16.8012 16.7277 16.757C16.7629 16.7129 16.7877 16.6614 16.8002 16.6064C16.8127 16.5514 16.8126 16.4942 16.8 16.4393L16.596 15.5535C16.5693 15.4377 16.5041 15.3343 16.4111 15.2603C16.318 15.1863 16.2026 15.1461 16.0837 15.1463H16.0035V9.44625C16.0916 9.43234 16.1719 9.38747 16.2299 9.3197C16.2879 9.25193 16.3198 9.16571 16.32 9.0765V8.8665C16.3201 8.79076 16.3012 8.7162 16.2649 8.64973C16.2286 8.58326 16.1761 8.52703 16.1122 8.48625L12.075 5.9175C11.9847 5.85996 11.8798 5.8294 11.7727 5.8294C11.6656 5.8294 11.5608 5.85996 11.4705 5.9175L7.43473 8.48625ZM14.7967 15.1463V9.4515H13.5892V15.1463H14.7967ZM12.3825 15.1463V9.4515H11.175V15.1463H12.3825ZM9.96823 15.1463V9.4515H8.76148V15.1463H9.96823Z" fill="#DC7B3C"/>
</g>
<g filter="url(#filter3_ii_4152_1044)">
<path d="M7.461 8.655C7.46095 8.57939 7.47996 8.50498 7.51627 8.43865C7.55258 8.37232 7.60502 8.31621 7.66875 8.2755L11.706 5.706C11.7962 5.64862 11.9009 5.61814 12.0079 5.61814C12.1148 5.61814 12.2195 5.64862 12.3097 5.706L16.3462 8.2755C16.4101 8.31612 16.4627 8.37219 16.4991 8.43853C16.5356 8.50486 16.5547 8.57932 16.5547 8.655V8.865C16.5547 8.96446 16.5152 9.05984 16.4449 9.13017C16.3746 9.20049 16.2792 9.24 16.1797 9.24H7.836C7.73654 9.24 7.64116 9.20049 7.57083 9.13017C7.50051 9.05984 7.461 8.96446 7.461 8.865V8.655Z" fill="#FFC546"/>
</g>
<path d="M7.461 8.655C7.46095 8.57939 7.47996 8.50498 7.51627 8.43865C7.55258 8.37232 7.60502 8.31621 7.66875 8.2755L11.706 5.706C11.7962 5.64862 11.9009 5.61814 12.0079 5.61814C12.1148 5.61814 12.2195 5.64862 12.3097 5.706L16.3462 8.2755C16.4101 8.31612 16.4627 8.37219 16.4991 8.43853C16.5356 8.50486 16.5547 8.57932 16.5547 8.655V8.865C16.5547 8.96446 16.5152 9.05984 16.4449 9.13017C16.3746 9.20049 16.2792 9.24 16.1797 9.24H7.836C7.73654 9.24 7.64116 9.20049 7.57083 9.13017C7.50051 9.05984 7.461 8.96446 7.461 8.865V8.655Z" fill="url(#paint2_linear_4152_1044)"/>
<path d="M7.78876 9.08775C7.78876 9.03803 7.80851 8.99033 7.84367 8.95517C7.87884 8.92001 7.92653 8.90025 7.97626 8.90025H8.80876C8.85849 8.90025 8.90618 8.92001 8.94134 8.95517C8.9765 8.99033 8.99626 9.03803 8.99626 9.08775V15.0998H7.78876V9.08775Z" fill="url(#paint3_linear_4152_1044)"/>
<path d="M7.78876 9.08775C7.78876 9.03803 7.80851 8.99033 7.84367 8.95517C7.87884 8.92001 7.92653 8.90025 7.97626 8.90025H8.80876C8.85849 8.90025 8.90618 8.92001 8.94134 8.95517C8.9765 8.99033 8.99626 9.03803 8.99626 9.08775V15.0998H7.78876V9.08775Z" fill="url(#paint4_linear_4152_1044)"/>
<path d="M10.203 8.90025H11.4098V15.0998H10.203V8.90025Z" fill="url(#paint5_linear_4152_1044)"/>
<path d="M10.203 8.90025H11.4098V15.0998H10.203V8.90025Z" fill="url(#paint6_linear_4152_1044)"/>
<path d="M12.6172 8.90025H13.824V15.0998H12.6172V8.90025Z" fill="url(#paint7_linear_4152_1044)"/>
<path d="M12.6172 8.90025H13.824V15.0998H12.6172V8.90025Z" fill="url(#paint8_linear_4152_1044)"/>
<path d="M15.0308 8.90025H16.2375V15.0998H15.0308V8.90025Z" fill="url(#paint9_linear_4152_1044)"/>
<path d="M15.0308 8.90025H16.2375V15.0998H15.0308V8.90025Z" fill="url(#paint10_linear_4152_1044)"/>
<g filter="url(#filter4_ii_4152_1044)">
<path d="M7.20003 15.3278C7.22942 15.2153 7.29528 15.1158 7.38731 15.0448C7.47933 14.9738 7.59231 14.9354 7.70853 14.9355H16.3185C16.4373 14.9355 16.5525 14.9758 16.6454 15.0498C16.7383 15.1238 16.8034 15.227 16.83 15.3428L17.0348 16.2278C17.0475 16.2828 17.0477 16.34 17.0353 16.3951C17.0228 16.4503 16.9981 16.5019 16.9629 16.5461C16.9277 16.5903 16.8829 16.626 16.832 16.6504C16.7811 16.6749 16.7253 16.6876 16.6688 16.6875H7.33128C7.27397 16.6875 7.21743 16.6744 7.16598 16.6492C7.11453 16.6239 7.06956 16.5872 7.03451 16.5419C6.99946 16.4965 6.97526 16.4438 6.96378 16.3876C6.9523 16.3315 6.95384 16.2735 6.96828 16.218L7.20003 15.3278Z" fill="#FFC248"/>
</g>
<defs>
<filter id="filter0_i_4152_1044" x="3.65625" y="4.15425" width="16.5" height="16.5" filterUnits="userSpaceOnUse" color-interpolation-filters="sRGB">
<feFlood flood-opacity="0" result="BackgroundImageFix"/>
<feBlend mode="normal" in="SourceGraphic" in2="BackgroundImageFix" result="shape"/>
<feColorMatrix in="SourceAlpha" type="matrix" values="0 0 0 0 0 0 0 0 0 0 0 0 0 0 0 0 0 0 127 0" result="hardAlpha"/>
<feOffset dx="-0.1875" dy="0.1875"/>
<feGaussianBlur stdDeviation="0.375"/>
<feComposite in2="hardAlpha" operator="arithmetic" k2="-1" k3="1"/>
<feColorMatrix type="matrix" values="0 0 0 0 0.831373 0 0 0 0 0.45098 0 0 0 0 0.196078 0 0 0 1 0"/>
<feBlend mode="normal" in2="shape" result="effect1_innerShadow_4152_1044"/>
</filter>
<filter id="filter1_iiii_4152_1044" x="1.29825" y="1.60875" width="21.4035" height="21.4035" filterUnits="userSpaceOnUse" color-interpolation-filters="sRGB">
<feFlood flood-opacity="0" result="BackgroundImageFix"/>
<feBlend mode="normal" in="SourceGraphic" in2="BackgroundImageFix" result="shape"/>
<feColorMatrix in="SourceAlpha" type="matrix" values="0 0 0 0 0 0 0 0 0 0 0 0 0 0 0 0 0 0 127 0" result="hardAlpha"/>
<feOffset dx="0.225" dy="0.225"/>
<feGaussianBlur stdDeviation="0.225"/>
<feComposite in2="hardAlpha" operator="arithmetic" k2="-1" k3="1"/>
<feColorMatrix type="matrix" values="0 0 0 0 0.886275 0 0 0 0 0.662745 0 0 0 0 0.235294 0 0 0 1 0"/>
<feBlend mode="normal" in2="shape" result="effect1_innerShadow_4152_1044"/>
<feColorMatrix in="SourceAlpha" type="matrix" values="0 0 0 0 0 0 0 0 0 0 0 0 0 0 0 0 0 0 127 0" result="hardAlpha"/>
<feOffset dx="0.225" dy="-0.225"/>
<feGaussianBlur stdDeviation="0.225"/>
<feComposite in2="hardAlpha" operator="arithmetic" k2="-1" k3="1"/>
<feColorMatrix type="matrix" values="0 0 0 0 0.956863 0 0 0 0 0.607843 0 0 0 0 0.294118 0 0 0 1 0"/>
<feBlend mode="normal" in2="effect1_innerShadow_4152_1044" result="effect2_innerShadow_4152_1044"/>
<feColorMatrix in="SourceAlpha" type="matrix" values="0 0 0 0 0 0 0 0 0 0 0 0 0 0 0 0 0 0 127 0" result="hardAlpha"/>
<feOffset dy="-0.225"/>
<feGaussianBlur stdDeviation="0.225"/>
<feComposite in2="hardAlpha" operator="arithmetic" k2="-1" k3="1"/>
<feColorMatrix type="matrix" values="0 0 0 0 0.956863 0 0 0 0 0.607843 0 0 0 0 0.294118 0 0 0 1 0"/>
<feBlend mode="normal" in2="effect2_innerShadow_4152_1044" result="effect3_innerShadow_4152_1044"/>
<feColorMatrix in="SourceAlpha" type="matrix" values="0 0 0 0 0 0 0 0 0 0 0 0 0 0 0 0 0 0 127 0" result="hardAlpha"/>
<feOffset dx="-0.225" dy="0.225"/>
<feGaussianBlur stdDeviation="0.225"/>
<feComposite in2="hardAlpha" operator="arithmetic" k2="-1" k3="1"/>
<feColorMatrix type="matrix" values="0 0 0 0 1 0 0 0 0 0.882353 0 0 0 0 0.337255 0 0 0 1 0"/>
<feBlend mode="normal" in2="effect3_innerShadow_4152_1044" result="effect4_innerShadow_4152_1044"/>
</filter>
<filter id="filter2_f_4152_1044" x="6.27137" y="5.3794" width="10.9881" height="11.9689" filterUnits="userSpaceOnUse" color-interpolation-filters="sRGB">
<feFlood flood-opacity="0" result="BackgroundImageFix"/>
<feBlend mode="normal" in="SourceGraphic" in2="BackgroundImageFix" result="shape"/>
<feGaussianBlur stdDeviation="0.225" result="effect1_foregroundBlur_4152_1044"/>
</filter>
<filter id="filter3_ii_4152_1044" x="7.461" y="5.43064" width="9.20625" height="3.99686" filterUnits="userSpaceOnUse" color-interpolation-filters="sRGB">
<feFlood flood-opacity="0" result="BackgroundImageFix"/>
<feBlend mode="normal" in="SourceGraphic" in2="BackgroundImageFix" result="shape"/>
<feColorMatrix in="SourceAlpha" type="matrix" values="0 0 0 0 0 0 0 0 0 0 0 0 0 0 0 0 0 0 127 0" result="hardAlpha"/>
<feOffset dy="-0.1875"/>
<feGaussianBlur stdDeviation="0.1875"/>
<feComposite in2="hardAlpha" operator="arithmetic" k2="-1" k3="1"/>
<feColorMatrix type="matrix" values="0 0 0 0 0.980392 0 0 0 0 0.647059 0 0 0 0 0.172549 0 0 0 1 0"/>
<feBlend mode="normal" in2="shape" result="effect1_innerShadow_4152_1044"/>
<feColorMatrix in="SourceAlpha" type="matrix" values="0 0 0 0 0 0 0 0 0 0 0 0 0 0 0 0 0 0 127 0" result="hardAlpha"/>
<feOffset dx="0.1125" dy="0.1875"/>
<feGaussianBlur stdDeviation="0.1875"/>
<feComposite in2="hardAlpha" operator="arithmetic" k2="-1" k3="1"/>
<feColorMatrix type="matrix" values="0 0 0 0 0.980392 0 0 0 0 0.647059 0 0 0 0 0.172549 0 0 0 1 0"/>
<feBlend mode="normal" in2="effect1_innerShadow_4152_1044" result="effect2_innerShadow_4152_1044"/>
</filter>
<filter id="filter4_ii_4152_1044" x="6.76868" y="14.748" width="10.4633" height="2.127" filterUnits="userSpaceOnUse" color-interpolation-filters="sRGB">
<feFlood flood-opacity="0" result="BackgroundImageFix"/>
<feBlend mode="normal" in="SourceGraphic" in2="BackgroundImageFix" result="shape"/>
<feColorMatrix in="SourceAlpha" type="matrix" values="0 0 0 0 0 0 0 0 0 0 0 0 0 0 0 0 0 0 127 0" result="hardAlpha"/>
<feOffset dx="0.1875" dy="-0.1875"/>
<feGaussianBlur stdDeviation="0.15"/>
<feComposite in2="hardAlpha" operator="arithmetic" k2="-1" k3="1"/>
<feColorMatrix type="matrix" values="0 0 0 0 0.992157 0 0 0 0 0.658824 0 0 0 0 0.0705882 0 0 0 1 0"/>
<feBlend mode="normal" in2="shape" result="effect1_innerShadow_4152_1044"/>
<feColorMatrix in="SourceAlpha" type="matrix" values="0 0 0 0 0 0 0 0 0 0 0 0 0 0 0 0 0 0 127 0" result="hardAlpha"/>
<feOffset dx="-0.1875" dy="0.1875"/>
<feGaussianBlur stdDeviation="0.15"/>
<feComposite in2="hardAlpha" operator="arithmetic" k2="-1" k3="1"/>
<feColorMatrix type="matrix" values="0 0 0 0 1 0 0 0 0 0.8 0 0 0 0 0.290196 0 0 0 1 0"/>
<feBlend mode="normal" in2="effect1_innerShadow_4152_1044" result="effect2_innerShadow_4152_1044"/>
</filter>
<linearGradient id="paint0_linear_4152_1044" x1="8.67225" y1="16.389" x2="17.4848" y2="5.27925" gradientUnits="userSpaceOnUse">
<stop stop-color="#F19D48"/>
<stop offset="1" stop-color="#E89A44"/>
</linearGradient>
<linearGradient id="paint1_linear_4152_1044" x1="12" y1="1.83375" x2="12" y2="22.7873" gradientUnits="userSpaceOnUse">
<stop stop-color="#FFC444"/>
<stop offset="1" stop-color="#FFC24B"/>
</linearGradient>
<linearGradient id="paint2_linear_4152_1044" x1="14.4847" y1="6.96675" x2="14.1795" y2="7.4295" gradientUnits="userSpaceOnUse">
<stop offset="0.459" stop-color="#FFCA3F"/>
<stop offset="1" stop-color="#FFCA3F" stop-opacity="0"/>
</linearGradient>
<linearGradient id="paint3_linear_4152_1044" x1="7.89826" y1="11.2943" x2="8.48476" y2="11.2943" gradientUnits="userSpaceOnUse">
<stop offset="0.167" stop-color="#FFB33B"/>
<stop offset="1" stop-color="#FFC047"/>
</linearGradient>
<linearGradient id="paint4_linear_4152_1044" x1="8.99626" y1="12.5145" x2="8.70676" y2="12.5145" gradientUnits="userSpaceOnUse">
<stop offset="0.067" stop-color="#FFC34C"/>
<stop offset="1" stop-color="#FFC34C" stop-opacity="0"/>
</linearGradient>
<linearGradient id="paint5_linear_4152_1044" x1="10.3125" y1="11.2943" x2="10.8983" y2="11.2943" gradientUnits="userSpaceOnUse">
<stop offset="0.167" stop-color="#FFB33B"/>
<stop offset="1" stop-color="#FFC047"/>
</linearGradient>
<linearGradient id="paint6_linear_4152_1044" x1="11.4098" y1="12.5145" x2="11.121" y2="12.5145" gradientUnits="userSpaceOnUse">
<stop offset="0.067" stop-color="#FFC34C"/>
<stop offset="1" stop-color="#FFC34C" stop-opacity="0"/>
</linearGradient>
<linearGradient id="paint7_linear_4152_1044" x1="12.7267" y1="11.2943" x2="13.3125" y2="11.2943" gradientUnits="userSpaceOnUse">
<stop offset="0.167" stop-color="#FFB33B"/>
<stop offset="1" stop-color="#FFC047"/>
</linearGradient>
<linearGradient id="paint8_linear_4152_1044" x1="13.824" y1="12.5145" x2="13.5352" y2="12.5145" gradientUnits="userSpaceOnUse">
<stop offset="0.067" stop-color="#FFC34C"/>
<stop offset="1" stop-color="#FFC34C" stop-opacity="0"/>
</linearGradient>
<linearGradient id="paint9_linear_4152_1044" x1="15.141" y1="11.2943" x2="15.7268" y2="11.2943" gradientUnits="userSpaceOnUse">
<stop offset="0.167" stop-color="#FFB33B"/>
<stop offset="1" stop-color="#FFC047"/>
</linearGradient>
<linearGradient id="paint10_linear_4152_1044" x1="16.2383" y1="12.5145" x2="15.9495" y2="12.5145" gradientUnits="userSpaceOnUse">
<stop offset="0.067" stop-color="#FFC34C"/>
<stop offset="1" stop-color="#FFC34C" stop-opacity="0"/>
</linearGradient>
</defs>
</svg>
