<svg width="25" height="25" viewBox="0 0 25 25" fill="none" xmlns="http://www.w3.org/2000/svg">
<g filter="url(#filter0_i_4184_1235)">
<path d="M12.6013 20.9667C17.1059 20.9667 20.7576 17.3151 20.7576 12.8105C20.7576 8.30591 17.1059 4.65424 12.6013 4.65424C8.09675 4.65424 4.44507 8.30591 4.44507 12.8105C4.44507 17.3151 8.09675 20.9667 12.6013 20.9667Z" fill="url(#paint0_linear_4184_1235)"/>
</g>
<g filter="url(#filter1_iiii_4184_1235)">
<path fill-rule="evenodd" clip-rule="evenodd" d="M12.6013 23.2872C18.3875 23.2872 23.078 18.5967 23.078 12.8105C23.078 7.02424 18.3875 2.33374 12.6013 2.33374C6.81501 2.33374 2.12451 7.02499 2.12451 12.8112C2.12451 18.5967 6.81501 23.2872 12.6013 23.2872ZM12.6013 20.9667C17.1058 20.9667 20.7575 17.315 20.7575 12.8105C20.7575 8.30599 17.1058 4.65499 12.6013 4.65499C8.09676 4.65499 4.44501 8.30599 4.44501 12.8105C4.44501 17.315 8.09676 20.9675 12.6013 20.9675" fill="url(#paint1_linear_4184_1235)"/>
</g>
<g filter="url(#filter2_f_4184_1235)">
<path fill-rule="evenodd" clip-rule="evenodd" d="M8.03611 8.98623C7.97213 9.02692 7.91948 9.08311 7.88303 9.14958C7.84658 9.21606 7.82751 9.29067 7.82761 9.36648V9.57648C7.82763 9.66787 7.86103 9.7561 7.92152 9.82459C7.98201 9.89309 8.06543 9.93715 8.15611 9.94848V15.6462H8.07511C7.95891 15.6463 7.84603 15.6849 7.75415 15.7561C7.66227 15.8272 7.59657 15.9268 7.56736 16.0392L7.33486 16.9287C7.32041 16.9842 7.31888 17.0422 7.33036 17.0984C7.34184 17.1545 7.36603 17.2073 7.40108 17.2526C7.43614 17.2979 7.48111 17.3346 7.53256 17.3599C7.584 17.3851 7.64055 17.3982 7.69786 17.3982H17.0354C17.0918 17.3983 17.1475 17.3857 17.1984 17.3612C17.2492 17.3368 17.2939 17.3011 17.3291 17.257C17.3643 17.2129 17.389 17.1614 17.4015 17.1064C17.4141 17.0514 17.414 16.9942 17.4014 16.9392L17.1974 16.0535C17.1707 15.9376 17.1055 15.8343 17.0124 15.7603C16.9194 15.6863 16.804 15.6461 16.6851 15.6462H16.6049V9.94623C16.693 9.93231 16.7732 9.88744 16.8312 9.81968C16.8892 9.75191 16.9212 9.66568 16.9214 9.57648V9.36648C16.9215 9.29074 16.9026 9.21617 16.8663 9.1497C16.8299 9.08323 16.7774 9.02701 16.7136 8.98623L12.6764 6.41748C12.586 6.35994 12.4812 6.32938 12.3741 6.32938C12.267 6.32938 12.1622 6.35994 12.0719 6.41748L8.03611 8.98623ZM15.3981 15.6462V9.95148H14.1906V15.6462H15.3981ZM12.9839 15.6462V9.95148H11.7764V15.6462H12.9839ZM10.5696 15.6462V9.95148H9.36286V15.6462H10.5696Z" fill="#DC7B3C"/>
</g>
<g filter="url(#filter3_ii_4184_1235)">
<path d="M8.06226 9.155C8.06221 9.07938 8.08122 9.00497 8.11753 8.93864C8.15384 8.87232 8.20628 8.81621 8.27001 8.7755L12.3073 6.206C12.3975 6.14861 12.5022 6.11813 12.6091 6.11813C12.7161 6.11813 12.8208 6.14861 12.911 6.206L16.9475 8.7755C17.0114 8.81612 17.064 8.87219 17.1004 8.93852C17.1368 9.00486 17.156 9.07931 17.156 9.155V9.365C17.156 9.46446 17.1165 9.55984 17.0462 9.63016C16.9758 9.70049 16.8805 9.74 16.781 9.74H8.43726C8.3378 9.74 8.24242 9.70049 8.17209 9.63016C8.10176 9.55984 8.06226 9.46446 8.06226 9.365V9.155Z" fill="#FFC546"/>
</g>
<path d="M8.06226 9.155C8.06221 9.07938 8.08122 9.00497 8.11753 8.93864C8.15384 8.87232 8.20628 8.81621 8.27001 8.7755L12.3073 6.206C12.3975 6.14861 12.5022 6.11813 12.6091 6.11813C12.7161 6.11813 12.8208 6.14861 12.911 6.206L16.9475 8.7755C17.0114 8.81612 17.064 8.87219 17.1004 8.93852C17.1368 9.00486 17.156 9.07931 17.156 9.155V9.365C17.156 9.46446 17.1165 9.55984 17.0462 9.63016C16.9758 9.70049 16.8805 9.74 16.781 9.74H8.43726C8.3378 9.74 8.24242 9.70049 8.17209 9.63016C8.10176 9.55984 8.06226 9.46446 8.06226 9.365V9.155Z" fill="url(#paint2_linear_4184_1235)"/>
<path d="M8.38989 9.58774C8.38989 9.53801 8.40965 9.49032 8.44481 9.45516C8.47997 9.41999 8.52766 9.40024 8.57739 9.40024H9.40989C9.45962 9.40024 9.50731 9.41999 9.54247 9.45516C9.57764 9.49032 9.59739 9.53801 9.59739 9.58774V15.5997H8.38989V9.58774Z" fill="url(#paint3_linear_4184_1235)"/>
<path d="M8.38989 9.58774C8.38989 9.53801 8.40965 9.49032 8.44481 9.45516C8.47997 9.41999 8.52766 9.40024 8.57739 9.40024H9.40989C9.45962 9.40024 9.50731 9.41999 9.54247 9.45516C9.57764 9.49032 9.59739 9.53801 9.59739 9.58774V15.5997H8.38989V9.58774Z" fill="url(#paint4_linear_4184_1235)"/>
<path d="M10.8042 9.40024H12.0109V15.5997H10.8042V9.40024Z" fill="url(#paint5_linear_4184_1235)"/>
<path d="M10.8042 9.40024H12.0109V15.5997H10.8042V9.40024Z" fill="url(#paint6_linear_4184_1235)"/>
<path d="M13.2185 9.40024H14.4253V15.5997H13.2185V9.40024Z" fill="url(#paint7_linear_4184_1235)"/>
<path d="M13.2185 9.40024H14.4253V15.5997H13.2185V9.40024Z" fill="url(#paint8_linear_4184_1235)"/>
<path d="M15.6321 9.40024H16.8388V15.5997H15.6321V9.40024Z" fill="url(#paint9_linear_4184_1235)"/>
<path d="M15.6321 9.40024H16.8388V15.5997H15.6321V9.40024Z" fill="url(#paint10_linear_4184_1235)"/>
<g filter="url(#filter4_ii_4184_1235)">
<path d="M7.80123 15.8277C7.83061 15.7153 7.89648 15.6158 7.9885 15.5448C8.08053 15.4738 8.1935 15.4354 8.30973 15.4355H16.9197C17.0385 15.4355 17.1537 15.4758 17.2466 15.5498C17.3395 15.6237 17.4046 15.727 17.4312 15.8427L17.636 16.7277C17.6487 16.7828 17.6489 16.84 17.6365 16.8951C17.624 16.9502 17.5993 17.0018 17.5641 17.046C17.5289 17.0903 17.4841 17.1259 17.4332 17.1504C17.3823 17.1749 17.3265 17.1876 17.27 17.1875H7.93247C7.87517 17.1875 7.81862 17.1744 7.76718 17.1491C7.71573 17.1239 7.67076 17.0872 7.6357 17.0419C7.60065 16.9965 7.57646 16.9438 7.56498 16.8876C7.55349 16.8315 7.55503 16.7734 7.56948 16.718L7.80123 15.8277Z" fill="#FFC248"/>
</g>
<defs>
<filter id="filter0_i_4184_1235" x="4.25757" y="4.65424" width="16.5" height="16.5" filterUnits="userSpaceOnUse" color-interpolation-filters="sRGB">
<feFlood flood-opacity="0" result="BackgroundImageFix"/>
<feBlend mode="normal" in="SourceGraphic" in2="BackgroundImageFix" result="shape"/>
<feColorMatrix in="SourceAlpha" type="matrix" values="0 0 0 0 0 0 0 0 0 0 0 0 0 0 0 0 0 0 127 0" result="hardAlpha"/>
<feOffset dx="-0.1875" dy="0.1875"/>
<feGaussianBlur stdDeviation="0.375"/>
<feComposite in2="hardAlpha" operator="arithmetic" k2="-1" k3="1"/>
<feColorMatrix type="matrix" values="0 0 0 0 0.831373 0 0 0 0 0.45098 0 0 0 0 0.196078 0 0 0 1 0"/>
<feBlend mode="normal" in2="shape" result="effect1_innerShadow_4184_1235"/>
</filter>
<filter id="filter1_iiii_4184_1235" x="1.89951" y="2.10874" width="21.4036" height="21.4035" filterUnits="userSpaceOnUse" color-interpolation-filters="sRGB">
<feFlood flood-opacity="0" result="BackgroundImageFix"/>
<feBlend mode="normal" in="SourceGraphic" in2="BackgroundImageFix" result="shape"/>
<feColorMatrix in="SourceAlpha" type="matrix" values="0 0 0 0 0 0 0 0 0 0 0 0 0 0 0 0 0 0 127 0" result="hardAlpha"/>
<feOffset dx="0.225" dy="0.225"/>
<feGaussianBlur stdDeviation="0.225"/>
<feComposite in2="hardAlpha" operator="arithmetic" k2="-1" k3="1"/>
<feColorMatrix type="matrix" values="0 0 0 0 0.886275 0 0 0 0 0.662745 0 0 0 0 0.235294 0 0 0 1 0"/>
<feBlend mode="normal" in2="shape" result="effect1_innerShadow_4184_1235"/>
<feColorMatrix in="SourceAlpha" type="matrix" values="0 0 0 0 0 0 0 0 0 0 0 0 0 0 0 0 0 0 127 0" result="hardAlpha"/>
<feOffset dx="0.225" dy="-0.225"/>
<feGaussianBlur stdDeviation="0.225"/>
<feComposite in2="hardAlpha" operator="arithmetic" k2="-1" k3="1"/>
<feColorMatrix type="matrix" values="0 0 0 0 0.956863 0 0 0 0 0.607843 0 0 0 0 0.294118 0 0 0 1 0"/>
<feBlend mode="normal" in2="effect1_innerShadow_4184_1235" result="effect2_innerShadow_4184_1235"/>
<feColorMatrix in="SourceAlpha" type="matrix" values="0 0 0 0 0 0 0 0 0 0 0 0 0 0 0 0 0 0 127 0" result="hardAlpha"/>
<feOffset dy="-0.225"/>
<feGaussianBlur stdDeviation="0.225"/>
<feComposite in2="hardAlpha" operator="arithmetic" k2="-1" k3="1"/>
<feColorMatrix type="matrix" values="0 0 0 0 0.956863 0 0 0 0 0.607843 0 0 0 0 0.294118 0 0 0 1 0"/>
<feBlend mode="normal" in2="effect2_innerShadow_4184_1235" result="effect3_innerShadow_4184_1235"/>
<feColorMatrix in="SourceAlpha" type="matrix" values="0 0 0 0 0 0 0 0 0 0 0 0 0 0 0 0 0 0 127 0" result="hardAlpha"/>
<feOffset dx="-0.225" dy="0.225"/>
<feGaussianBlur stdDeviation="0.225"/>
<feComposite in2="hardAlpha" operator="arithmetic" k2="-1" k3="1"/>
<feColorMatrix type="matrix" values="0 0 0 0 1 0 0 0 0 0.882353 0 0 0 0 0.337255 0 0 0 1 0"/>
<feBlend mode="normal" in2="effect3_innerShadow_4184_1235" result="effect4_innerShadow_4184_1235"/>
</filter>
<filter id="filter2_f_4184_1235" x="6.87275" y="5.87938" width="10.9881" height="11.9688" filterUnits="userSpaceOnUse" color-interpolation-filters="sRGB">
<feFlood flood-opacity="0" result="BackgroundImageFix"/>
<feBlend mode="normal" in="SourceGraphic" in2="BackgroundImageFix" result="shape"/>
<feGaussianBlur stdDeviation="0.225" result="effect1_foregroundBlur_4184_1235"/>
</filter>
<filter id="filter3_ii_4184_1235" x="8.06226" y="5.93063" width="9.20625" height="3.99686" filterUnits="userSpaceOnUse" color-interpolation-filters="sRGB">
<feFlood flood-opacity="0" result="BackgroundImageFix"/>
<feBlend mode="normal" in="SourceGraphic" in2="BackgroundImageFix" result="shape"/>
<feColorMatrix in="SourceAlpha" type="matrix" values="0 0 0 0 0 0 0 0 0 0 0 0 0 0 0 0 0 0 127 0" result="hardAlpha"/>
<feOffset dy="-0.1875"/>
<feGaussianBlur stdDeviation="0.1875"/>
<feComposite in2="hardAlpha" operator="arithmetic" k2="-1" k3="1"/>
<feColorMatrix type="matrix" values="0 0 0 0 0.980392 0 0 0 0 0.647059 0 0 0 0 0.172549 0 0 0 1 0"/>
<feBlend mode="normal" in2="shape" result="effect1_innerShadow_4184_1235"/>
<feColorMatrix in="SourceAlpha" type="matrix" values="0 0 0 0 0 0 0 0 0 0 0 0 0 0 0 0 0 0 127 0" result="hardAlpha"/>
<feOffset dx="0.1125" dy="0.1875"/>
<feGaussianBlur stdDeviation="0.1875"/>
<feComposite in2="hardAlpha" operator="arithmetic" k2="-1" k3="1"/>
<feColorMatrix type="matrix" values="0 0 0 0 0.980392 0 0 0 0 0.647059 0 0 0 0 0.172549 0 0 0 1 0"/>
<feBlend mode="normal" in2="effect1_innerShadow_4184_1235" result="effect2_innerShadow_4184_1235"/>
</filter>
<filter id="filter4_ii_4184_1235" x="7.36987" y="15.248" width="10.4634" height="2.12701" filterUnits="userSpaceOnUse" color-interpolation-filters="sRGB">
<feFlood flood-opacity="0" result="BackgroundImageFix"/>
<feBlend mode="normal" in="SourceGraphic" in2="BackgroundImageFix" result="shape"/>
<feColorMatrix in="SourceAlpha" type="matrix" values="0 0 0 0 0 0 0 0 0 0 0 0 0 0 0 0 0 0 127 0" result="hardAlpha"/>
<feOffset dx="0.1875" dy="-0.1875"/>
<feGaussianBlur stdDeviation="0.15"/>
<feComposite in2="hardAlpha" operator="arithmetic" k2="-1" k3="1"/>
<feColorMatrix type="matrix" values="0 0 0 0 0.992157 0 0 0 0 0.658824 0 0 0 0 0.0705882 0 0 0 1 0"/>
<feBlend mode="normal" in2="shape" result="effect1_innerShadow_4184_1235"/>
<feColorMatrix in="SourceAlpha" type="matrix" values="0 0 0 0 0 0 0 0 0 0 0 0 0 0 0 0 0 0 127 0" result="hardAlpha"/>
<feOffset dx="-0.1875" dy="0.1875"/>
<feGaussianBlur stdDeviation="0.15"/>
<feComposite in2="hardAlpha" operator="arithmetic" k2="-1" k3="1"/>
<feColorMatrix type="matrix" values="0 0 0 0 1 0 0 0 0 0.8 0 0 0 0 0.290196 0 0 0 1 0"/>
<feBlend mode="normal" in2="effect1_innerShadow_4184_1235" result="effect2_innerShadow_4184_1235"/>
</filter>
<linearGradient id="paint0_linear_4184_1235" x1="9.27357" y1="16.889" x2="18.0861" y2="5.77924" gradientUnits="userSpaceOnUse">
<stop stop-color="#F19D48"/>
<stop offset="1" stop-color="#E89A44"/>
</linearGradient>
<linearGradient id="paint1_linear_4184_1235" x1="12.6013" y1="2.33374" x2="12.6013" y2="23.2872" gradientUnits="userSpaceOnUse">
<stop stop-color="#FFC444"/>
<stop offset="1" stop-color="#FFC24B"/>
</linearGradient>
<linearGradient id="paint2_linear_4184_1235" x1="15.086" y1="7.46675" x2="14.7808" y2="7.9295" gradientUnits="userSpaceOnUse">
<stop offset="0.459" stop-color="#FFCA3F"/>
<stop offset="1" stop-color="#FFCA3F" stop-opacity="0"/>
</linearGradient>
<linearGradient id="paint3_linear_4184_1235" x1="8.49939" y1="11.7942" x2="9.08589" y2="11.7942" gradientUnits="userSpaceOnUse">
<stop offset="0.167" stop-color="#FFB33B"/>
<stop offset="1" stop-color="#FFC047"/>
</linearGradient>
<linearGradient id="paint4_linear_4184_1235" x1="9.59739" y1="13.0145" x2="9.30789" y2="13.0145" gradientUnits="userSpaceOnUse">
<stop offset="0.067" stop-color="#FFC34C"/>
<stop offset="1" stop-color="#FFC34C" stop-opacity="0"/>
</linearGradient>
<linearGradient id="paint5_linear_4184_1235" x1="10.9137" y1="11.7942" x2="11.4994" y2="11.7942" gradientUnits="userSpaceOnUse">
<stop offset="0.167" stop-color="#FFB33B"/>
<stop offset="1" stop-color="#FFC047"/>
</linearGradient>
<linearGradient id="paint6_linear_4184_1235" x1="12.0109" y1="13.0145" x2="11.7222" y2="13.0145" gradientUnits="userSpaceOnUse">
<stop offset="0.067" stop-color="#FFC34C"/>
<stop offset="1" stop-color="#FFC34C" stop-opacity="0"/>
</linearGradient>
<linearGradient id="paint7_linear_4184_1235" x1="13.328" y1="11.7942" x2="13.9138" y2="11.7942" gradientUnits="userSpaceOnUse">
<stop offset="0.167" stop-color="#FFB33B"/>
<stop offset="1" stop-color="#FFC047"/>
</linearGradient>
<linearGradient id="paint8_linear_4184_1235" x1="14.4253" y1="13.0145" x2="14.1365" y2="13.0145" gradientUnits="userSpaceOnUse">
<stop offset="0.067" stop-color="#FFC34C"/>
<stop offset="1" stop-color="#FFC34C" stop-opacity="0"/>
</linearGradient>
<linearGradient id="paint9_linear_4184_1235" x1="15.7423" y1="11.7942" x2="16.3281" y2="11.7942" gradientUnits="userSpaceOnUse">
<stop offset="0.167" stop-color="#FFB33B"/>
<stop offset="1" stop-color="#FFC047"/>
</linearGradient>
<linearGradient id="paint10_linear_4184_1235" x1="16.8396" y1="13.0145" x2="16.5508" y2="13.0145" gradientUnits="userSpaceOnUse">
<stop offset="0.067" stop-color="#FFC34C"/>
<stop offset="1" stop-color="#FFC34C" stop-opacity="0"/>
</linearGradient>
</defs>
</svg>
