<svg width="128" height="116" viewBox="0 0 128 116" fill="none" xmlns="http://www.w3.org/2000/svg">
<g clip-path="url(#clip0_4215_301)">
<ellipse cx="63.7064" cy="57.5505" rx="57.7064" ry="57.5505" fill="#48486F"/>
<path d="M61.93 63.32C62.4467 63.8378 63.11 64.0733 63.92 64.0267C64.73 63.9811 65.3211 63.69 65.6933 63.1533L74.4483 50.9483L62.18 59.6417C61.6222 60.0128 61.3117 60.5894 61.2483 61.3717C61.185 62.1539 61.4122 62.8022 61.93 63.32ZM64 46.3333C65.5322 46.3333 66.9267 46.52 68.1833 46.8933C69.4411 47.2655 70.6944 47.835 71.9433 48.6017L70.41 49.64C69.4289 49.1044 68.4133 48.6972 67.3633 48.4183C66.3133 48.1394 65.1922 48 64 48C60.3056 48 57.1594 49.2989 54.5617 51.8967C51.9639 54.4944 50.6656 57.64 50.6667 61.3333C50.6667 62.5 50.8267 63.6528 51.1467 64.7917C51.4667 65.9305 51.9178 67 52.5 68H75.5C76.1389 66.9444 76.6044 65.8472 76.8967 64.7083C77.1889 63.5694 77.3344 62.3889 77.3333 61.1667C77.3333 60.1667 77.2044 59.1144 76.9467 58.01C76.6889 56.9055 76.2811 55.8767 75.7233 54.9233L76.7633 53.39C77.5744 54.7811 78.1483 56.09 78.485 57.3167C78.8217 58.5433 78.9933 59.82 79 61.1467C79.0067 62.58 78.8472 63.9178 78.5217 65.16C78.1972 66.4022 77.6917 67.6544 77.005 68.9167C76.8717 69.1389 76.6689 69.3194 76.3967 69.4583C76.1244 69.5972 75.8256 69.6667 75.5 69.6667H52.5C52.1944 69.6667 51.9111 69.5922 51.65 69.4433C51.39 69.2933 51.1711 69.075 50.9933 68.7883C50.4422 67.8161 49.9722 66.7194 49.5833 65.4983C49.1944 64.2772 49 62.8889 49 61.3333C49 59.2844 49.3889 57.3505 50.1667 55.5317C50.9433 53.7128 52.0039 52.12 53.3483 50.7533C54.6928 49.3867 56.2828 48.3078 58.1183 47.5167C59.9539 46.7255 61.9144 46.3311 64 46.3333Z" fill="white"/>
</g>
<defs>
<clipPath id="clip0_4215_301">
<rect width="127.544" height="115.101" fill="white" transform="translate(0.227783)"/>
</clipPath>
</defs>
</svg>
