<svg width="128" height="120" viewBox="0 0 128 120" fill="none" xmlns="http://www.w3.org/2000/svg">
<ellipse cx="63.4786" cy="57.5505" rx="57.7064" ry="57.5505" fill="#212224"/>
<path fill-rule="evenodd" clip-rule="evenodd" d="M56.46 50.1L56.6183 50.2383L70.7617 64.38C70.947 64.5652 71.0861 64.7915 71.1677 65.0405C71.2492 65.2895 71.2709 65.5542 71.231 65.8132C71.191 66.0721 71.0906 66.318 70.9378 66.5309C70.785 66.7438 70.5842 66.9176 70.3517 67.0383L70.1583 67.1217L52.85 73.5C49.5967 74.7 46.4283 71.6417 47.4167 68.3933L47.5 68.15L53.8767 50.8417C53.961 50.6124 54.0947 50.4045 54.2682 50.2326C54.4418 50.0607 54.6511 49.9291 54.8811 49.847C55.1112 49.765 55.3566 49.7345 55.5997 49.7578C55.8429 49.781 56.078 49.8575 56.2883 49.9817L56.46 50.1ZM56.1033 54.4367L50.6283 69.3033C50.5774 69.4417 50.5641 69.591 50.5898 69.7361C50.6154 69.8813 50.6791 70.017 50.7743 70.1295C50.8695 70.242 50.9929 70.3273 51.1318 70.3765C51.2707 70.4258 51.4202 70.4374 51.565 70.41L51.6983 70.3717L66.5617 64.895L56.1033 54.4367ZM71.5117 57.34C73.03 57.42 75.1117 57.74 76.9217 58.8267C77.2886 59.0442 77.5582 59.3942 77.6748 59.8045C77.7915 60.2148 77.7464 60.6542 77.5488 61.0323C77.3513 61.4103 77.0163 61.6982 76.6128 61.8367C76.2093 61.9752 75.7681 61.9537 75.38 61.7767L75.2067 61.685C74.07 61.0017 72.6167 60.735 71.3367 60.6683C70.8092 60.6392 70.2805 60.6414 69.7533 60.675L69.2267 60.7267C68.7919 60.7828 68.3525 60.6653 68.0037 60.3998C67.655 60.1342 67.4248 59.7419 67.3632 59.3079C67.3016 58.8739 67.4135 58.4331 67.6747 58.0809C67.9358 57.7288 68.3251 57.4938 68.7583 57.4267C69.6712 57.3089 70.5932 57.2793 71.5117 57.3383M74.8867 52.695C75.3113 52.6959 75.7196 52.8589 76.0282 53.1506C76.3368 53.4424 76.5224 53.8409 76.547 54.2648C76.5717 54.6888 76.4336 55.1061 76.161 55.4317C75.8883 55.7573 75.5017 55.9665 75.08 56.0167L74.8867 56.0283H73.7067C73.282 56.0275 72.8737 55.8645 72.5651 55.5727C72.2566 55.281 72.071 54.8825 72.0463 54.4585C72.0216 54.0346 72.1597 53.6172 72.4324 53.2916C72.705 52.9661 73.0917 52.7568 73.5133 52.7067L73.7067 52.695H74.8867ZM69.5833 51.4167C69.8703 51.7037 70.0427 52.0855 70.0682 52.4905C70.0936 52.8956 69.9704 53.296 69.7217 53.6167L69.5833 53.7733L67.8167 55.5417C67.5174 55.8438 67.1141 56.0201 66.6891 56.0345C66.2641 56.0489 65.8497 55.9003 65.5307 55.6192C65.2117 55.3381 65.0122 54.9457 64.973 54.5223C64.9338 54.0989 65.058 53.6765 65.32 53.3417L65.4583 53.185L67.225 51.4183C67.3798 51.2634 67.5636 51.1405 67.7659 51.0566C67.9683 50.9727 68.1852 50.9295 68.4042 50.9295C68.6232 50.9295 68.8401 50.9727 69.0424 51.0566C69.2447 51.1405 69.4286 51.2617 69.5833 51.4167ZM65.2717 42.6417C66.0183 44.885 65.6183 47.3417 65.1517 49.0583C64.8724 50.129 64.4871 51.1691 64.0017 52.1633C63.8043 52.559 63.4579 52.86 63.0386 53.0002C62.6193 53.1403 62.1615 53.1082 61.7658 52.9108C61.3702 52.7135 61.0692 52.367 60.929 51.9477C60.7889 51.5284 60.821 51.0706 61.0183 50.675C61.4061 49.8765 61.7132 49.0412 61.935 48.1817C62.3133 46.795 62.5033 45.29 62.2117 44.0567L62.11 43.6967C62.0374 43.4882 62.0069 43.2675 62.0203 43.0471C62.0336 42.8268 62.0907 42.6113 62.188 42.4132C62.2853 42.2151 62.4211 42.0383 62.5873 41.8931C62.7535 41.7479 62.9469 41.6371 63.1563 41.5673C63.3657 41.4974 63.5869 41.4698 63.807 41.4861C64.0271 41.5024 64.2418 41.5623 64.4386 41.6623C64.6354 41.7622 64.8104 41.9003 64.9534 42.0684C65.0964 42.2365 65.2046 42.4314 65.2717 42.6417ZM74.2967 46.705C74.6091 47.0176 74.7847 47.4414 74.7847 47.8833C74.7847 48.3253 74.6091 48.7491 74.2967 49.0617L73.1183 50.24C72.9646 50.3992 72.7807 50.5262 72.5774 50.6135C72.374 50.7009 72.1553 50.7468 71.934 50.7488C71.7127 50.7507 71.4932 50.7085 71.2884 50.6247C71.0836 50.5409 70.8975 50.4172 70.741 50.2607C70.5845 50.1042 70.4608 49.9181 70.377 49.7133C70.2932 49.5084 70.251 49.289 70.2529 49.0677C70.2548 48.8464 70.3008 48.6277 70.3882 48.4243C70.4755 48.221 70.6025 48.0371 70.7617 47.8833L71.94 46.705C72.2526 46.3926 72.6764 46.217 73.1183 46.217C73.5603 46.217 73.9841 46.3926 74.2967 46.705Z" fill="white"/>
</svg>
