<svg width="128" height="141" viewBox="0 0 128 141" fill="none" xmlns="http://www.w3.org/2000/svg">
<ellipse cx="63.4786" cy="57.5505" rx="57.7064" ry="57.5505" fill="#48486F"/>
<path d="M70.8555 74.67C70.9055 71.5616 70.7939 72.2033 71.0489 71.4133C71.3022 70.6216 72.2872 69.2466 72.8955 67.4983C74.6005 62.6 73.6922 60.59 71.1689 59.03C68.5105 57.3866 65.8255 56.7466 63.4739 56.9516V49.2233C63.4739 47.62 62.5639 46.3833 60.9589 46.3833C59.3539 46.3833 58.5422 47.7783 58.5422 49.3833L58.6272 57.4416M58.6272 57.4416L55.1589 60.885C53.3189 62.8016 53.8155 64.1766 53.8989 64.765C54.3572 66.0266 54.3489 66.1633 56.3505 69.06C58.1672 71.6883 58.5972 72.2466 58.5972 73.555V74.67M58.6272 57.4416V63.3183" stroke="white" stroke-width="1.5" stroke-linecap="round" stroke-linejoin="round"/>
<path d="M54.6022 48.04C54.4922 46.5067 55.4355 43.4734 58.0238 42.205C59.0905 41.555 62.0222 40.55 64.8238 42.3417C67.5855 44.1067 67.7722 46.7084 67.9455 48.0217" stroke="white" stroke-width="1.5" stroke-linecap="round" stroke-linejoin="round"/>
</svg>
