<svg width="20" height="20" viewBox="0 0 20 20" fill="none" xmlns="http://www.w3.org/2000/svg">
<g clip-path="url(#clip0_4239_263)">
<path d="M3.75 1.25H16.25C17.635 1.25 18.75 2.365 18.75 3.75V16.25C18.75 17.635 17.635 18.75 16.25 18.75H3.75C2.365 18.75 1.25 17.635 1.25 16.25V3.75C1.25 2.365 2.365 1.25 3.75 1.25Z" stroke="#918F98" stroke-width="1.5" stroke-linecap="round" stroke-linejoin="round"/>
<path d="M5 5H6.25" stroke="#918F98" stroke-width="1.5" stroke-linecap="round" stroke-linejoin="round"/>
<path d="M7.5 6.25C7.16848 6.25 6.85054 6.1183 6.61612 5.88388C6.3817 5.64946 6.25 5.33152 6.25 5C6.25 4.66848 6.3817 4.35054 6.61612 4.11612C6.85054 3.8817 7.16848 3.75 7.5 3.75C7.66415 3.75 7.8267 3.78233 7.97835 3.84515C8.13001 3.90797 8.26781 4.00004 8.38388 4.11612C8.49996 4.23219 8.59203 4.36999 8.65485 4.52165C8.71767 4.6733 8.75 4.83585 8.75 5C8.75 5.16415 8.71767 5.3267 8.65485 5.47835C8.59203 5.63001 8.49996 5.76781 8.38388 5.88388C8.26781 5.99996 8.13001 6.09203 7.97835 6.15485C7.8267 6.21767 7.66415 6.25 7.5 6.25Z" stroke="#918F98" stroke-width="1.5" stroke-linecap="round" stroke-linejoin="round"/>
<path d="M8.75 5.00003L15 5" stroke="#918F98" stroke-width="1.5" stroke-linecap="round" stroke-linejoin="round"/>
<path d="M15 10H13.75" stroke="#918F98" stroke-width="1.5" stroke-linecap="round" stroke-linejoin="round"/>
<path d="M12.5 11.25C12.8315 11.25 13.1495 11.1183 13.3839 10.8839C13.6183 10.6495 13.75 10.3315 13.75 10C13.75 9.66848 13.6183 9.35054 13.3839 9.11612C13.1495 8.8817 12.8315 8.75 12.5 8.75C12.1685 8.75 11.8505 8.8817 11.6161 9.11612C11.3817 9.35054 11.25 9.66848 11.25 10C11.25 10.3315 11.3817 10.6495 11.6161 10.8839C11.8505 11.1183 12.1685 11.25 12.5 11.25Z" stroke="#918F98" stroke-width="1.5" stroke-linecap="round" stroke-linejoin="round"/>
<path d="M11.25 10L5 10" stroke="#918F98" stroke-width="1.5" stroke-linecap="round" stroke-linejoin="round"/>
<path d="M5 15H6.25" stroke="#918F98" stroke-width="1.5" stroke-linecap="round" stroke-linejoin="round"/>
<path d="M7.5 16.25C7.16848 16.25 6.85054 16.1183 6.61612 15.8839C6.3817 15.6495 6.25 15.3315 6.25 15C6.25 14.6685 6.3817 14.3505 6.61612 14.1161C6.85054 13.8817 7.16848 13.75 7.5 13.75C7.66415 13.75 7.8267 13.7823 7.97835 13.8452C8.13001 13.908 8.26781 14 8.38388 14.1161C8.49996 14.2322 8.59203 14.37 8.65485 14.5216C8.71767 14.6733 8.75 14.8358 8.75 15C8.75 15.1642 8.71767 15.3267 8.65485 15.4784C8.59203 15.63 8.49996 15.7678 8.38388 15.8839C8.26781 16 8.13001 16.092 7.97835 16.1548C7.8267 16.2177 7.66415 16.25 7.5 16.25Z" stroke="#918F98" stroke-width="1.5" stroke-linecap="round" stroke-linejoin="round"/>
<path d="M8.75 15L15 15" stroke="#918F98" stroke-width="1.5" stroke-linecap="round" stroke-linejoin="round"/>
</g>
<defs>
<clipPath id="clip0_4239_263">
<rect width="20" height="20" fill="white"/>
</clipPath>
</defs>
</svg>
