<svg width="40" height="41" viewBox="0 0 40 41" fill="none" xmlns="http://www.w3.org/2000/svg">
<path d="M20.0538 1.93796C17.721 1.93796 15.8006 3.63452 15.4542 5.86624H24.6508C24.3049 3.63452 22.3865 1.93796 20.0538 1.93796ZM11.9043 2.66311L6.38673 8.24171C8.44689 10.212 10.3266 11.3401 11.8116 11.7987C13.4206 12.2959 14.48 12.0391 15.0561 11.4497C15.25 11.2514 15.4057 10.9934 15.5103 10.6782C14.5337 9.59382 13.9381 8.15975 13.9381 6.59147C13.9381 6.17897 13.9792 5.77507 14.0576 5.38522C13.5016 4.52796 12.791 3.61429 11.9045 2.66311H11.9043ZM28.2007 2.66311C27.314 3.61421 26.6029 4.52796 26.0473 5.38522C26.127 5.78236 26.167 6.18642 26.1668 6.59147C26.167 8.15975 25.5707 9.59382 24.5947 10.6782C24.6989 10.9935 24.8549 11.2515 25.0488 11.4498C25.6249 12.0391 26.6843 12.296 28.2933 11.799C29.7785 11.3401 31.658 10.212 33.7183 8.24179L28.2006 2.66319L28.2007 2.66311ZM15.4565 7.32608C15.7696 9.31546 17.3331 10.8798 19.3237 11.1909V7.32608H15.4565ZM20.7836 7.32608V11.1909C22.7739 10.8798 24.3356 9.31546 24.6485 7.32608H20.7836ZM16.6699 11.6792C16.5192 11.9706 16.3299 12.236 16.1012 12.4701C15.5535 13.0303 14.8246 13.3642 13.9795 13.4735C15.3268 15.8829 17.6888 17.0108 20.0513 17.0037C22.4056 16.9967 24.7633 15.8616 26.1133 13.4734C25.2735 13.3625 24.5489 13.0276 24.0039 12.4701C23.7753 12.2362 23.5881 11.9701 23.4375 11.679C22.4677 12.3269 21.3037 12.7068 20.0537 12.7068C18.8037 12.7068 17.6402 12.3269 16.6699 11.679V11.6792ZM8.41056 11.7499C7.48212 12.3819 6.68072 13.1245 6.06447 13.9741C6.46916 14.1298 6.85087 14.3807 7.19494 14.7065C7.21736 14.7278 7.23845 14.7504 7.2608 14.7724C7.88517 13.9252 8.76017 13.1952 9.83892 12.5702C9.37541 12.3405 8.89822 12.0679 8.41056 11.7499ZM31.6773 11.7621C31.1871 12.0806 30.7071 12.353 30.2417 12.5824C31.3312 13.2105 32.2151 13.9433 32.8442 14.7918C32.8645 14.7716 32.8846 14.7506 32.9051 14.7308C33.2481 14.4021 33.6293 14.1468 34.0332 13.9863C33.4138 13.1376 32.6096 12.3947 31.6772 11.7621H31.6773ZM5.10978 15.2534C4.78634 15.2558 4.42931 15.3938 4.02095 15.7856C3.61236 16.1775 3.18033 16.8205 2.80259 17.7216C2.09712 19.4044 1.58642 21.9809 1.52087 25.3926H8.68884C8.62353 21.9522 8.11228 19.3662 7.40705 17.6875C7.02947 16.7889 6.59744 16.1508 6.19119 15.7661C5.78494 15.3814 5.43306 15.2511 5.10962 15.2534H5.10978ZM35.0048 15.2534C34.6813 15.2558 34.3243 15.3938 33.916 15.7856C33.5075 16.1775 33.0755 16.8205 32.6977 17.7216C31.9922 19.4044 31.4816 21.9809 31.416 25.3926H38.584C38.5188 21.9522 38.0074 19.3662 37.3023 17.6875C36.9247 16.7889 36.4926 16.1508 36.0863 15.7661C35.6801 15.3814 35.3283 15.2511 35.0048 15.2534ZM22.1532 18.1855C21.4681 18.3678 20.7625 18.4613 20.0536 18.4639C19.3435 18.466 18.6349 18.3756 17.9442 18.1953C17.5311 18.6334 17.2851 19.2001 17.2851 19.8091C17.2851 21.1567 18.4843 22.2969 20.0537 22.2969C21.623 22.2969 22.8222 21.1568 22.8222 19.8091C22.8222 19.1955 22.5722 18.6251 22.1532 18.1856V18.1855ZM16.2157 21.462C14.5901 22.2855 13.1393 23.6547 12.08 25.5439C12.4922 25.7224 12.8837 25.99 13.2519 26.3398C14.2277 24.525 15.5936 23.302 17.0995 22.6289C16.7337 22.2958 16.4341 21.9016 16.2157 21.4619V21.462ZM23.8842 21.4814C23.6631 21.9203 23.3587 22.3119 22.9905 22.6435C24.4915 23.3208 25.8553 24.5409 26.8335 26.3374C26.8383 26.3327 26.8431 26.3273 26.848 26.3226C27.2064 25.986 27.5969 25.7216 28.0077 25.5439C26.9485 23.6711 25.5033 22.308 23.8842 21.4814ZM10.869 26.7451C10.4429 26.7421 9.98759 26.9172 9.48712 27.3873C8.98673 27.8573 8.47017 28.623 8.01744 29.6919C7.44111 31.0526 6.97478 32.9076 6.71119 35.2339C7.37486 34.9058 8.10775 34.746 8.83541 34.748C9.99087 34.7513 11.1526 35.1632 12.036 36.0005C12.7772 36.703 13.3003 37.7073 13.4495 38.9351H15.266C15.1991 34.8444 14.5855 31.7562 13.7303 29.7333C12.8241 27.5897 11.7211 26.751 10.869 26.745V26.7451ZM29.226 26.7451C28.7999 26.7421 28.347 26.9172 27.8465 27.3873C27.3461 27.8573 26.8271 28.623 26.3744 29.6919C25.5195 31.7103 24.9077 34.8101 24.8412 38.9351H26.655C26.8033 37.6987 27.3253 36.6913 28.0686 35.9882C28.9534 35.1513 30.1188 34.7447 31.2743 34.748C32.0007 34.75 32.732 34.9119 33.3935 35.2412C33.1303 32.9369 32.6647 31.0935 32.0897 29.7333C31.1835 27.5896 30.0781 26.751 29.226 26.7451ZM2.96619 26.8525C2.88572 27.1568 2.8865 27.4837 2.98072 27.8072C3.27916 28.8308 4.47814 29.4944 5.67853 29.1987C6.86915 28.9055 7.50244 27.8683 7.2215 26.8526L2.96603 26.8525H2.96619ZM32.8611 26.8525C32.7808 27.1568 32.7814 27.4837 32.8758 27.8072C33.1741 28.8308 34.3731 29.4944 35.5735 29.1987C36.7641 28.9055 37.3974 27.8683 37.1164 26.8526L32.8611 26.8525ZM8.83048 36.208C8.02072 36.2057 7.22017 36.4905 6.63087 37.0479C6.1672 37.4865 5.82041 38.0971 5.69103 38.9351H11.9751C11.8451 38.1068 11.4963 37.4994 11.0329 37.0601C10.4423 36.5002 9.64048 36.2103 8.83056 36.208L8.83048 36.208ZM31.2695 36.208C30.4597 36.2057 29.6616 36.4905 29.0723 37.0479C28.6086 37.4865 28.2594 38.0971 28.1299 38.9351H34.4141C34.284 38.1068 33.9352 37.4994 33.4717 37.0601C32.881 36.5002 32.0795 36.2104 31.2695 36.208Z" fill="white"/>
</svg>
