<svg width="24" height="25" viewBox="0 0 24 25" fill="none" xmlns="http://www.w3.org/2000/svg">
<path d="M17.0523 1.60367C16.5937 1.60634 16.275 1.7465 16.0799 2.08273C15.2591 3.49742 14.2784 4.97234 13.804 6.64109C13.937 6.68 14.0682 6.72486 14.1965 6.77483C14.5412 6.90903 14.8706 7.07867 15.1594 7.28379C16.4501 6.08651 17.8859 5.16457 19.2586 4.21526C19.791 3.84711 19.8339 3.57851 19.736 3.23886C19.638 2.8992 19.2734 2.47175 18.7739 2.15248C18.2743 1.83326 17.655 1.62139 17.1459 1.60498C17.114 1.60395 17.0828 1.60353 17.0523 1.60367ZM13.818 1.63864C13.3483 1.63011 12.984 1.93831 12.6966 2.58739C12.2775 3.53398 12.2179 5.0922 12.6288 6.48668C12.6361 6.48631 12.6433 6.48561 12.6507 6.48528C12.744 6.4812 12.8377 6.4819 12.9319 6.48668C13.3742 4.8544 14.2428 3.45293 14.995 2.19631C14.5117 1.79806 14.1103 1.64403 13.8181 1.63868L13.818 1.63864ZM9.25776 4.36718L8.76558 5.09234C9.46026 5.56297 10.1276 6.01695 10.6318 6.563C10.8154 6.76175 10.9773 6.97184 11.1151 7.20082C11.2871 6.98491 11.5067 6.81176 11.7568 6.69495C11.7759 6.68614 11.7952 6.67831 11.8144 6.67011C11.6539 6.41511 11.472 6.18176 11.2748 5.96829C10.6764 5.32015 9.95105 4.83687 9.25776 4.36718ZM19.747 4.94234C18.3757 5.89053 17.0013 6.77759 15.7932 7.88515C15.8137 7.91215 15.8329 7.9399 15.8521 7.96765C16.8215 7.65125 18.1718 7.24892 19.317 7.05781C19.8553 6.968 20.051 6.75068 20.1407 6.43775C20.2305 6.12481 20.1617 5.65447 19.8915 5.17292C19.8469 5.09387 19.7987 5.01692 19.747 4.94229L19.747 4.94234ZM9.24989 7.18625C8.54911 7.19562 7.8562 7.38781 7.1894 7.78465L7.63767 8.53606C8.65284 7.93184 9.63576 7.87357 10.6954 8.32217C10.7198 8.06004 10.7782 7.82248 10.8702 7.6092C10.8866 7.57142 10.9044 7.53486 10.9228 7.49886C10.3664 7.28698 9.80578 7.17884 9.24994 7.1862L9.24989 7.18625ZM12.803 7.37065C12.5415 7.36676 12.3063 7.40543 12.1267 7.48906C11.9216 7.58459 11.7768 7.7194 11.6745 7.9564C11.6331 8.05236 11.6008 8.16921 11.5815 8.30768C11.6028 8.30736 11.6241 8.30628 11.6454 8.30614C12.3979 8.3022 13.173 8.43598 13.957 8.73692C14.3186 8.87567 14.663 9.08628 14.9904 9.35492C15.1412 9.24031 15.2243 9.13367 15.261 9.04859C15.3178 8.91743 15.3124 8.80559 15.2313 8.63515C15.0691 8.29414 14.5185 7.84039 13.8787 7.59125C13.5588 7.46665 13.2234 7.39325 12.9167 7.37497C12.8783 7.37262 12.8404 7.37122 12.8031 7.37065H12.803ZM11.6425 9.17332C10.5652 9.17684 9.54619 9.51954 8.59565 10.1006C7.0748 11.0304 5.75667 12.5908 4.82953 14.3209C3.90248 16.0509 3.37017 17.9494 3.36769 19.5019C3.3652 21.0516 3.84862 22.1865 4.90575 22.6792C4.90776 22.6802 4.90959 22.6812 4.91161 22.6822H4.91311C6.07898 23.2217 7.98886 23.5886 9.99469 23.624C12.0005 23.6594 14.1098 23.3682 15.7075 22.6777C16.7369 22.2329 17.3268 21.344 17.606 20.1392C17.8851 18.9342 17.8177 17.4365 17.4946 15.9526C17.1715 14.4687 16.5946 12.9966 15.8964 11.8334C15.1983 10.6703 14.3677 9.83356 13.6435 9.55564C12.9561 9.29187 12.2889 9.17126 11.6425 9.17332Z" fill="#9747FF"/>
</svg>
