<svg width="24" height="15" viewBox="0 0 24 15" fill="none" xmlns="http://www.w3.org/2000/svg">
<path d="M10.5 3H4.5C3.30653 3 2.16193 3.47411 1.31802 4.31802C0.474106 5.16193 0 6.30653 0 7.5C0 8.69347 0.474106 9.83807 1.31802 10.682C2.16193 11.5259 3.30653 12 4.5 12H10.5C10.1509 11.5356 9.85692 11.0322 9.624 10.5H4.5C3.70435 10.5 2.94129 10.1839 2.37868 9.62132C1.81607 9.05871 1.5 8.29565 1.5 7.5C1.5 6.70435 1.81607 5.94129 2.37868 5.37868C2.94129 4.81607 3.70435 4.5 4.5 4.5H9.624C9.859 3.963 10.151 3.463 10.5 3Z" fill="#9747FF"/>
<path d="M24 7.5C24 9.48912 23.2098 11.3968 21.8033 12.8033C20.3968 14.2098 18.4891 15 16.5 15C14.5109 15 12.6032 14.2098 11.1967 12.8033C9.79018 11.3968 9 9.48912 9 7.5C9 5.51088 9.79018 3.60322 11.1967 2.1967C12.6032 0.790176 14.5109 0 16.5 0C18.4891 0 20.3968 0.790176 21.8033 2.1967C23.2098 3.60322 24 5.51088 24 7.5Z" fill="#9747FF"/>
</svg>
