<svg width="18" height="18" viewBox="0 0 18 18" fill="none" xmlns="http://www.w3.org/2000/svg">
<path fill-rule="evenodd" clip-rule="evenodd" d="M9 11C9 10.2044 9.31607 9.44129 9.87868 8.87868C10.4413 8.31607 11.2044 8 12 8H16C16.5304 8 17.0391 8.21071 17.4142 8.58579C17.7893 8.96086 18 9.46957 18 10V12C18 12.5304 17.7893 13.0391 17.4142 13.4142C17.0391 13.7893 16.5304 14 16 14H12C11.2044 14 10.4413 13.6839 9.87868 13.1213C9.31607 12.5587 9 11.7956 9 11ZM12 10C11.7348 10 11.4804 10.1054 11.2929 10.2929C11.1054 10.4804 11 10.7348 11 11C11 11.2652 11.1054 11.5196 11.2929 11.7071C11.4804 11.8946 11.7348 12 12 12H16V10H12Z" fill="#F8F8F8"/>
<path fill-rule="evenodd" clip-rule="evenodd" d="M9.293 0.293C9.48053 0.105529 9.73484 0.000213623 10 0.000213623C10.2652 0.000213623 10.5195 0.105529 10.707 0.293L13.414 3H10.586L9.293 1.707C9.10553 1.51947 9.00021 1.26516 9.00021 1C9.00021 0.734836 9.10553 0.480528 9.293 0.293ZM9.414 3L6.707 0.293C6.51947 0.105529 6.26516 0.000213623 6 0.000213623C5.73484 0.000213623 5.48053 0.105529 5.293 0.293L2.586 3H9.414ZM1.586 4L1.53 4.055C1.09371 4.16048 0.705582 4.40966 0.428065 4.76246C0.150547 5.11525 -0.000226241 5.55114 2.54813e-07 6V16C2.54813e-07 16.5304 0.210714 17.0391 0.585787 17.4142C0.960859 17.7893 1.46957 18 2 18H14C14.5304 18 15.0391 17.7893 15.4142 17.4142C15.7893 17.0391 16 16.5304 16 16H12C10.6739 16 9.40215 15.4732 8.46447 14.5355C7.52678 13.5979 7 12.3261 7 11C7 9.67392 7.52678 8.40215 8.46447 7.46447C9.40215 6.52678 10.6739 6 12 6H16C16.0002 5.55114 15.8495 5.11525 15.5719 4.76246C15.2944 4.40966 14.9063 4.16048 14.47 4.055L14.414 4H1.586Z" fill="#F8F8F8"/>
</svg>
