<svg width="24" height="25" viewBox="0 0 24 25" fill="none" xmlns="http://www.w3.org/2000/svg">
<path d="M18.375 13.239L10.682 20.932C9.83811 21.7759 8.69351 22.25 7.50003 22.25C6.30655 22.25 5.16195 21.7759 4.31803 20.932C3.47411 20.0881 3 18.9435 3 17.75C3 16.5565 3.47411 15.4119 4.31803 14.568L15.258 3.62801C15.5367 3.34948 15.8675 3.12856 16.2315 2.97787C16.5956 2.82718 16.9857 2.74966 17.3797 2.74976C17.7737 2.74985 18.1639 2.82754 18.5278 2.97841C18.8918 3.12927 19.2225 3.35035 19.501 3.62901C19.7796 3.90768 20.0005 4.23847 20.1512 4.60252C20.3019 4.96656 20.3794 5.35672 20.3793 5.75072C20.3792 6.14472 20.3015 6.53484 20.1506 6.89881C19.9998 7.26278 19.7787 7.59348 19.5 7.87201L8.55203 18.82C8.26801 19.0923 7.88839 19.2411 7.49497 19.2361C7.10156 19.2311 6.72585 19.0717 6.44883 18.7924C6.1718 18.513 6.01564 18.1359 6.01399 17.7425C6.01234 17.349 6.16535 16.9707 6.44003 16.689L14.25 8.87901M8.56103 18.81L8.55103 18.82" stroke="#F8F8F8" stroke-width="1.5" stroke-linecap="round" stroke-linejoin="round"/>
</svg>
