<svg width="24" height="25" viewBox="0 0 24 25" fill="none" xmlns="http://www.w3.org/2000/svg">
<path d="M16.25 22.502C16.28 20.637 16.213 21.022 16.366 20.548C16.518 20.073 17.109 19.248 17.474 18.199C18.497 15.26 17.952 14.054 16.438 13.118C14.843 12.132 13.232 11.748 11.821 11.871V7.23403C11.821 6.27203 11.275 5.53003 10.312 5.53003C9.34897 5.53003 8.86197 6.36703 8.86197 7.33003L8.91297 12.165M8.91297 12.165L6.83197 14.231C5.72797 15.381 6.02597 16.206 6.07597 16.559C6.35097 17.316 6.34597 17.398 7.54697 19.136C8.63697 20.713 8.89497 21.048 8.89497 21.833V22.502M8.91297 12.165V15.691" stroke="white" stroke-width="1.5" stroke-linecap="round" stroke-linejoin="round"/>
<path d="M6.49798 6.52402C6.43198 5.60402 6.99798 3.78402 8.55098 3.02302C9.19098 2.63302 10.95 2.03002 12.631 3.10502C14.288 4.16402 14.4 5.72502 14.504 6.51302" stroke="white" stroke-width="1.5" stroke-linecap="round" stroke-linejoin="round"/>
</svg>
