<svg width="40" height="40" viewBox="0 0 40 40" fill="none" xmlns="http://www.w3.org/2000/svg">
<path d="M31.6666 19.1667H32.5C34.0583 19.1667 34.8366 19.1667 35.4166 19.5017C35.7967 19.7211 36.1122 20.0367 36.3316 20.4167C36.6666 20.9967 36.6666 21.775 36.6666 23.3333C36.6666 24.8917 36.6666 25.67 36.3316 26.25C36.1122 26.63 35.7967 26.9456 35.4166 27.165C34.8366 27.5 34.0583 27.5 32.5 27.5H31.6666M8.33331 19.1667H7.49998C5.94165 19.1667 5.16331 19.1667 4.58331 19.5017C4.2033 19.7211 3.88773 20.0367 3.66831 20.4167C3.33331 20.9967 3.33331 21.775 3.33331 23.3333C3.33331 24.8917 3.33331 25.67 3.66831 26.25C3.88773 26.63 4.2033 26.9456 4.58331 27.165C5.16331 27.5 5.94165 27.5 7.49998 27.5H8.33331M20 8.33334C20.663 8.33334 21.2989 8.06995 21.7677 7.60111C22.2366 7.13227 22.5 6.49638 22.5 5.83334C22.5 5.1703 22.2366 4.53442 21.7677 4.06558C21.2989 3.59674 20.663 3.33334 20 3.33334C19.3369 3.33334 18.7011 3.59674 18.2322 4.06558C17.7634 4.53442 17.5 5.1703 17.5 5.83334C17.5 6.49638 17.7634 7.13227 18.2322 7.60111C18.7011 8.06995 19.3369 8.33334 20 8.33334ZM20 8.33334V13.3333M15 20V21.6667M25 20V21.6667M18.3333 13.3333H21.6666C26.38 13.3333 28.7383 13.3333 30.2016 14.7983C31.6666 16.2617 31.6666 18.62 31.6666 23.3333C31.6666 28.0467 31.6666 30.405 30.2016 31.8683C28.7383 33.3333 26.38 33.3333 21.6666 33.3333H20C20 33.3333 19.1666 36.6667 13.3333 36.6667C13.3333 36.6667 15 34.985 15 33.305C12.4116 33.2267 10.8666 32.9383 9.79831 31.8683C8.33331 30.405 8.33331 28.0467 8.33331 23.3333C8.33331 18.62 8.33331 16.2617 9.79831 14.7983C11.2616 13.3333 13.62 13.3333 18.3333 13.3333Z" stroke="white" stroke-width="2.5" stroke-linecap="round" stroke-linejoin="round"/>
<path d="M16.6666 27.5C16.6666 27.5 17.7783 28.3333 20 28.3333C22.2216 28.3333 23.3333 27.5 23.3333 27.5" stroke="white" stroke-width="2.5" stroke-linecap="round" stroke-linejoin="round"/>
</svg>
