<svg width="40" height="41" viewBox="0 0 40 41" fill="none" xmlns="http://www.w3.org/2000/svg">
<path d="M12.5 6.33331C9.90666 6.41165 8.36166 6.69998 7.29166 7.76998C5.82666 9.23665 5.82666 11.595 5.82666 16.3133V27.1566C5.82666 31.8766 5.82666 34.235 7.29166 35.7016C8.75499 37.1666 11.1133 37.1666 15.8267 37.1666H24.16C28.875 37.1666 31.2317 37.1666 32.695 35.7C34.1617 34.235 34.1617 31.8766 34.1617 27.1566V16.3133C34.1617 11.5966 34.1617 9.23665 32.695 7.76998C31.6267 6.69998 30.08 6.41165 27.4867 6.33331" stroke="white" stroke-width="2.5" stroke-linecap="round" stroke-linejoin="round"/>
<path d="M22.5 18.8333H28.3334M11.6667 20.5C11.6667 20.5 12.5 20.5 13.3334 22.1666C13.3334 22.1666 15.98 18 18.3334 17.1666M22.5 28.8333H28.3334M13.3334 28.8333H15M12.4934 6.74998C12.4934 5.13998 13.8 3.83331 15.41 3.83331H24.5767C25.3502 3.83331 26.0921 4.1406 26.6391 4.68759C27.1861 5.23457 27.4934 5.97643 27.4934 6.74998C27.4934 7.52353 27.1861 8.26539 26.6391 8.81237C26.0921 9.35936 25.3502 9.66665 24.5767 9.66665H15.41C14.6365 9.66665 13.8946 9.35936 13.3476 8.81237C12.8006 8.26539 12.4934 7.52353 12.4934 6.74998Z" stroke="white" stroke-width="2.5" stroke-linecap="round" stroke-linejoin="round"/>
</svg>
