<svg width="25" height="24" viewBox="0 0 25 24" fill="none" xmlns="http://www.w3.org/2000/svg">
<path d="M16.7501 22.002C16.7801 20.137 16.7131 20.522 16.8661 20.048C17.0181 19.573 17.6091 18.748 17.9741 17.699C18.9971 14.76 18.4521 13.554 16.9381 12.618C15.3431 11.632 13.7321 11.248 12.3211 11.371V6.734C12.3211 5.772 11.7751 5.03 10.8121 5.03C9.84909 5.03 9.36209 5.867 9.36209 6.83L9.41309 11.665M9.41309 11.665L7.33209 13.731C6.22809 14.881 6.52609 15.706 6.57609 16.059C6.85109 16.816 6.84609 16.898 8.04709 18.636C9.13709 20.213 9.39509 20.548 9.39509 21.333V22.002M9.41309 11.665V15.191" stroke="white" stroke-width="2.5" stroke-linecap="round" stroke-linejoin="round"/>
<path d="M6.99804 6.02399C6.93204 5.10399 7.49804 3.28399 9.05104 2.52299C9.69104 2.13299 11.45 1.52999 13.131 2.60499C14.788 3.66399 14.9 5.22499 15.004 6.01299" stroke="white" stroke-width="2.5" stroke-linecap="round" stroke-linejoin="round"/>
</svg>
