<svg width="25" height="24" viewBox="0 0 25 24" fill="none" xmlns="http://www.w3.org/2000/svg">
<path d="M19.5 11.5H20C20.935 11.5 21.402 11.5 21.75 11.701C21.978 11.8326 22.1674 12.022 22.299 12.25C22.5 12.598 22.5 13.065 22.5 14C22.5 14.935 22.5 15.402 22.299 15.75C22.1674 15.978 21.978 16.1674 21.75 16.299C21.402 16.5 20.935 16.5 20 16.5H19.5M5.5 11.5H5C4.065 11.5 3.598 11.5 3.25 11.701C3.02199 11.8326 2.83265 12.022 2.701 12.25C2.5 12.598 2.5 13.065 2.5 14C2.5 14.935 2.5 15.402 2.701 15.75C2.83265 15.978 3.02199 16.1674 3.25 16.299C3.598 16.5 4.065 16.5 5 16.5H5.5M12.5 5C12.8978 5 13.2794 4.84196 13.5607 4.56066C13.842 4.27936 14 3.89782 14 3.5C14 3.10218 13.842 2.72064 13.5607 2.43934C13.2794 2.15804 12.8978 2 12.5 2C12.1022 2 11.7206 2.15804 11.4393 2.43934C11.158 2.72064 11 3.10218 11 3.5C11 3.89782 11.158 4.27936 11.4393 4.56066C11.7206 4.84196 12.1022 5 12.5 5ZM12.5 5V8M9.5 12V13M15.5 12V13M11.5 8H13.5C16.328 8 17.743 8 18.621 8.879C19.5 9.757 19.5 11.172 19.5 14C19.5 16.828 19.5 18.243 18.621 19.121C17.743 20 16.328 20 13.5 20H12.5C12.5 20 12 22 8.5 22C8.5 22 9.5 20.991 9.5 19.983C7.947 19.936 7.02 19.763 6.379 19.121C5.5 18.243 5.5 16.828 5.5 14C5.5 11.172 5.5 9.757 6.379 8.879C7.257 8 8.672 8 11.5 8Z" stroke="white" stroke-width="1.5" stroke-linecap="round" stroke-linejoin="round"/>
<path d="M10.5 16.5C10.5 16.5 11.167 17 12.5 17C13.833 17 14.5 16.5 14.5 16.5" stroke="white" stroke-width="1.5" stroke-linecap="round" stroke-linejoin="round"/>
</svg>
