<svg width="38" height="38" viewBox="0 0 38 38" fill="none" xmlns="http://www.w3.org/2000/svg">
<path d="M8.71783 25.3207L12.7142 14.2959C13.4425 12.7648 14.554 11.4997 15.8286 14.535C17.005 17.3375 18.7578 22.4675 19.7948 25.3254M10.5323 20.5865H17.9249" stroke="white" stroke-width="2.5" stroke-linecap="round" stroke-linejoin="round"/>
<path d="M5.48466 6.83683C3.16666 8.92367 3.16666 12.2835 3.16666 19C3.16666 25.7165 3.16666 29.0763 5.48466 31.1632C7.80582 33.25 11.5362 33.25 19 33.25C26.4638 33.25 30.1957 33.25 32.5137 31.1632C34.8317 29.0763 34.8333 25.7165 34.8333 19C34.8333 12.2835 34.8333 8.92367 32.5137 6.83683C30.1973 4.75 26.4638 4.75 19 4.75C11.5362 4.75 7.80424 4.75 5.48466 6.83683Z" stroke="white" stroke-width="2.5" stroke-linecap="round" stroke-linejoin="round"/>
<path d="M29.2663 14.2294V18.9715M29.2663 18.9715V25.2146M29.2663 18.9715H26.0712C25.6912 18.9715 25.3143 19.0412 24.9597 19.1789C22.2791 20.2192 22.2791 24.0873 24.9597 25.1275C25.3159 25.2653 25.6912 25.3349 26.0712 25.3349H29.2663" stroke="white" stroke-width="2.5" stroke-linecap="round" stroke-linejoin="round"/>
</svg>
