<svg width="30" height="31" viewBox="0 0 30 31" fill="none" xmlns="http://www.w3.org/2000/svg">
<path d="M6.88232 20.49L10.0373 11.7862C10.6123 10.5775 11.4898 9.57874 12.4961 11.975C13.4248 14.1875 14.8086 18.2375 15.6273 20.4937M8.31482 16.7525H14.1511" stroke="white" stroke-width="2.5" stroke-linecap="round" stroke-linejoin="round"/>
<path d="M4.33 5.8975C2.5 7.545 2.5 10.1975 2.5 15.5C2.5 20.8025 2.5 23.455 4.33 25.1025C6.1625 26.75 9.1075 26.75 15 26.75C20.8925 26.75 23.8387 26.75 25.6687 25.1025C27.4987 23.455 27.5 20.8025 27.5 15.5C27.5 10.1975 27.5 7.545 25.6687 5.8975C23.84 4.25 20.8925 4.25 15 4.25C9.1075 4.25 6.16125 4.25 4.33 5.8975Z" stroke="white" stroke-width="2.5" stroke-linecap="round" stroke-linejoin="round"/>
<path d="M23.1049 11.7338V15.4775M23.1049 15.4775V20.4063M23.1049 15.4775H20.5824C20.2824 15.4775 19.9849 15.5325 19.7049 15.6413C17.5886 16.4625 17.5886 19.5163 19.7049 20.3375C19.9861 20.4463 20.2824 20.5013 20.5824 20.5013H23.1049" stroke="white" stroke-width="2.5" stroke-linecap="round" stroke-linejoin="round"/>
</svg>
