<svg width="24" height="24" viewBox="0 0 24 24" fill="none" xmlns="http://www.w3.org/2000/svg">
<path d="M18 18C20.2091 18 22 14.4183 22 10C22 5.58172 20.2091 2 18 2C15.7909 2 14 5.58172 14 10C14 14.4183 15.7909 18 18 18Z" stroke="white" stroke-width="1.5" stroke-linecap="round" stroke-linejoin="round"/>
<path d="M18 2C14.897 2 8.465 4.378 4.771 5.854C3.079 6.53 2 8.178 2 10C2 11.822 3.08 13.47 4.771 14.146C8.465 15.622 14.897 18 18 18M11 22L9.057 20.93C8.01968 20.3559 7.17826 19.4841 6.64136 18.427C6.10446 17.37 5.89674 16.1763 6.045 15" stroke="white" stroke-width="1.5" stroke-linecap="round" stroke-linejoin="round"/>
</svg>
