<svg width="40" height="41" viewBox="0 0 40 41" fill="none" xmlns="http://www.w3.org/2000/svg">
<path d="M12.515 24.4217V10.66C12.515 9.29167 13.5316 8.01 14.9016 8.01C16.275 8.01 17.53 9.09834 17.53 10.4667V17.6017M17.53 17.6017L17.5166 19.5617M17.53 17.6017C18.4683 14.0733 22.785 15.4267 22.52 18.195C22.515 18.245 22.52 19.425 22.52 19.425M22.52 19.425V21.325M22.52 19.425C22.9916 16.2417 28.2233 16.1533 27.5566 21.0083M27.5566 21.0083L27.5183 22.155M27.5566 21.0083C28.34 17.6583 32.615 18.38 32.5016 21.4683V27.6133C32.4966 30.24 31.985 31.4967 30.6266 33.0783C30.36 33.3883 30.1016 33.71 29.9066 34.07C29.1933 35.3917 29.52 35.7533 29.4016 37.1533M12.5166 17.8567C10.3166 19.8467 8.83664 21.6633 8.39331 22.2067C6.90998 24.4583 7.28664 25.935 9.39331 28.94C10.9633 31.1733 12.405 32.78 12.515 32.9067C13.6366 34.1733 13.5366 35.0117 13.5366 37.17" stroke="white" stroke-width="2.5" stroke-linecap="round" stroke-linejoin="round"/>
<path d="M21.7233 10.5C21.7233 6.81667 18.7317 3.83333 15.04 3.83333C13.27 3.83156 11.5717 4.5329 10.3187 5.78309C9.06569 7.03329 8.36055 8.72997 8.35834 10.5" stroke="white" stroke-width="2.5" stroke-linecap="round" stroke-linejoin="round"/>
</svg>
