<svg width="56" height="56" viewBox="0 0 56 56" fill="none" xmlns="http://www.w3.org/2000/svg">
<path d="M47.4792 31.0041C47.4792 36.1703 45.4269 41.1249 41.7739 44.7779C38.1208 48.431 33.1662 50.4832 28 50.4832C22.8338 50.4832 17.8792 48.431 14.2262 44.7779C10.5731 41.1249 8.52087 36.1703 8.52087 31.0041C8.52087 25.8379 10.5731 20.8833 14.2262 17.2302C17.8792 13.5772 22.8338 11.5249 28 11.5249C33.1662 11.5249 38.1208 13.5772 41.7739 17.2302C45.4269 20.8833 47.4792 25.8379 47.4792 31.0041Z" stroke="white" stroke-width="5" stroke-linecap="round" stroke-linejoin="round"/>
<path d="M28 43.6082C24.6572 43.6082 21.4513 42.2803 19.0875 39.9166C16.7238 37.5528 15.3959 34.3469 15.3959 31.0041C15.3959 27.6612 16.7238 24.4553 19.0875 22.0916C21.4513 19.7278 24.6572 18.3999 28 18.3999M28 31.0041L34.875 20.6916M31.4375 8.08739C31.4375 7.17571 31.0754 6.30137 30.4307 5.65672C29.7861 5.01206 28.9117 4.64989 28 4.64989C27.0884 4.64989 26.214 5.01206 25.5694 5.65672C24.9247 6.30137 24.5625 7.17571 24.5625 8.08739C24.5625 8.99908 24.9247 9.87342 25.5694 10.5181C26.214 11.1627 27.0884 11.5249 28 11.5249C28.9117 11.5249 29.7861 11.1627 30.4307 10.5181C31.0754 9.87342 31.4375 8.99908 31.4375 8.08739Z" stroke="white" stroke-width="5" stroke-linecap="round" stroke-linejoin="round"/>
</svg>
