<svg width="35" height="36" viewBox="0 0 35 36" fill="none" xmlns="http://www.w3.org/2000/svg">
<path d="M23.698 32.5863C23.7418 29.8665 23.6441 30.4279 23.8672 29.7367C24.0889 29.044 24.9507 27.8408 25.483 26.311C26.9749 22.025 26.1801 20.2663 23.9722 18.9013C21.6461 17.4633 19.2968 16.9033 17.2391 17.0827V10.3204C17.2391 8.9175 16.4428 7.83542 15.0384 7.83542C13.6341 7.83542 12.9239 9.05604 12.9239 10.4604L12.9982 17.5115M12.9982 17.5115L9.96344 20.5244C8.35344 22.2015 8.78802 23.4046 8.86094 23.9194C9.26198 25.0233 9.25469 25.1429 11.0061 27.6775C12.5957 29.9773 12.972 30.4658 12.972 31.6106V32.5863M12.9982 17.5115V22.6535" stroke="white" stroke-width="2.5" stroke-linecap="round" stroke-linejoin="round"/>
<path d="M9.47646 9.28499C9.38021 7.94333 10.2056 5.28916 12.4704 4.17937C13.4038 3.61062 15.969 2.73124 18.4204 4.29895C20.8369 5.84333 21.0002 8.11979 21.1519 9.26895" stroke="white" stroke-width="2.5" stroke-linecap="round" stroke-linejoin="round"/>
</svg>
