<svg width="40" height="41" viewBox="0 0 40 41" fill="none" xmlns="http://www.w3.org/2000/svg">
<path d="M23.3333 20.5L17.5 23.8333V17.1666L23.3333 20.5Z" fill="white" stroke="white" stroke-width="2.5" stroke-linecap="round" stroke-linejoin="round"/>
<path d="M3.33334 21.68V19.32C3.33334 14.495 3.33334 12.0817 4.84168 10.53C6.35168 8.97666 8.72834 8.90999 13.48 8.77499C15.73 8.71166 18.03 8.66666 20 8.66666C21.97 8.66666 24.2683 8.71166 26.52 8.77499C31.2717 8.90999 33.6483 8.97666 35.1567 10.53C36.665 12.0833 36.6667 14.4967 36.6667 19.32V21.6783C36.6667 26.505 36.6667 28.9167 35.1583 30.47C33.6483 32.0217 31.2733 32.09 26.52 32.2233C24.27 32.2883 21.97 32.3333 20 32.3333C18.03 32.3333 15.7317 32.2883 13.48 32.2233C8.72834 32.09 6.35168 32.0233 4.84168 30.47C3.33168 28.9167 3.33334 26.5033 3.33334 21.68Z" stroke="white" stroke-width="2.5"/>
</svg>
