<svg width="30" height="31" viewBox="0 0 30 31" fill="none" xmlns="http://www.w3.org/2000/svg">
<path d="M17.5 15.5L13.125 18V13L17.5 15.5Z" fill="white" stroke="white" stroke-width="2.5" stroke-linecap="round" stroke-linejoin="round"/>
<path d="M2.5 16.385V14.615C2.5 10.9962 2.5 9.18625 3.63125 8.0225C4.76375 6.8575 6.54625 6.8075 10.11 6.70625C11.7975 6.65875 13.5225 6.625 15 6.625C16.4775 6.625 18.2012 6.65875 19.89 6.70625C23.4537 6.8075 25.2362 6.8575 26.3675 8.0225C27.4987 9.1875 27.5 10.9975 27.5 14.615V16.3837C27.5 20.0037 27.5 21.8125 26.3687 22.9775C25.2362 24.1412 23.455 24.1925 19.89 24.2925C18.2025 24.3412 16.4775 24.375 15 24.375C13.5225 24.375 11.7988 24.3412 10.11 24.2925C6.54625 24.1925 4.76375 24.1425 3.63125 22.9775C2.49875 21.8125 2.5 20.0025 2.5 16.385Z" stroke="white" stroke-width="2.5"/>
</svg>
