<svg width="40" height="41" viewBox="0 0 40 41" fill="none" xmlns="http://www.w3.org/2000/svg">
<path d="M23.3333 20.5L17.5 23.8334V17.1667L23.3333 20.5Z" fill="white" stroke="white" stroke-width="2.5" stroke-linecap="round" stroke-linejoin="round"/>
<path d="M3.33334 21.68V19.32C3.33334 14.495 3.33334 12.0817 4.84168 10.53C6.35168 8.97669 8.72834 8.91002 13.48 8.77502C15.73 8.71169 18.03 8.66669 20 8.66669C21.97 8.66669 24.2683 8.71169 26.52 8.77502C31.2717 8.91002 33.6483 8.97669 35.1567 10.53C36.665 12.0834 36.6667 14.4967 36.6667 19.32V21.6784C36.6667 26.505 36.6667 28.9167 35.1583 30.47C33.6483 32.0217 31.2733 32.09 26.52 32.2234C24.27 32.2884 21.97 32.3334 20 32.3334C18.03 32.3334 15.7317 32.2884 13.48 32.2234C8.72834 32.09 6.35168 32.0234 4.84168 30.47C3.33168 28.9167 3.33334 26.5034 3.33334 21.68Z" stroke="white" stroke-width="2.5"/>
</svg>
