<svg width="38" height="39" viewBox="0 0 38 39" fill="none" xmlns="http://www.w3.org/2000/svg">
<path d="M22.1667 19.5L16.625 22.6667V16.3333L22.1667 19.5Z" fill="white" stroke="white" stroke-width="2.5" stroke-linecap="round" stroke-linejoin="round"/>
<path d="M3.16666 20.621V18.379C3.16666 13.7953 3.16666 11.5026 4.59957 10.0285C6.03407 8.55284 8.29191 8.4895 12.806 8.36125C14.9435 8.30109 17.1285 8.25834 19 8.25834C20.8715 8.25834 23.0549 8.30109 25.194 8.36125C29.7081 8.4895 31.9659 8.55284 33.3988 10.0285C34.8317 11.5042 34.8333 13.7968 34.8333 18.379V20.6194C34.8333 25.2048 34.8333 27.4958 33.4004 28.9715C31.9659 30.4456 29.7097 30.5105 25.194 30.6372C23.0565 30.6989 20.8715 30.7417 19 30.7417C17.1285 30.7417 14.9451 30.6989 12.806 30.6372C8.29191 30.5105 6.03407 30.4472 4.59957 28.9715C3.16507 27.4958 3.16666 25.2032 3.16666 20.621Z" stroke="white" stroke-width="2.5"/>
</svg>
