<svg width="42" height="28" viewBox="0 0 42 28" fill="none" xmlns="http://www.w3.org/2000/svg">
<mask id="mask0_4152_1416" style="mask-type:luminance" maskUnits="userSpaceOnUse" x="2" y="0" width="40" height="28">
<path d="M13.3333 25.6667C12.8288 25.6667 12.3527 25.4177 12.095 24.984C10.7642 22.744 10 20.1278 10 17.3333C10 9.04906 16.7157 2.33333 25 2.33333C33.2843 2.33333 40 9.04906 40 17.3333C40 20.1278 39.2358 22.744 37.905 24.984C37.6473 25.4177 37.1712 25.6667 36.6667 25.6667H13.3333Z" stroke="white" stroke-width="3.33333" stroke-linecap="round"/>
<path d="M23.8424 10.7679C27.4697 10.1283 30.9258 12.5483 31.5654 16.1757C32.205 19.803 29.7851 23.2591 26.1577 23.8987C22.5303 24.5383 2.02118 21.3851 2.02118 21.3851C2.02118 21.3851 20.215 11.4075 23.8424 10.7679Z" fill="black"/>
<path d="M24.4212 14.0506C26.2267 13.7323 27.9644 14.949 28.2827 16.7545C28.6011 18.56 27.3843 20.2977 25.5789 20.616C23.7734 20.9344 8.58658 20.2275 8.58658 20.2275C8.58658 20.2275 22.6157 14.369 24.4212 14.0506Z" fill="white"/>
</mask>
<g mask="url(#mask0_4152_1416)">
<path d="M45 -6H5V34H45V-6Z" fill="white"/>
</g>
</svg>
