<svg width="36" height="36" viewBox="0 0 36 36" fill="none" xmlns="http://www.w3.org/2000/svg">
<path d="M8.68992 31.125C8.01811 31.125 7.45763 30.9004 7.00846 30.4512C6.55929 30.0021 6.33422 29.4416 6.33325 28.7698V10.1469C6.33325 9.47604 6.55832 8.91604 7.00846 8.46687C7.4586 8.01771 8.01909 7.79264 8.68992 7.79166H11.2697V4.53958H12.8403V7.79166H23.2733V4.53958H24.7316V7.79166H27.3114C27.9822 7.79166 28.5427 8.01673 28.9928 8.46687C29.443 8.91701 29.6676 9.4775 29.6666 10.1483V28.7698C29.6666 29.4406 29.442 30.0011 28.9928 30.4512C28.5437 30.9014 27.9827 31.126 27.3099 31.125H8.68992ZM8.68992 29.6667H27.3114C27.535 29.6667 27.7406 29.5733 27.9283 29.3867C28.1159 29.2 28.2092 28.9939 28.2083 28.7683V15.9817H7.79159V28.7698C7.79159 28.9934 7.88492 29.199 8.07159 29.3867C8.25825 29.5743 8.46388 29.6676 8.68846 29.6667M7.79159 14.5219H28.2083V10.1469C28.2083 9.92326 28.1149 9.71764 27.9283 9.53C27.7416 9.34236 27.5355 9.24903 27.3099 9.25H8.68992C8.46534 9.25 8.25922 9.34333 8.07159 9.53C7.88395 9.71666 7.79061 9.92278 7.79159 10.1483V14.5219ZM17.9999 21.1412C17.6985 21.1412 17.436 21.0294 17.2124 20.8058C16.9888 20.5822 16.877 20.3197 16.877 20.0183C16.877 19.7169 16.9888 19.4549 17.2124 19.2323C17.436 19.0097 17.6985 18.8978 17.9999 18.8969C18.3013 18.8959 18.5638 19.0077 18.7874 19.2323C19.011 19.4569 19.1228 19.7194 19.1228 20.0198C19.1228 20.3202 19.011 20.5822 18.7874 20.8058C18.5638 21.0294 18.3013 21.1412 17.9999 21.1412ZM12.1666 21.1412C11.8652 21.1412 11.6027 21.0294 11.3791 20.8058C11.1555 20.5822 11.0437 20.3197 11.0437 20.0183C11.0437 19.7169 11.1555 19.4549 11.3791 19.2323C11.6027 19.0097 11.8652 18.8978 12.1666 18.8969C12.468 18.8959 12.7305 19.0077 12.9541 19.2323C13.1777 19.4569 13.2895 19.7194 13.2895 20.0198C13.2895 20.3202 13.1777 20.5822 12.9541 20.8058C12.7305 21.0294 12.468 21.1412 12.1666 21.1412ZM23.8333 21.1412C23.5319 21.1412 23.2694 21.0294 23.0458 20.8058C22.8221 20.5822 22.7103 20.3197 22.7103 20.0183C22.7103 19.7169 22.8221 19.4549 23.0458 19.2323C23.2694 19.0097 23.5319 18.8978 23.8333 18.8969C24.1346 18.8959 24.3971 19.0077 24.6208 19.2323C24.8444 19.4569 24.9562 19.7194 24.9562 20.0198C24.9562 20.3202 24.8444 20.5822 24.6208 20.8058C24.3971 21.0294 24.1346 21.1412 23.8333 21.1412ZM17.9999 26.75C17.6985 26.75 17.436 26.6382 17.2124 26.4146C16.9888 26.191 16.877 25.9285 16.877 25.6271C16.877 25.3257 16.9888 25.0637 17.2124 24.841C17.436 24.6184 17.6985 24.5066 17.9999 24.5056C18.3013 24.5047 18.5638 24.6165 18.7874 24.841C19.011 25.0656 19.1228 25.3281 19.1228 25.6285C19.1228 25.929 19.011 26.1915 18.7874 26.416C18.5638 26.6406 18.3013 26.7519 17.9999 26.75ZM12.1666 26.75C11.8652 26.75 11.6027 26.6382 11.3791 26.4146C11.1555 26.191 11.0437 25.9285 11.0437 25.6271C11.0437 25.3257 11.1555 25.0637 11.3791 24.841C11.6027 24.6184 11.8652 24.5066 12.1666 24.5056C12.468 24.5047 12.7305 24.6165 12.9541 24.841C13.1777 25.0656 13.2895 25.3281 13.2895 25.6285C13.2895 25.929 13.1777 26.1915 12.9541 26.416C12.7305 26.6406 12.468 26.7519 12.1666 26.75ZM23.8333 26.75C23.5319 26.75 23.2694 26.6382 23.0458 26.4146C22.8221 26.191 22.7103 25.9285 22.7103 25.6271C22.7103 25.3257 22.8221 25.0637 23.0458 24.841C23.2694 24.6184 23.5319 24.5066 23.8333 24.5056C24.1346 24.5047 24.3971 24.6165 24.6208 24.841C24.8444 25.0656 24.9562 25.3281 24.9562 25.6285C24.9562 25.929 24.8444 26.1915 24.6208 26.416C24.3971 26.6406 24.1346 26.7519 23.8333 26.75Z" fill="white"/>
</svg>
