<svg width="25" height="25" viewBox="0 0 25 25" fill="none" xmlns="http://www.w3.org/2000/svg">
<path d="M12.503 21.5C11.259 21.5 10.089 21.264 8.993 20.792C7.89767 20.3193 6.94467 19.678 6.134 18.868C5.32333 18.058 4.68167 17.106 4.209 16.012C3.73633 14.918 3.5 13.7483 3.5 12.503C3.5 11.2577 3.73633 10.0877 4.209 8.993C4.68167 7.89767 5.323 6.94467 6.133 6.134C6.943 5.32333 7.89533 4.68167 8.99 4.209C10.0847 3.73633 11.2547 3.5 12.5 3.5C13.364 3.5 14.1977 3.62067 15.001 3.862C15.8043 4.10333 16.5687 4.45 17.294 4.902C17.4287 4.984 17.5177 5.094 17.561 5.232C17.6037 5.37133 17.5803 5.49967 17.491 5.617C17.401 5.735 17.2827 5.805 17.136 5.827C16.9893 5.849 16.853 5.819 16.727 5.737C16.091 5.333 15.415 5.026 14.699 4.816C13.983 4.606 13.25 4.50067 12.5 4.5C10.2833 4.5 8.39567 5.27933 6.837 6.838C5.27833 8.39667 4.49933 10.284 4.5 12.5C4.50067 14.716 5.28 16.6037 6.838 18.163C8.396 19.7223 10.2833 20.5013 12.5 20.5C14.7167 20.4987 16.6043 19.7197 18.163 18.163C19.7217 16.6063 20.5007 14.7187 20.5 12.5C20.5 12.2467 20.4893 12.001 20.468 11.763C20.4473 11.525 20.4093 11.2817 20.354 11.033C20.3207 10.8903 20.3397 10.7537 20.411 10.623C20.4823 10.4923 20.59 10.4117 20.734 10.381C20.8707 10.349 20.9947 10.374 21.106 10.456C21.2173 10.538 21.2897 10.648 21.323 10.786C21.3823 11.058 21.4267 11.3357 21.456 11.619C21.4853 11.9023 21.5 12.196 21.5 12.5C21.5 13.7453 21.264 14.9153 20.792 16.01C20.32 17.1047 19.6787 18.0573 18.868 18.868C18.0573 19.6787 17.1053 20.3197 16.012 20.791C14.9187 21.2623 13.749 21.4987 12.503 21.5ZM11.062 14.992L20.439 5.609C20.5323 5.51567 20.6457 5.465 20.779 5.457C20.9123 5.449 21.036 5.50133 21.15 5.614C21.254 5.71733 21.306 5.834 21.306 5.964C21.306 6.094 21.2527 6.21167 21.146 6.317L11.627 15.842C11.465 16.0033 11.2763 16.084 11.061 16.084C10.8457 16.084 10.6573 16.0033 10.496 15.842L7.858 13.204C7.76467 13.1107 7.71467 12.9957 7.708 12.859C7.70133 12.7237 7.75133 12.6027 7.858 12.496C7.96467 12.3893 8.08267 12.336 8.212 12.336C8.34133 12.336 8.45933 12.3893 8.566 12.496L11.062 14.992Z" fill="white"/>
</svg>
