<svg width="25" height="25" viewBox="0 0 25 25" fill="none" xmlns="http://www.w3.org/2000/svg">
<path d="M12.5 22.5C11.1167 22.5 9.81667 22.2373 8.6 21.712C7.38334 21.1867 6.325 20.4743 5.425 19.575C4.525 18.6757 3.81267 17.6173 3.288 16.4C2.76333 15.1827 2.50067 13.8827 2.5 12.5C2.49933 11.1173 2.762 9.81733 3.288 8.6C3.814 7.38267 4.52633 6.32433 5.425 5.425C6.32367 4.52567 7.382 3.81333 8.6 3.288C9.818 2.76267 11.118 2.5 12.5 2.5C13.882 2.5 15.182 2.76267 16.4 3.288C17.618 3.81333 18.6763 4.52567 19.575 5.425C20.4737 6.32433 21.1863 7.38267 21.713 8.6C22.2397 9.81733 22.502 11.1173 22.5 12.5C22.498 13.8827 22.2353 15.1827 21.712 16.4C21.1887 17.6173 20.4763 18.6757 19.575 19.575C18.6737 20.4743 17.6153 21.187 16.4 21.713C15.1847 22.239 13.8847 22.5013 12.5 22.5ZM12.5 20.5C14.7333 20.5 16.625 19.725 18.175 18.175C19.725 16.625 20.5 14.7333 20.5 12.5C20.5 10.2667 19.725 8.375 18.175 6.825C16.625 5.275 14.7333 4.5 12.5 4.5C10.2667 4.5 8.375 5.275 6.825 6.825C5.275 8.375 4.5 10.2667 4.5 12.5C4.5 14.7333 5.275 16.625 6.825 18.175C8.375 19.725 10.2667 20.5 12.5 20.5Z" fill="#699BF7"/>
</svg>
