<svg width="36" height="36" viewBox="0 0 36 36" fill="none" xmlns="http://www.w3.org/2000/svg">
<path d="M20.9166 29.6667H6.33325V25.2917C6.33325 21.3542 14.0624 19.4583 17.9999 19.4583C20.1874 19.4583 23.6874 20.0417 26.3124 21.3542C25.1458 21.7917 24.2708 22.375 23.3958 23.1042C21.7916 22.5208 19.8958 22.2292 17.9999 22.2292C13.6249 22.2292 9.10409 24.4167 9.10409 25.2917V26.8958H21.2083C21.0624 27.4792 20.9166 28.2083 20.9166 28.9375V29.6667ZM34.0416 28.9375C34.0416 31.7083 31.7083 34.0417 28.9374 34.0417C26.1666 34.0417 23.8333 31.7083 23.8333 28.9375C23.8333 26.1667 26.1666 23.8333 28.9374 23.8333C31.7083 23.8333 34.0416 26.1667 34.0416 28.9375ZM17.9999 9.25001C19.6041 9.25001 20.9166 10.5625 20.9166 12.1667C20.9166 13.7708 19.6041 15.0833 17.9999 15.0833C16.3958 15.0833 15.0833 13.7708 15.0833 12.1667C15.0833 10.5625 16.3958 9.25001 17.9999 9.25001ZM17.9999 6.33334C14.7916 6.33334 12.1666 8.95834 12.1666 12.1667C12.1666 15.375 14.7916 18 17.9999 18C21.2083 18 23.8333 15.375 23.8333 12.1667C23.8333 8.95834 21.2083 6.33334 17.9999 6.33334Z" fill="#0FA958"/>
</svg>
