<svg width="25" height="25" viewBox="0 0 25 25" fill="none" xmlns="http://www.w3.org/2000/svg">
<g clip-path="url(#clip0_2142_1538)">
<path fill-rule="evenodd" clip-rule="evenodd" d="M12.5 2.5C6.977 2.5 2.5 6.977 2.5 12.5C2.5 18.023 6.977 22.5 12.5 22.5C18.023 22.5 22.5 18.023 22.5 12.5C22.5 6.977 18.023 2.5 12.5 2.5ZM9 10C9 9.54037 9.09053 9.08525 9.26642 8.66061C9.44231 8.23597 9.70012 7.85013 10.0251 7.52513C10.3501 7.20012 10.736 6.94231 11.1606 6.76642C11.5852 6.59053 12.0404 6.5 12.5 6.5C12.9596 6.5 13.4148 6.59053 13.8394 6.76642C14.264 6.94231 14.6499 7.20012 14.9749 7.52513C15.2999 7.85013 15.5577 8.23597 15.7336 8.66061C15.9095 9.08525 16 9.54037 16 10C16 10.9283 15.6313 11.8185 14.9749 12.4749C14.3185 13.1313 13.4283 13.5 12.5 13.5C11.5717 13.5 10.6815 13.1313 10.0251 12.4749C9.36875 11.8185 9 10.9283 9 10ZM18.758 17.484C18.0094 18.4256 17.0578 19.186 15.9742 19.7082C14.8905 20.2305 13.7029 20.5011 12.5 20.5C11.2971 20.5011 10.1095 20.2305 9.02583 19.7082C7.9422 19.186 6.99056 18.4256 6.242 17.484C7.863 16.321 10.075 15.5 12.5 15.5C14.925 15.5 17.137 16.321 18.758 17.484Z" fill="#9747FF"/>
</g>
<defs>
<clipPath id="clip0_2142_1538">
<rect width="24" height="24" fill="white" transform="translate(0.5 0.5)"/>
</clipPath>
</defs>
</svg>
