<svg width="40" height="41" viewBox="0 0 40 41" fill="none" xmlns="http://www.w3.org/2000/svg">
<g clip-path="url(#clip0_4152_1514)">
<path fill-rule="evenodd" clip-rule="evenodd" d="M31.6666 7.16669C32.942 7.16662 34.1692 7.6539 35.0971 8.52883C36.025 9.40376 36.5835 10.6002 36.6583 11.8734L36.6666 12.1667V28.8334C36.6667 30.1087 36.1794 31.3359 35.3045 32.2638C34.4296 33.1917 33.2331 33.7502 31.96 33.825L31.6666 33.8334H8.33331C7.05796 33.8334 5.83079 33.3461 4.90288 32.4712C3.97497 31.5963 3.41647 30.3998 3.34165 29.1267L3.33331 28.8334V12.1667C3.33324 10.8913 3.82052 9.66416 4.69545 8.73625C5.57038 7.80834 6.76682 7.24984 8.03998 7.17502L8.33331 7.16669H31.6666ZM31.6666 10.5H8.33331C7.92509 10.5001 7.53108 10.6499 7.22603 10.9212C6.92097 11.1925 6.72607 11.5663 6.67831 11.9717L6.66665 12.1667V28.8334C6.6667 29.2416 6.81657 29.6356 7.08784 29.9406C7.3591 30.2457 7.73289 30.4406 8.13831 30.4884L8.33331 30.5H31.6666C32.0749 30.5 32.4689 30.3501 32.7739 30.0788C33.079 29.8076 33.2739 29.4338 33.3216 29.0284L33.3333 28.8334V12.1667C33.3333 11.7247 33.1577 11.3007 32.8452 10.9882C32.5326 10.6756 32.1087 10.5 31.6666 10.5ZM15.3666 13.8334C16.0638 13.8336 16.7432 14.0525 17.3095 14.4591C17.8757 14.8657 18.3002 15.4396 18.5233 16.1L18.5983 16.3584L20.7833 25.0967C20.8842 25.5084 20.8245 25.9431 20.6162 26.3124C20.4079 26.6816 20.0668 26.9576 19.6622 27.0841C19.2576 27.2107 18.82 27.1784 18.4385 26.9937C18.0569 26.809 17.76 26.4859 17.6083 26.09L17.55 25.905L17.0333 23.8334H12.9666L12.45 25.9034C12.3469 26.3158 12.0901 26.6733 11.7321 26.9027C11.3741 27.132 10.942 27.2159 10.5242 27.1371C10.1064 27.0583 9.73446 26.8228 9.48458 26.4789C9.2347 26.1349 9.12574 25.7084 9.17998 25.2867L9.21665 25.0967L11.4 16.3584C11.569 15.6814 11.9463 15.0745 12.4785 14.6233C13.0107 14.1721 13.6711 13.8993 14.3666 13.8434L14.6333 13.8334H15.3666ZM30 13.8334C30.4082 13.8334 30.8022 13.9833 31.1073 14.2545C31.4123 14.5258 31.6072 14.8996 31.655 15.305L31.6666 15.5V25.5C31.6666 25.9082 31.5167 26.3022 31.2455 26.6073C30.9742 26.9124 30.6004 27.1073 30.195 27.155L30 27.1667H26.6666C25.9532 27.1655 25.2483 27.0116 24.5992 26.7154C23.9502 26.4192 23.3721 25.9875 22.9037 25.4494C22.4353 24.9112 22.0875 24.2791 21.8836 23.5954C21.6797 22.9117 21.6246 22.1923 21.7218 21.4855C21.819 20.7787 22.0663 20.1009 22.4471 19.4976C22.828 18.8943 23.3335 18.3795 23.9298 17.9878C24.5261 17.5961 25.1993 17.3365 25.9042 17.2265C26.6091 17.1165 27.3294 17.1586 28.0166 17.35L28.3333 17.45V15.5C28.3333 15.058 28.5089 14.6341 28.8215 14.3215C29.134 14.0089 29.558 13.8334 30 13.8334ZM26.6666 20.5C26.2418 20.5005 25.8333 20.6632 25.5244 20.9548C25.2155 21.2464 25.0296 21.6449 25.0047 22.069C24.9798 22.4931 25.1178 22.9107 25.3904 23.2364C25.6631 23.5622 26.0498 23.7715 26.4716 23.8217L26.6666 23.8334H28.3333V22.1667C28.3333 21.7247 28.1577 21.3007 27.8452 20.9882C27.5326 20.6756 27.1087 20.5 26.6666 20.5ZM15.3666 17.1667H14.6333L13.8 20.5H16.2L15.3666 17.1667Z" fill="white"/>
</g>
<defs>
<clipPath id="clip0_4152_1514">
<rect width="40" height="40" fill="white" transform="translate(0 0.5)"/>
</clipPath>
</defs>
</svg>
