<svg width="30" height="30" viewBox="0 0 30 30" fill="none" xmlns="http://www.w3.org/2000/svg">
<path d="M16.25 5C17.4256 5 18.6315 5.0275 19.8002 5.0725L21.1808 5.1325L22.5021 5.20375L23.7396 5.28L24.8699 5.36C26.0966 5.44486 27.2511 5.92054 28.1299 6.70325C29.0088 7.48596 29.5556 8.52549 29.6741 9.63875L29.7291 10.17L29.8323 11.3075C29.9285 12.4863 30 13.7713 30 15C30 16.2288 29.9285 17.5138 29.8323 18.6925L29.7291 19.83L29.6741 20.3613C29.5556 21.4747 29.0085 22.5144 28.1294 23.2971C27.2503 24.0799 26.0955 24.5554 24.8685 24.64L23.741 24.7188L22.5035 24.7963L21.1808 24.8675L19.8002 24.9275C18.6175 24.9741 17.4338 24.9982 16.25 25C15.0662 24.9982 13.8825 24.9741 12.6998 24.9275L11.3192 24.8675L9.99788 24.7963L8.76037 24.7188L7.63012 24.64C6.40337 24.5551 5.2489 24.0795 4.37006 23.2967C3.49122 22.514 2.94439 21.4745 2.82587 20.3613L2.77088 19.83L2.66775 18.6925C2.56302 17.4639 2.50707 16.2323 2.5 15C2.5 13.7713 2.5715 12.4863 2.66775 11.3075L2.77088 10.17L2.82587 9.63875C2.94434 8.52569 3.49098 7.48632 4.36954 6.70363C5.24809 5.92095 6.40224 5.44515 7.62875 5.36L8.75763 5.28L9.99513 5.20375L11.3179 5.1325L12.6984 5.0725C13.8816 5.02591 15.0657 5.00174 16.25 5ZM16.25 7.5C15.1156 7.5 13.9482 7.5275 12.8125 7.57L11.4678 7.62875L10.1766 7.6975L8.96388 7.7725L7.85288 7.85125C7.26877 7.88842 6.71807 8.11266 6.29866 8.4841C5.87924 8.85555 5.61827 9.35015 5.56213 9.88C5.40125 11.3913 5.25 13.2725 5.25 15C5.25 16.7275 5.40125 18.6088 5.56213 20.12C5.679 21.21 6.6305 22.0575 7.85288 22.1488L8.96388 22.2263L10.1766 22.3013L11.4678 22.3713L12.8125 22.43C13.9482 22.4725 15.1156 22.5 16.25 22.5C17.3844 22.5 18.5518 22.4725 19.6875 22.43L21.0322 22.3713L22.3234 22.3025L23.5361 22.2275L24.6471 22.1488C25.2312 22.1116 25.7819 21.8873 26.2013 21.5159C26.6208 21.1445 26.8817 20.6499 26.9379 20.12C27.0988 18.6088 27.25 16.7275 27.25 15C27.25 13.2725 27.0988 11.3913 26.9379 9.88C26.8817 9.35015 26.6208 8.85555 26.2013 8.4841C25.7819 8.11266 25.2312 7.88842 24.6471 7.85125L23.5361 7.77375L22.3234 7.69875L21.0322 7.62875L19.6875 7.57C18.5423 7.52532 17.3962 7.50198 16.25 7.5ZM13.5 11.9688C13.4999 11.8466 13.5327 11.7262 13.5954 11.6182C13.6581 11.5101 13.7489 11.4177 13.8599 11.3488C13.9709 11.2799 14.0987 11.2367 14.2323 11.223C14.3658 11.2093 14.501 11.2254 14.6261 11.27L14.7375 11.32L20.5125 14.35C20.6275 14.4103 20.7248 14.495 20.7961 14.5968C20.8674 14.6986 20.9106 14.8146 20.9221 14.9348C20.9336 15.0551 20.913 15.176 20.862 15.2875C20.811 15.399 20.7312 15.4976 20.6294 15.575L20.5125 15.65L14.7375 18.6813C14.6211 18.7425 14.49 18.777 14.3557 18.7817C14.2213 18.7863 14.0877 18.7611 13.9665 18.7081C13.8453 18.6551 13.7402 18.576 13.6603 18.4776C13.5805 18.3793 13.5282 18.2646 13.5082 18.1438L13.5 18.0313V11.9688Z" fill="white"/>
</svg>
