<svg width="24" height="25" viewBox="0 0 24 25" fill="none" xmlns="http://www.w3.org/2000/svg">
<g clip-path="url(#clip0_2142_1198)">
<path fill-rule="evenodd" clip-rule="evenodd" d="M12 2.5C6.477 2.5 2 6.977 2 12.5C2 18.023 6.477 22.5 12 22.5C17.523 22.5 22 18.023 22 12.5C22 6.977 17.523 2.5 12 2.5ZM8.5 10C8.5 9.54037 8.59053 9.08525 8.76642 8.66061C8.94231 8.23597 9.20012 7.85013 9.52513 7.52513C9.85013 7.20012 10.236 6.94231 10.6606 6.76642C11.0852 6.59053 11.5404 6.5 12 6.5C12.4596 6.5 12.9148 6.59053 13.3394 6.76642C13.764 6.94231 14.1499 7.20012 14.4749 7.52513C14.7999 7.85013 15.0577 8.23597 15.2336 8.66061C15.4095 9.08525 15.5 9.54037 15.5 10C15.5 10.9283 15.1313 11.8185 14.4749 12.4749C13.8185 13.1313 12.9283 13.5 12 13.5C11.0717 13.5 10.1815 13.1313 9.52513 12.4749C8.86875 11.8185 8.5 10.9283 8.5 10ZM18.258 17.484C17.5094 18.4256 16.5578 19.186 15.4742 19.7082C14.3905 20.2305 13.2029 20.5011 12 20.5C10.7971 20.5011 9.60946 20.2305 8.52583 19.7082C7.4422 19.186 6.49056 18.4256 5.742 17.484C7.363 16.321 9.575 15.5 12 15.5C14.425 15.5 16.637 16.321 18.258 17.484Z" fill="#9747FF"/>
</g>
<defs>
<clipPath id="clip0_2142_1198">
<rect width="24" height="24" fill="white" transform="translate(0 0.5)"/>
</clipPath>
</defs>
</svg>
