<svg width="39" height="38" viewBox="0 0 39 38" fill="none" xmlns="http://www.w3.org/2000/svg">
<path d="M0.265625 6C0.265625 2.68629 2.95192 0 6.26562 0H32.367C35.6807 0 38.367 2.68629 38.367 6V32C38.367 35.3137 35.6807 38 32.367 38H6.26563C2.95192 38 0.265625 35.3137 0.265625 32V6Z" fill="#16171A"/>
<path d="M22.3343 25.3217V26.4775C22.3343 28.3926 20.7819 29.945 18.8668 29.945C16.9517 29.945 15.3993 28.3926 15.3993 26.4775V25.3217M22.3343 25.3217H15.3993M22.3343 25.3217H26.4843C26.9264 25.3217 27.1485 25.3217 27.3276 25.2613C27.6696 25.146 27.9372 24.8774 28.0525 24.5355C28.1131 24.3557 28.1131 24.1329 28.1131 23.6872C28.1131 23.4922 28.1128 23.3948 28.0976 23.3017C28.0688 23.1261 28.0006 22.9595 27.8968 22.8149C27.8419 22.7385 27.7721 22.6688 27.6347 22.5313L27.1845 22.0811C27.0392 21.9358 26.9576 21.7387 26.9576 21.5333V17.2309C26.9576 12.7624 23.3352 9.14002 18.8668 9.14003C14.3983 9.14004 10.776 12.7624 10.776 17.2309V21.5333C10.776 21.7388 10.6942 21.9358 10.5489 22.0811L10.0987 22.5313C9.96083 22.6692 9.89179 22.7384 9.83684 22.8149C9.733 22.9596 9.66422 23.1261 9.63538 23.3017C9.62012 23.3948 9.62012 23.4922 9.62012 23.6873C9.62012 24.1329 9.62012 24.3556 9.68074 24.5354C9.7961 24.8774 10.0649 25.146 10.4068 25.2613C10.5859 25.3217 10.8072 25.3217 11.2493 25.3217H15.3993M25.8233 8C27.4174 9.20128 28.6732 10.7949 29.4685 12.6257M11.9109 8C10.3168 9.20128 9.06093 10.7949 8.26562 12.6257" stroke="#F5FAFF" stroke-width="2" stroke-linecap="round" stroke-linejoin="round"/>
</svg>
