<svg width="39" height="38" viewBox="0 0 39 38" fill="none" xmlns="http://www.w3.org/2000/svg">
<path d="M0.699219 6C0.699219 2.68629 3.38551 0 6.69922 0H32.8005C36.1143 0 38.8006 2.68629 38.8006 6V32C38.8006 35.3137 36.1143 38 32.8006 38H6.69922C3.38551 38 0.699219 35.3137 0.699219 32V6Z" fill="#16171A"/>
<path d="M22.7679 25.3217V26.4775C22.7679 28.3926 21.2155 29.945 19.3004 29.945C17.3853 29.945 15.8329 28.3926 15.8329 26.4775V25.3217M22.7679 25.3217H15.8329M22.7679 25.3217H26.9179C27.36 25.3217 27.5821 25.3217 27.7612 25.2613C28.1032 25.146 28.3708 24.8774 28.4861 24.5355C28.5467 24.3557 28.5467 24.1329 28.5467 23.6872C28.5467 23.4922 28.5464 23.3948 28.5312 23.3017C28.5024 23.1261 28.4342 22.9595 28.3304 22.8149C28.2755 22.7385 28.2057 22.6688 28.0683 22.5313L27.6181 22.0811C27.4728 21.9358 27.3912 21.7387 27.3912 21.5333V17.2309C27.3912 12.7624 23.7688 9.14002 19.3004 9.14003C14.8319 9.14004 11.2095 12.7624 11.2095 17.2309V21.5333C11.2095 21.7388 11.1278 21.9358 10.9825 22.0811L10.5323 22.5313C10.3944 22.6692 10.3254 22.7384 10.2704 22.8149C10.1666 22.9596 10.0978 23.1261 10.069 23.3017C10.0537 23.3948 10.0537 23.4922 10.0537 23.6873C10.0537 24.1329 10.0537 24.3556 10.1143 24.5354C10.2297 24.8774 10.4985 25.146 10.8404 25.2613C11.0195 25.3217 11.2408 25.3217 11.6829 25.3217H15.8329M26.2569 8C27.851 9.20128 29.1068 10.7949 29.9021 12.6257M12.3445 8C10.7504 9.20128 9.49452 10.7949 8.69922 12.6257" stroke="#F5FAFF" stroke-width="2" stroke-linecap="round" stroke-linejoin="round"/>
</svg>
