<svg width="25" height="24" viewBox="0 0 25 24" fill="none" xmlns="http://www.w3.org/2000/svg">
<path d="M20.707 2.84247C17.9882 0.68997 13.9701 1.67247 11.947 3.44247C9.68196 5.42247 9.61821 8.55184 10.7976 11.1075L2.62633 19.1268C2.29446 19.4531 1.95321 21.7875 1.97008 22.2468L3.07633 23.0193C3.07633 23.0193 4.94946 23.58 5.76508 22.9425C6.58071 22.305 7.29696 21.15 7.21258 20.6306C7.16383 20.3325 7.22758 20.055 7.42071 19.8656C7.66071 19.6293 8.04321 19.59 8.43133 19.7193C8.72946 19.8187 9.06133 19.7343 9.28446 19.515L9.36321 19.4381C9.68008 19.1418 9.71571 18.7968 9.65383 18.5081C9.55821 18.06 9.72133 17.6887 9.97258 17.3606C10.1901 17.0756 10.6026 16.9556 10.9626 16.95C11.6113 16.9406 12.0313 16.8018 12.4907 16.3518L13.687 15.1818C16.3795 16.3818 19.6813 15.84 21.8245 13.5543C24.5732 10.6218 23.8701 5.34747 20.707 2.84247ZM19.087 9.09559C18.337 9.83059 17.122 9.83059 16.372 9.09559C15.622 8.36059 15.622 7.16622 16.372 6.43122C17.122 5.69622 18.337 5.69622 19.087 6.43122C19.837 7.16622 19.837 8.36059 19.087 9.09559Z" fill="#9E740B"/>
<path d="M20.707 2.8425C17.917 0.0524999 13.3945 0.0524999 10.6045 2.8425C8.46883 4.97813 7.97008 8.12625 9.10258 10.7381L1.9682 17.8275C1.80214 17.993 1.67199 18.191 1.58585 18.4091C1.49972 18.6272 1.45945 18.8607 1.46758 19.095L1.55008 21.2981C1.95695 21.5269 1.97008 22.2488 1.97008 22.2488L3.82633 22.3912C4.3007 22.4062 4.76008 22.2244 5.09383 21.8906L5.68258 21.3019C6.05008 20.9344 6.2582 20.415 6.16633 19.905C6.1082 19.5881 6.17195 19.2919 6.37258 19.0912C6.60883 18.855 6.9782 18.81 7.35883 18.9281C7.6757 19.0275 8.0207 18.9637 8.25695 18.7294L8.33758 18.6487C8.6582 18.3431 8.69383 17.9888 8.63195 17.6925C8.53633 17.2313 8.70133 16.8506 8.95258 16.5131C9.17195 16.2187 9.59008 16.0969 9.95195 16.0912C10.6063 16.0819 11.032 15.9394 11.4951 15.4763L12.6163 14.3606C15.2657 15.6075 18.5207 15.1369 20.7107 12.9469C23.497 10.155 23.497 5.6325 20.707 2.8425ZM18.157 8.13375C17.3995 8.89125 16.1713 8.89125 15.4157 8.13375C14.6582 7.37625 14.6582 6.14813 15.4157 5.3925C16.1732 4.635 17.4013 4.635 18.157 5.3925C18.9145 6.14813 18.9145 7.37625 18.157 8.13375Z" fill="#FFCA28"/>
<path d="M1.55005 21.2981C1.55005 21.2981 1.78255 21.4556 1.97005 22.2488L10.8725 13.1981C11.1632 12.8794 9.86005 13.0444 9.47005 13.4325L1.55005 21.2981Z" fill="#DBA010"/>
<path d="M11.8306 3.73506C11.0994 4.13256 10.2744 5.19756 10.0475 6.73506C9.84123 8.13006 9.92935 9.09944 10.3981 9.91506C10.9287 10.8357 11.6506 10.3482 11.36 9.45194C11.1687 8.86131 11.12 8.63819 11.0937 8.01194C11.0731 7.52256 11.1237 7.02944 11.2625 6.56069C11.6075 5.39819 12.4081 4.63506 12.6425 4.25819C12.9406 3.77631 12.47 3.38444 11.8306 3.73506ZM6.69685 14.9476C6.16435 15.4013 6.7156 13.9894 7.12435 13.5132C7.66248 12.8832 8.93748 11.5463 9.16248 11.4319C9.46998 11.2763 9.45123 12.1351 9.3256 12.2926C8.87935 12.8438 7.23123 14.4938 6.69685 14.9476Z" fill="#FFF59D"/>
</svg>
