<svg width="20" height="20" viewBox="0 0 20 20" fill="none" xmlns="http://www.w3.org/2000/svg">
<g clip-path="url(#clip0_4242_347)">
<path d="M16.8392 2.36875C14.5735 0.575002 11.2251 1.39375 9.53917 2.86875C7.65167 4.51875 7.59855 7.12656 8.58136 9.25625L1.77199 15.9391C1.49542 16.2109 1.21105 18.1563 1.22511 18.5391L2.14699 19.1828C2.14699 19.1828 3.70792 19.65 4.38761 19.1188C5.0673 18.5875 5.66417 17.625 5.59386 17.1922C5.55324 16.9437 5.60636 16.7125 5.7673 16.5547C5.9673 16.3578 6.28605 16.325 6.60949 16.4328C6.85792 16.5156 7.13449 16.4453 7.32042 16.2625L7.38605 16.1984C7.65011 15.9516 7.6798 15.6641 7.62824 15.4234C7.54855 15.05 7.68449 14.7406 7.89386 14.4672C8.07511 14.2297 8.41886 14.1297 8.71886 14.125C9.25949 14.1172 9.60949 14.0016 9.9923 13.6266L10.9892 12.6516C13.2329 13.6516 15.9845 13.2 17.7704 11.2953C20.061 8.85156 19.4751 4.45625 16.8392 2.36875ZM15.4892 7.57969C14.8642 8.19219 13.8517 8.19219 13.2267 7.57969C12.6017 6.96719 12.6017 5.97188 13.2267 5.35938C13.8517 4.74688 14.8642 4.74688 15.4892 5.35938C16.1142 5.97188 16.1142 6.96719 15.4892 7.57969Z" fill="#9E740B"/>
<path d="M16.8388 2.36875C14.5138 0.04375 10.7451 0.04375 8.42009 2.36875C6.6404 4.14844 6.22478 6.77188 7.16853 8.94844L1.22322 14.8563C1.08484 14.9942 0.976371 15.1592 0.904592 15.3409C0.832813 15.5226 0.799261 15.7172 0.806029 15.9125L0.874779 17.7484C1.21384 17.9391 1.22478 18.5406 1.22478 18.5406L2.77165 18.6594C3.16697 18.6719 3.54978 18.5203 3.8279 18.2422L4.31853 17.7516C4.62478 17.4453 4.79822 17.0125 4.72165 16.5875C4.67322 16.3234 4.72634 16.0766 4.89353 15.9094C5.0904 15.7125 5.39822 15.675 5.7154 15.7734C5.97947 15.8562 6.26697 15.8031 6.46384 15.6078L6.53103 15.5406C6.79822 15.2859 6.8279 14.9906 6.77634 14.7438C6.69665 14.3594 6.83415 14.0422 7.04353 13.7609C7.22634 13.5156 7.57478 13.4141 7.87634 13.4094C8.42165 13.4016 8.77634 13.2828 9.16228 12.8969L10.0967 11.9672C12.3045 13.0062 15.017 12.6141 16.842 10.7891C19.1638 8.4625 19.1638 4.69375 16.8388 2.36875ZM14.7138 6.77813C14.0826 7.40938 13.0592 7.40938 12.4295 6.77813C11.7982 6.14688 11.7982 5.12344 12.4295 4.49375C13.0607 3.8625 14.0842 3.8625 14.7138 4.49375C15.3451 5.12344 15.3451 6.14688 14.7138 6.77813Z" fill="#FFCA28"/>
<path d="M0.875 17.7484C0.875 17.7484 1.06875 17.8797 1.225 18.5406L8.64375 10.9984C8.88594 10.7328 7.8 10.8703 7.475 11.1938L0.875 17.7484Z" fill="#DBA010"/>
<path d="M9.44225 3.1125C8.83288 3.44375 8.14538 4.33125 7.95631 5.6125C7.78444 6.775 7.85788 7.58281 8.2485 8.2625C8.69069 9.02968 9.29225 8.62343 9.05006 7.87656C8.89069 7.38437 8.85006 7.19843 8.82819 6.67656C8.811 6.26875 8.85319 5.85781 8.96881 5.46718C9.25631 4.49843 9.9235 3.8625 10.1188 3.54843C10.3673 3.14687 9.97506 2.82031 9.44225 3.1125ZM5.16413 12.4562C4.72038 12.8344 5.17975 11.6578 5.52038 11.2609C5.96881 10.7359 7.03131 9.62187 7.21881 9.52656C7.47506 9.39687 7.45944 10.1125 7.35475 10.2437C6.98288 10.7031 5.60944 12.0781 5.16413 12.4562Z" fill="#FFF59D"/>
</g>
<defs>
<clipPath id="clip0_4242_347">
<rect width="20" height="20" fill="white"/>
</clipPath>
</defs>
</svg>
