<svg width="24" height="24" viewBox="0 0 24 24" fill="none" xmlns="http://www.w3.org/2000/svg">
<g clip-path="url(#clip0_4173_152)">
<path d="M20.2069 2.8425C17.4881 0.69 13.47 1.6725 11.4469 3.4425C9.18187 5.4225 9.11812 8.55188 10.2975 11.1075L2.12624 19.1269C1.79437 19.4531 1.45312 21.7875 1.46999 22.2469L2.57624 23.0194C2.57624 23.0194 4.44937 23.58 5.26499 22.9425C6.08062 22.305 6.79687 21.15 6.71249 20.6306C6.66374 20.3325 6.72749 20.055 6.92062 19.8656C7.16062 19.6294 7.54312 19.59 7.93124 19.7194C8.22937 19.8187 8.56124 19.7344 8.78437 19.515L8.86312 19.4381C9.17999 19.1419 9.21562 18.7969 9.15374 18.5081C9.05812 18.06 9.22124 17.6887 9.47249 17.3606C9.68999 17.0756 10.1025 16.9556 10.4625 16.95C11.1112 16.9406 11.5312 16.8019 11.9906 16.3519L13.1869 15.1819C15.8794 16.3819 19.1812 15.84 21.3244 13.5544C24.0731 10.6219 23.37 5.3475 20.2069 2.8425ZM18.5869 9.09562C17.8369 9.83062 16.6219 9.83062 15.8719 9.09562C15.1219 8.36062 15.1219 7.16625 15.8719 6.43125C16.6219 5.69625 17.8369 5.69625 18.5869 6.43125C19.3369 7.16625 19.3369 8.36062 18.5869 9.09562Z" fill="#9E740B"/>
<path d="M20.2069 2.8425C17.4169 0.0524999 12.8944 0.0524999 10.1044 2.8425C7.96874 4.97813 7.46999 8.12625 8.60249 10.7381L1.46811 17.8275C1.30205 17.993 1.1719 18.191 1.08576 18.4091C0.999626 18.6272 0.959363 18.8607 0.967485 19.095L1.04999 21.2981C1.45686 21.5269 1.46999 22.2488 1.46999 22.2488L3.32624 22.3912C3.80061 22.4062 4.25999 22.2244 4.59374 21.8906L5.18248 21.3019C5.54998 20.9344 5.75811 20.415 5.66623 19.905C5.60811 19.5881 5.67186 19.2919 5.87249 19.0912C6.10874 18.855 6.47811 18.81 6.85874 18.9281C7.17561 19.0275 7.52061 18.9637 7.75686 18.7294L7.83749 18.6487C8.15811 18.3431 8.19374 17.9888 8.13186 17.6925C8.03624 17.2313 8.20124 16.8506 8.45249 16.5131C8.67186 16.2187 9.08999 16.0969 9.45186 16.0912C10.1062 16.0819 10.5319 15.9394 10.995 15.4763L12.1162 14.3606C14.7656 15.6075 18.0206 15.1369 20.2106 12.9469C22.9969 10.155 22.9969 5.6325 20.2069 2.8425ZM17.6569 8.13375C16.8994 8.89125 15.6712 8.89125 14.9156 8.13375C14.1581 7.37625 14.1581 6.14813 14.9156 5.3925C15.6731 4.635 16.9012 4.635 17.6569 5.3925C18.4144 6.14813 18.4144 7.37625 17.6569 8.13375Z" fill="#FFCA28"/>
<path d="M1.04999 21.2981C1.04999 21.2981 1.28249 21.4556 1.46999 22.2487L10.3725 13.1981C10.6631 12.8794 9.35999 13.0444 8.96999 13.4325L1.04999 21.2981Z" fill="#DBA010"/>
<path d="M11.3306 3.735C10.5994 4.1325 9.77438 5.1975 9.54751 6.735C9.34126 8.13 9.42938 9.09937 9.89813 9.915C10.4288 10.8356 11.1506 10.3481 10.86 9.45187C10.6688 8.86125 10.62 8.63812 10.5938 8.01187C10.5731 7.5225 10.6238 7.02937 10.7625 6.56062C11.1075 5.39812 11.9081 4.635 12.1425 4.25812C12.4406 3.77625 11.97 3.38437 11.3306 3.735ZM6.19688 14.9475C5.66438 15.4012 6.21563 13.9894 6.62438 13.5131C7.16251 12.8831 8.43751 11.5462 8.66251 11.4319C8.97001 11.2762 8.95126 12.135 8.82563 12.2925C8.37938 12.8437 6.73126 14.4937 6.19688 14.9475Z" fill="#FFF59D"/>
</g>
<defs>
<clipPath id="clip0_4173_152">
<rect width="24" height="24" fill="white"/>
</clipPath>
</defs>
</svg>
