<svg width="25" height="25" viewBox="0 0 25 25" fill="none" xmlns="http://www.w3.org/2000/svg">
<path d="M1.76807 6.16666H22.4347V18.8333H1.76807V6.16666Z" fill="#5C9E31"/>
<path d="M1.76807 6.16666H22.4347V10.5H1.76807V6.16666Z" fill="#E27022"/>
<path d="M1.76807 10.5H22.4347V14.5H1.76807V10.5Z" fill="white"/>
<path d="M12.2001 12.132L12.7681 11.3453L12.3707 12.2307L13.2561 11.8333L12.4694 12.4013L13.4347 12.5L12.4694 12.5987L13.2561 13.1667L12.3707 12.7693L12.7681 13.6547L12.2001 12.868L12.1014 13.8333L12.0027 12.868L11.4347 13.6547L11.8321 12.7693L10.9467 13.1667L11.7334 12.5987L10.7681 12.5L11.7334 12.4013L10.9467 11.8333L11.8321 12.2307L11.4347 11.3453L12.0027 12.132L12.1014 11.1667L12.2001 12.132Z" stroke="#1E50A0" stroke-width="0.333333" stroke-linecap="round" stroke-linejoin="round"/>
<path d="M12.1012 14.1667C13.0217 14.1667 13.7679 13.4205 13.7679 12.5C13.7679 11.5795 13.0217 10.8333 12.1012 10.8333C11.1808 10.8333 10.4346 11.5795 10.4346 12.5C10.4346 13.4205 11.1808 14.1667 12.1012 14.1667Z" stroke="#1E50A0" stroke-width="0.333333" stroke-linecap="round" stroke-linejoin="round"/>
<path d="M1.76807 6.16666H22.4347V18.8333H1.76807V6.16666Z" stroke="black" stroke-width="0.666667" stroke-linecap="round" stroke-linejoin="round"/>
</svg>
