<svg width="25" height="25" viewBox="0 0 25 25" fill="none" xmlns="http://www.w3.org/2000/svg">
<path d="M1.76807 6.16666H22.4347V18.8333H1.76807V6.16666Z" fill="white"/>
<path d="M1.76807 6.16666H22.4347V7.83332H1.76807V6.16666ZM1.76807 9.16666H22.4347V10.5H1.76807V9.16666ZM1.76807 11.8333H22.4347V13.1667H1.76807V11.8333Z" fill="#D22F27"/>
<path d="M1.76807 6.16666H12.4347V13.1667H1.76807V6.16666Z" fill="#1E50A0"/>
<path d="M1.76807 14.5H22.4347V15.8333H1.76807V14.5Z" fill="#D22F27"/>
<path d="M3.1014 8.41667C3.42357 8.41667 3.68473 8.1555 3.68473 7.83333C3.68473 7.51117 3.42357 7.25 3.1014 7.25C2.77923 7.25 2.51807 7.51117 2.51807 7.83333C2.51807 8.1555 2.77923 8.41667 3.1014 8.41667Z" fill="white"/>
<path d="M5.7679 8.41667C6.09007 8.41667 6.35124 8.1555 6.35124 7.83333C6.35124 7.51117 6.09007 7.25 5.7679 7.25C5.44574 7.25 5.18457 7.51117 5.18457 7.83333C5.18457 8.1555 5.44574 8.41667 5.7679 8.41667Z" fill="white"/>
<path d="M8.43465 8.41667C8.75682 8.41667 9.01799 8.1555 9.01799 7.83333C9.01799 7.51117 8.75682 7.25 8.43465 7.25C8.11249 7.25 7.85132 7.51117 7.85132 7.83333C7.85132 8.1555 8.11249 8.41667 8.43465 8.41667Z" fill="white"/>
<path d="M11.1014 8.41667C11.4236 8.41667 11.6847 8.1555 11.6847 7.83333C11.6847 7.51117 11.4236 7.25 11.1014 7.25C10.7792 7.25 10.5181 7.51117 10.5181 7.83333C10.5181 8.1555 10.7792 8.41667 11.1014 8.41667Z" fill="white"/>
<path d="M9.7679 9.75001C10.0901 9.75001 10.3512 9.48884 10.3512 9.16668C10.3512 8.84451 10.0901 8.58334 9.7679 8.58334C9.44574 8.58334 9.18457 8.84451 9.18457 9.16668C9.18457 9.48884 9.44574 9.75001 9.7679 9.75001Z" fill="white"/>
<path d="M7.1014 9.75001C7.42357 9.75001 7.68473 9.48884 7.68473 9.16668C7.68473 8.84451 7.42357 8.58334 7.1014 8.58334C6.77923 8.58334 6.51807 8.84451 6.51807 9.16668C6.51807 9.48884 6.77923 9.75001 7.1014 9.75001Z" fill="white"/>
<path d="M4.43465 9.75001C4.75682 9.75001 5.01799 9.48884 5.01799 9.16668C5.01799 8.84451 4.75682 8.58334 4.43465 8.58334C4.11249 8.58334 3.85132 8.84451 3.85132 9.16668C3.85132 9.48884 4.11249 9.75001 4.43465 9.75001Z" fill="white"/>
<path d="M3.1014 11.0833C3.42357 11.0833 3.68473 10.8222 3.68473 10.5C3.68473 10.1778 3.42357 9.91666 3.1014 9.91666C2.77923 9.91666 2.51807 10.1778 2.51807 10.5C2.51807 10.8222 2.77923 11.0833 3.1014 11.0833Z" fill="white"/>
<path d="M5.7679 11.0833C6.09007 11.0833 6.35124 10.8222 6.35124 10.5C6.35124 10.1778 6.09007 9.91666 5.7679 9.91666C5.44574 9.91666 5.18457 10.1778 5.18457 10.5C5.18457 10.8222 5.44574 11.0833 5.7679 11.0833Z" fill="white"/>
<path d="M8.43465 11.0833C8.75682 11.0833 9.01799 10.8222 9.01799 10.5C9.01799 10.1778 8.75682 9.91666 8.43465 9.91666C8.11249 9.91666 7.85132 10.1778 7.85132 10.5C7.85132 10.8222 8.11249 11.0833 8.43465 11.0833Z" fill="white"/>
<path d="M11.1014 11.0833C11.4236 11.0833 11.6847 10.8222 11.6847 10.5C11.6847 10.1778 11.4236 9.91666 11.1014 9.91666C10.7792 9.91666 10.5181 10.1778 10.5181 10.5C10.5181 10.8222 10.7792 11.0833 11.1014 11.0833Z" fill="white"/>
<path d="M9.7679 12.4167C10.0901 12.4167 10.3512 12.1555 10.3512 11.8333C10.3512 11.5112 10.0901 11.25 9.7679 11.25C9.44574 11.25 9.18457 11.5112 9.18457 11.8333C9.18457 12.1555 9.44574 12.4167 9.7679 12.4167Z" fill="white"/>
<path d="M7.1014 12.4167C7.42357 12.4167 7.68473 12.1555 7.68473 11.8333C7.68473 11.5112 7.42357 11.25 7.1014 11.25C6.77923 11.25 6.51807 11.5112 6.51807 11.8333C6.51807 12.1555 6.77923 12.4167 7.1014 12.4167Z" fill="white"/>
<path d="M4.43465 12.4167C4.75682 12.4167 5.01799 12.1555 5.01799 11.8333C5.01799 11.5112 4.75682 11.25 4.43465 11.25C4.11249 11.25 3.85132 11.5112 3.85132 11.8333C3.85132 12.1555 4.11249 12.4167 4.43465 12.4167Z" fill="white"/>
<path d="M1.76807 17.1667H22.4347V18.8333H1.76807V17.1667Z" fill="#D22F27"/>
<path d="M1.76807 6.16666H22.4347V18.8333H1.76807V6.16666Z" stroke="black" stroke-width="0.666667" stroke-linecap="round" stroke-linejoin="round"/>
</svg>
