<svg width="24" height="24" viewBox="0 0 24 24" fill="none" xmlns="http://www.w3.org/2000/svg">
<path d="M17 6C16.7348 6 16.4804 5.89464 16.2929 5.70711C16.1054 5.51957 16 5.26522 16 5C16 4.73478 16.1054 4.48043 16.2929 4.29289C16.4804 4.10536 16.7348 4 17 4C17.2652 4 17.5196 4.10536 17.7071 4.29289C17.8946 4.48043 18 4.73478 18 5C18 5.26522 17.8946 5.51957 17.7071 5.70711C17.5196 5.89464 17.2652 6 17 6ZM17 8C17.7956 8 18.5587 7.68393 19.1213 7.12132C19.6839 6.55871 20 5.79565 20 5C20 4.20435 19.6839 3.44129 19.1213 2.87868C18.5587 2.31607 17.7956 2 17 2C16.2044 2 15.4413 2.31607 14.8787 2.87868C14.3161 3.44129 14 4.20435 14 5C14 5.79565 14.3161 6.55871 14.8787 7.12132C15.4413 7.68393 16.2044 8 17 8ZM7 3C5.93913 3 4.92172 3.42143 4.17157 4.17157C3.42143 4.92172 3 5.93913 3 7V9H5V7C5 6.46957 5.21071 5.96086 5.58579 5.58579C5.96086 5.21071 6.46957 5 7 5H10V3H7ZM17 21C18.0609 21 19.0783 20.5786 19.8284 19.8284C20.5786 19.0783 21 18.0609 21 17V15H19V17C19 17.5304 18.7893 18.0391 18.4142 18.4142C18.0391 18.7893 17.5304 19 17 19H14V21H17ZM8 13C8 12.7348 7.89464 12.4804 7.70711 12.2929C7.51957 12.1054 7.26522 12 7 12C6.73478 12 6.48043 12.1054 6.29289 12.2929C6.10536 12.4804 6 12.7348 6 13C6 13.2652 6.10536 13.5196 6.29289 13.7071C6.48043 13.8946 6.73478 14 7 14C7.26522 14 7.51957 13.8946 7.70711 13.7071C7.89464 13.5196 8 13.2652 8 13ZM10 13C10 13.394 9.9224 13.7841 9.77164 14.1481C9.62087 14.512 9.3999 14.8427 9.12132 15.1213C8.84274 15.3999 8.51203 15.6209 8.14805 15.7716C7.78407 15.9224 7.39397 16 7 16C6.60603 16 6.21593 15.9224 5.85195 15.7716C5.48797 15.6209 5.15726 15.3999 4.87868 15.1213C4.6001 14.8427 4.37913 14.512 4.22836 14.1481C4.0776 13.7841 4 13.394 4 13C4 12.2044 4.31607 11.4413 4.87868 10.8787C5.44129 10.3161 6.20435 10 7 10C7.79565 10 8.55871 10.3161 9.12132 10.8787C9.68393 11.4413 10 12.2044 10 13ZM17 11C16.4696 11 15.9609 11.2107 15.5858 11.5858C15.2107 11.9609 15 12.4696 15 13H13C13 11.9391 13.4214 10.9217 14.1716 10.1716C14.9217 9.42143 15.9391 9 17 9C18.0609 9 19.0783 9.42143 19.8284 10.1716C20.5786 10.9217 21 11.9391 21 13H19C19 12.4696 18.7893 11.9609 18.4142 11.5858C18.0391 11.2107 17.5304 11 17 11ZM5 21C5 20.4696 5.21071 19.9609 5.58579 19.5858C5.96086 19.2107 6.46957 19 7 19C7.53043 19 8.03914 19.2107 8.41421 19.5858C8.78929 19.9609 9 20.4696 9 21H11C11 19.9391 10.5786 18.9217 9.82843 18.1716C9.07828 17.4214 8.06087 17 7 17C5.93913 17 4.92172 17.4214 4.17157 18.1716C3.42143 18.9217 3 19.9391 3 21H5Z" fill="#F8F8F8"/>
</svg>
