<svg width="40" height="41" viewBox="0 0 40 41" fill="none" xmlns="http://www.w3.org/2000/svg">
<path d="M18.3078 25.0578L33.3078 10.0578C33.3659 9.99974 33.4348 9.95368 33.5107 9.92225C33.5866 9.89083 33.6679 9.87465 33.75 9.87465C33.8321 9.87465 33.9135 9.89083 33.9893 9.92225C34.0652 9.95368 34.1341 9.99974 34.1922 10.0578C34.2503 10.1159 34.2963 10.1848 34.3278 10.2607C34.3592 10.3366 34.3754 10.4179 34.3754 10.5C34.3754 10.5821 34.3592 10.6634 34.3278 10.7393C34.2963 10.8152 34.2503 10.8841 34.1922 10.9422L19.1922 25.9422C19.0749 26.0595 18.9159 26.1253 18.75 26.1253C18.5842 26.1253 18.4251 26.0595 18.3078 25.9422C18.1906 25.8249 18.1247 25.6659 18.1247 25.5C18.1247 25.3341 18.1906 25.1751 18.3078 25.0578ZM20 13.625C21.1538 13.6239 22.3001 13.8107 23.3938 14.1781C23.4733 14.2143 23.5595 14.2334 23.6469 14.2342C23.7343 14.2349 23.8208 14.2174 23.901 14.1826C23.9812 14.1479 24.0532 14.0967 24.1123 14.0324C24.1715 13.9682 24.2165 13.8922 24.2445 13.8094C24.2725 13.7266 24.2828 13.6389 24.2748 13.5519C24.2668 13.4649 24.2407 13.3806 24.1981 13.3043C24.1554 13.228 24.0973 13.1615 24.0274 13.1091C23.9575 13.0567 23.8774 13.0195 23.7922 13C22.0062 12.3982 20.1027 12.23 18.2389 12.5095C16.3751 12.789 14.6046 13.5081 13.0737 14.6074C11.5429 15.7066 10.2956 17.1545 9.43512 18.8312C8.5746 20.5079 8.12553 22.3654 8.12502 24.25C8.12543 24.6906 8.14942 25.1308 8.1969 25.5688C8.21389 25.7223 8.28717 25.8642 8.40259 25.9669C8.51801 26.0696 8.66739 26.1259 8.8219 26.125H8.89221C8.97391 26.1161 9.05304 26.0911 9.12508 26.0515C9.19712 26.012 9.26064 25.9586 9.31202 25.8944C9.3634 25.8303 9.40162 25.7566 9.42449 25.6777C9.44737 25.5987 9.45445 25.5161 9.44533 25.4344C9.2787 23.9488 9.42742 22.4448 9.88177 21.0206C10.3361 19.5965 11.0859 18.2842 12.0821 17.1696C13.0782 16.055 14.2984 15.1632 15.6628 14.5524C17.0272 13.9416 18.5051 13.6256 20 13.625ZM35.0266 16.5656C34.9921 16.4879 34.9422 16.4181 34.8798 16.3603C34.8174 16.3026 34.7439 16.2582 34.6637 16.2298C34.5836 16.2015 34.4985 16.1898 34.4137 16.1954C34.3289 16.2011 34.2461 16.224 34.1704 16.2627C34.0948 16.3014 34.0278 16.3552 33.9736 16.4207C33.9195 16.4862 33.8792 16.5621 33.8554 16.6437C33.8315 16.7253 33.8246 16.8109 33.8349 16.8952C33.8453 16.9796 33.8728 17.061 33.9156 17.1344C34.8792 19.0252 35.4489 21.092 35.5902 23.2094C35.7315 25.3269 35.4414 27.4511 34.7375 29.4531C34.6951 29.5764 34.6153 29.6834 34.5091 29.759C34.4029 29.8347 34.2757 29.8752 34.1453 29.875H5.85315C5.72213 29.8735 5.59477 29.8316 5.4885 29.7549C5.38222 29.6783 5.3022 29.5707 5.2594 29.4469C4.22172 26.4987 4.09158 23.3072 4.88576 20.2843C5.67995 17.2615 7.362 14.5461 9.71476 12.4886C12.0675 10.4312 14.983 9.1263 18.0847 8.74229C21.1865 8.35829 24.3322 8.91285 27.1156 10.3344C27.189 10.3746 27.2696 10.3998 27.3528 10.4083C27.436 10.4168 27.52 10.4085 27.6 10.384C27.6799 10.3594 27.7541 10.3191 27.8182 10.2653C27.8823 10.2116 27.9349 10.1455 27.973 10.071C28.011 9.99657 28.0338 9.91523 28.0398 9.83181C28.0459 9.7484 28.0352 9.66462 28.0082 9.58544C27.9813 9.50625 27.9388 9.43327 27.8832 9.37082C27.8276 9.30837 27.76 9.25772 27.6844 9.22187C25.3544 8.025 22.7757 7.39238 20.1563 7.375H20C17.3018 7.37641 14.6433 8.02444 12.2471 9.26479C9.8509 10.5051 7.78686 12.3017 6.22791 14.504C4.66895 16.7062 3.66048 19.25 3.28699 21.9222C2.91351 24.5944 3.18587 27.3172 4.08127 29.8625C4.21005 30.2302 4.44953 30.5489 4.7668 30.775C5.08408 31.0011 5.46358 31.1233 5.85315 31.125H34.1453C34.5338 31.1259 34.9129 31.006 35.2303 30.7821C35.5477 30.5582 35.7877 30.2412 35.9172 29.875C36.6774 27.7128 36.9904 25.4188 36.8373 23.132C36.6842 20.8452 36.0682 18.6134 35.0266 16.5719V16.5656Z" fill="white"/>
</svg>
