<svg width="24" height="24" viewBox="0 0 24 24" fill="none" xmlns="http://www.w3.org/2000/svg">
<path d="M13.9534 1.51687L12.261 10.4085L18.3919 10.4291L10.0467 22.4831L11.739 12.7009L5.60853 12.6795L13.9534 1.51687ZM13.9545 0.0168926C13.914 0.0168926 13.8735 0.0183691 13.8338 0.0213457C13.569 0.0427441 13.3935 0.131244 13.1854 0.271119C13.0682 0.349245 12.9626 0.443411 12.8715 0.550869C12.8442 0.583127 12.8184 0.616665 12.7943 0.651369L4.3894 11.775C4.05753 12.2299 4.00878 12.8303 4.26378 13.332C4.5184 13.8338 5.03328 14.1518 5.59765 14.1559L9.9274 14.1874L8.56615 22.2075C8.43678 22.8968 8.80428 23.5838 9.45115 23.8605C9.63914 23.9413 9.84164 23.9829 10.0463 23.9828C10.5176 23.9828 10.905 23.7623 11.1957 23.364L19.611 11.31C19.9429 10.8551 19.9913 10.254 19.7367 9.75297C19.482 9.25122 18.9672 8.9332 18.4028 8.9291L14.073 8.9216L15.4197 1.86972C15.4482 1.75427 15.4625 1.63577 15.4624 1.51685C15.4624 0.705346 14.8163 0.0438457 14.0078 0.0175957C13.9898 0.0168457 13.9722 0.0168457 13.9545 0.0168457L13.9545 0.0168926Z" fill="white"/>
</svg>
