<svg width="40" height="41" viewBox="0 0 40 41" fill="none" xmlns="http://www.w3.org/2000/svg">
<g clip-path="url(#clip0_4152_1407)">
<path d="M23.2556 3.02812L20.4351 17.8475L30.6532 17.8819L16.7444 37.9719L19.5651 21.6681L9.34756 21.6325L23.2556 3.02812ZM23.2576 0.528162C23.1901 0.528162 23.1226 0.530623 23.0564 0.535584C22.6151 0.571248 22.3226 0.718748 21.9757 0.951873C21.7804 1.08208 21.6043 1.23903 21.4526 1.41812C21.407 1.47189 21.3641 1.52778 21.3238 1.58562L7.31569 20.125C6.76256 20.8831 6.68131 21.8838 7.10631 22.72C7.53069 23.5563 8.38881 24.0863 9.32944 24.0932L16.5457 24.1457L14.2769 37.5125C14.0613 38.6613 14.6738 39.8063 15.7519 40.2675C16.0653 40.4022 16.4027 40.4715 16.7438 40.4713C17.5294 40.4713 18.175 40.1038 18.6594 39.44L32.6851 19.35C33.2382 18.5918 33.3188 17.59 32.8944 16.755C32.4701 15.9187 31.6119 15.3887 30.6713 15.3818L23.4551 15.3693L25.6994 3.61621C25.747 3.42379 25.7709 3.22629 25.7707 3.02808C25.7707 1.67558 24.6938 0.573084 23.3463 0.529334C23.3163 0.528084 23.2869 0.528084 23.2576 0.528084L23.2576 0.528162Z" fill="white"/>
</g>
<defs>
<clipPath id="clip0_4152_1407">
<rect width="40" height="40" fill="white" transform="translate(0 0.5)"/>
</clipPath>
</defs>
</svg>
