<svg width="17" height="17" viewBox="0 0 17 17" fill="none" xmlns="http://www.w3.org/2000/svg">
<path fill-rule="evenodd" clip-rule="evenodd" d="M10.625 0.885418H7.752C6.45008 0.885418 5.41875 0.885418 4.61196 0.993793C3.78179 1.10571 3.10958 1.34088 2.57904 1.87071C2.04921 2.40125 1.81404 3.07346 1.70213 3.90363C1.59375 4.71113 1.59375 5.74175 1.59375 7.04367V11.3333C1.59377 11.9662 1.81966 12.5782 2.23078 13.0593C2.6419 13.5404 3.21124 13.859 3.83633 13.9577C3.93337 14.4989 4.12108 14.9607 4.4965 15.3368C4.92292 15.7633 5.45983 15.946 6.09733 16.0324C6.71146 16.1146 7.49275 16.1146 8.46104 16.1146H10.664C11.6322 16.1146 12.4135 16.1146 13.0277 16.0324C13.6652 15.946 14.2021 15.7633 14.6285 15.3368C15.0549 14.9104 15.2377 14.3735 15.3241 13.736C15.4062 13.1219 15.4062 12.3406 15.4062 11.3723V7.75271C15.4062 6.78442 15.4062 6.00313 15.3241 5.389C15.2377 4.7515 15.0549 4.21458 14.6285 3.78817C14.2524 3.41275 13.7905 3.22504 13.2494 3.128C13.1507 2.50291 12.8321 1.93357 12.351 1.52245C11.8699 1.11133 11.2578 0.885435 10.625 0.885418ZM12.1337 3.02529C12.026 2.71079 11.8227 2.43784 11.5521 2.24466C11.2816 2.05147 10.9574 1.94772 10.625 1.94792H7.79167C6.44088 1.94792 5.48179 1.94933 4.75292 2.04708C4.04104 2.14271 3.63021 2.32263 3.33058 2.62225C3.03096 2.92188 2.85104 3.33271 2.75542 4.04529C2.65767 4.77346 2.65625 5.73254 2.65625 7.08333V11.3333C2.65605 11.6658 2.7598 11.9899 2.95299 12.2605C3.14618 12.531 3.41912 12.7344 3.73362 12.8421C3.71875 12.41 3.71875 11.9213 3.71875 11.3723V7.75271C3.71875 6.78442 3.71875 6.00313 3.80163 5.389C3.88663 4.7515 4.07079 4.21458 4.4965 3.78817C4.92292 3.36175 5.45983 3.179 6.09733 3.09329C6.71146 3.01042 7.49275 3.01042 8.46104 3.01042H10.664C11.2129 3.01042 11.7017 3.01042 12.1337 3.02529ZM5.24733 4.54042C5.44354 4.34421 5.71837 4.21671 6.239 4.14658C6.77308 4.07504 7.48283 4.07363 8.49929 4.07363H10.6243C11.6407 4.07363 12.3498 4.07504 12.8853 4.14658C13.4052 4.21671 13.68 4.34492 13.8762 4.54042C14.0725 4.73663 14.2 5.01146 14.2701 5.53208C14.3416 6.06617 14.343 6.77592 14.343 7.79238V11.334C14.343 12.3505 14.3416 13.0595 14.2701 13.595C14.2 14.115 14.0717 14.3898 13.8762 14.586C13.68 14.7822 13.4052 14.9097 12.8846 14.9798C12.3498 15.0514 11.6407 15.0528 10.6243 15.0528H8.49929C7.48283 15.0528 6.77308 15.0514 6.23829 14.9798C5.71838 14.9097 5.44354 14.7815 5.24733 14.586C5.05112 14.3898 4.92362 14.115 4.8535 13.5943C4.78196 13.0595 4.78054 12.3505 4.78054 11.334V7.79238C4.78054 6.77592 4.78196 6.06617 4.8535 5.53138C4.92362 5.01146 5.05183 4.73663 5.24733 4.54042Z" fill="#F8F8F8"/>
</svg>
