<svg width="24" height="24" viewBox="0 0 24 24" fill="none" xmlns="http://www.w3.org/2000/svg">
<g clip-path="url(#clip0_4152_1527)">
<path d="M10.8651 6.34286C10.7473 6.00815 10.5286 5.71824 10.239 5.51313C9.94947 5.30802 9.6034 5.19781 9.24857 5.19771H7.92C7.5431 5.19877 7.17984 5.33883 6.89978 5.59107C6.61973 5.8433 6.44257 6.18998 6.40223 6.56472C6.36189 6.93945 6.46121 7.3159 6.68116 7.62196C6.90112 7.92802 7.22624 8.14218 7.59428 8.22343L9.61371 8.66571C10.0269 8.7559 10.3922 8.99566 10.6393 9.33888C10.8865 9.68211 10.998 10.1046 10.9525 10.5251C10.907 10.9455 10.7076 11.3344 10.3928 11.6168C10.0779 11.8991 9.66979 12.0552 9.24685 12.0549H8.10343C7.749 12.055 7.40324 11.9453 7.11374 11.7408C6.82424 11.5364 6.60523 11.2472 6.48685 10.9131M8.67771 5.19771V3.48343M8.67771 13.7691V12.0549M11.9469 23.1411V14.1411C11.9469 13.5728 12.1726 13.0278 12.5745 12.6259C12.9763 12.2241 13.5214 11.9983 14.0897 11.9983C14.658 11.9983 15.2031 12.2241 15.6049 12.6259C16.0068 13.0278 16.2326 13.5728 16.2326 14.1411V18.8554H19.6611C20.5705 18.8554 21.4425 19.2167 22.0855 19.8596C22.7285 20.5026 23.0897 21.3747 23.0897 22.284V23.1411" stroke="white" stroke-width="1.71429" stroke-linecap="round" stroke-linejoin="round"/>
<path d="M8.67945 16.3954C7.09782 16.3952 5.55393 15.9122 4.25423 15.0109C2.95452 14.1096 1.96093 12.833 1.40631 11.3518C0.851685 9.87055 0.762458 8.25533 1.15056 6.72204C1.53866 5.18876 2.38559 3.81049 3.57811 2.77152C4.77063 1.73254 6.25191 1.08238 7.82391 0.907951C9.3959 0.733524 10.9837 1.04315 12.375 1.79543C13.7662 2.5477 14.8947 3.70678 15.6095 5.11769C16.3243 6.5286 16.5913 8.1241 16.3749 9.69086" stroke="white" stroke-width="1.71429" stroke-linecap="round"/>
</g>
<defs>
<clipPath id="clip0_4152_1527">
<rect width="24" height="24" fill="white"/>
</clipPath>
</defs>
</svg>
