<svg width="25" height="24" viewBox="0 0 25 24" fill="none" xmlns="http://www.w3.org/2000/svg">
<g clip-path="url(#clip0_4152_1527)">
<path d="M11.3651 6.34286C11.2473 6.00815 11.0286 5.71824 10.739 5.51313C10.4495 5.30802 10.1034 5.19781 9.74857 5.19771H8.42C8.0431 5.19877 7.67984 5.33883 7.39978 5.59107C7.11973 5.8433 6.94257 6.18998 6.90223 6.56472C6.86189 6.93945 6.96121 7.3159 7.18116 7.62196C7.40112 7.92802 7.72624 8.14218 8.09428 8.22343L10.1137 8.66571C10.5269 8.7559 10.8922 8.99566 11.1393 9.33888C11.3865 9.68211 11.498 10.1046 11.4525 10.5251C11.407 10.9455 11.2076 11.3344 10.8928 11.6168C10.5779 11.8991 10.1698 12.0552 9.74685 12.0549H8.60343C8.249 12.055 7.90324 11.9453 7.61374 11.7408C7.32424 11.5364 7.10523 11.2472 6.98685 10.9131M9.17771 5.19771V3.48343M9.17771 13.7691V12.0549M12.4469 23.1411V14.1411C12.4469 13.5728 12.6726 13.0278 13.0745 12.6259C13.4763 12.2241 14.0214 11.9983 14.5897 11.9983C15.158 11.9983 15.7031 12.2241 16.1049 12.6259C16.5068 13.0278 16.7326 13.5728 16.7326 14.1411V18.8554H20.1611C21.0705 18.8554 21.9425 19.2167 22.5855 19.8596C23.2285 20.5026 23.5897 21.3747 23.5897 22.284V23.1411" stroke="white" stroke-width="1.71429" stroke-linecap="round" stroke-linejoin="round"/>
<path d="M9.17945 16.3954C7.59782 16.3952 6.05393 15.9122 4.75423 15.0109C3.45452 14.1096 2.46093 12.833 1.90631 11.3518C1.35169 9.87055 1.26246 8.25533 1.65056 6.72204C2.03866 5.18876 2.88559 3.81049 4.07811 2.77152C5.27063 1.73254 6.75191 1.08238 8.32391 0.907951C9.8959 0.733524 11.4837 1.04315 12.875 1.79543C14.2662 2.5477 15.3947 3.70678 16.1095 5.11769C16.8243 6.5286 17.0913 8.1241 16.8749 9.69086" stroke="white" stroke-width="1.71429" stroke-linecap="round"/>
</g>
<defs>
<clipPath id="clip0_4152_1527">
<rect width="24" height="24" fill="white" transform="translate(0.5)"/>
</clipPath>
</defs>
</svg>
