<svg width="40" height="41" viewBox="0 0 40 41" fill="none" xmlns="http://www.w3.org/2000/svg">
<path d="M20.3333 3.83334C29.7224 3.83334 37.3333 11.4442 37.3333 20.8333C37.3333 30.2224 29.7224 37.8333 20.3333 37.8333C10.9442 37.8333 3.33334 30.2224 3.33334 20.8333C3.33334 11.4442 10.9442 3.83334 20.3333 3.83334ZM22.0333 12.3333H16.9333C16.4825 12.3333 16.0501 12.5125 15.7313 12.8313C15.4125 13.1501 15.2333 13.5825 15.2333 14.0333V27.6333C15.2333 28.0842 15.4125 28.5166 15.7313 28.8354C16.0501 29.1542 16.4825 29.3333 16.9333 29.3333H22.0333C23.0177 29.333 23.9809 29.0478 24.8068 28.5121C25.6326 27.9765 26.2858 27.2132 26.6875 26.3146C27.0892 25.4159 27.2223 24.4202 27.0706 23.4476C26.919 22.475 26.4891 21.567 25.8328 20.8333C26.4891 20.0996 26.919 19.1917 27.0706 18.2191C27.2223 17.2465 27.0892 16.2508 26.6875 15.3521C26.2858 14.4534 25.6326 13.6902 24.8068 13.1546C23.9809 12.6189 23.0177 12.3337 22.0333 12.3333ZM22.0333 22.5333C22.4842 22.5333 22.9166 22.7125 23.2354 23.0313C23.5542 23.3501 23.7333 23.7825 23.7333 24.2333L23.7214 24.4322C23.6727 24.8458 23.4739 25.227 23.1628 25.5037C22.8516 25.7804 22.4497 25.9333 22.0333 25.9333H18.6333V22.5333H22.0333ZM22.0333 15.7333C22.4842 15.7333 22.9166 15.9125 23.2354 16.2313C23.5542 16.5501 23.7333 16.9825 23.7333 17.4333C23.7333 17.8842 23.5542 18.3166 23.2354 18.6354C22.9166 18.9542 22.4842 19.1333 22.0333 19.1333H18.6333V15.7333H22.0333Z" fill="white"/>
</svg>
