<svg width="20" height="21" viewBox="0 0 20 21" fill="none" xmlns="http://www.w3.org/2000/svg">
<g clip-path="url(#clip0_4152_1250)">
<path fill-rule="evenodd" clip-rule="evenodd" d="M0 10.5C0 7.84784 1.05357 5.3043 2.92893 3.42893C4.8043 1.55357 7.34784 0.5 10 0.5C12.6522 0.5 15.1957 1.55357 17.0711 3.42893C18.9464 5.3043 20 7.84784 20 10.5C20 13.1522 18.9464 15.6957 17.0711 17.5711C15.1957 19.4464 12.6522 20.5 10 20.5C7.34784 20.5 4.8043 19.4464 2.92893 17.5711C1.05357 15.6957 0 13.1522 0 10.5ZM9.42933 14.78L15.1867 7.58267L14.1467 6.75067L9.23733 12.8853L5.76 9.988L4.90667 11.012L9.42933 14.78Z" fill="#BA5D5D"/>
</g>
<defs>
<clipPath id="clip0_4152_1250">
<rect width="20" height="20" fill="white" transform="translate(0 0.5)"/>
</clipPath>
</defs>
</svg>
