<svg width="24" height="25" viewBox="0 0 24 25" fill="none" xmlns="http://www.w3.org/2000/svg">
<path d="M21 3.5H7C6.46957 3.5 5.96086 3.71071 5.58579 4.08579C5.21071 4.46086 5 4.96957 5 5.5V19.5C5 20.0304 5.21071 20.5391 5.58579 20.9142C5.96086 21.2893 6.46957 21.5 7 21.5H21C21.5304 21.5 22.0391 21.2893 22.4142 20.9142C22.7893 20.5391 23 20.0304 23 19.5V5.5C23 4.96957 22.7893 4.46086 22.4142 4.08579C22.0391 3.71071 21.5304 3.5 21 3.5ZM21 19.5H7V5.5H21V19.5ZM11 17.5H9V12.5H11V17.5ZM15 17.5H13V7.5H15V17.5ZM19 17.5H17V10.5H19V17.5Z" fill="#F8F8F8"/>
</svg>
