<svg width="38" height="39" viewBox="0 0 38 39" fill="none" xmlns="http://www.w3.org/2000/svg">
<path d="M31.5811 4.82256C31.2732 4.56697 30.9018 4.39959 30.5064 4.33821C30.111 4.27684 29.7063 4.32376 29.3354 4.474L3.74043 14.8066C3.32683 14.9765 2.9747 15.2683 2.73079 15.6431C2.48689 16.0178 2.36274 16.458 2.37483 16.9049C2.38692 17.3519 2.53467 17.7847 2.79848 18.1458C3.06229 18.5068 3.42967 18.7791 3.85185 18.9265L9.37456 20.8435L12.3673 30.7375C12.373 30.7575 12.3916 30.7704 12.4002 30.789C12.4314 30.8677 12.4764 30.9403 12.533 31.0032C12.6201 31.0994 12.7317 31.17 12.8559 31.2075C12.8702 31.2132 12.8802 31.2261 12.8945 31.229H12.903L12.9073 31.2304C13.0178 31.254 13.1326 31.2481 13.2402 31.2132L13.2759 31.2061C13.379 31.1697 13.4723 31.11 13.5487 31.0318C13.5573 31.0218 13.5716 31.0204 13.5802 31.0118L17.8843 26.2605L24.1656 31.1247C24.547 31.4232 25.017 31.5847 25.5012 31.5847C26.5498 31.5847 27.454 30.8504 27.6698 29.8261L32.3296 6.94393C32.4091 6.55548 32.3815 6.15271 32.2496 5.77876C32.1178 5.40482 31.8867 5.07379 31.5811 4.82113M13.9287 22.7221L12.9187 27.6319L10.8117 20.6635L21.2614 15.2208L14.123 22.3606C14.0243 22.4595 13.9567 22.5852 13.9287 22.7221ZM26.2698 29.539C26.243 29.6685 26.1833 29.789 26.0965 29.8888C26.0097 29.9886 25.8987 30.0645 25.7741 30.109C25.6524 30.1551 25.521 30.169 25.3924 30.1495C25.2637 30.13 25.1423 30.0777 25.0398 29.9976L18.2357 24.7277C18.0935 24.6179 17.9151 24.5658 17.7361 24.5816C17.5571 24.5975 17.3907 24.6803 17.27 24.8134L14.2744 28.1148L15.283 23.2192L25.5527 12.948C25.6729 12.8274 25.7461 12.6677 25.759 12.4978C25.7719 12.328 25.7236 12.1591 25.6229 12.0216C25.5222 11.8842 25.3757 11.7873 25.2099 11.7484C25.044 11.7095 24.8697 11.7312 24.7184 11.8095L9.91454 19.5207L4.31898 17.5751C4.17108 17.5253 4.04214 17.4311 3.94983 17.3053C3.85752 17.1795 3.80634 17.0282 3.80328 16.8722C3.79574 16.7145 3.83767 16.5584 3.92323 16.4257C4.00878 16.2931 4.13366 16.1904 4.28041 16.1322L29.8711 5.79968C30.0024 5.74462 30.1463 5.72695 30.287 5.74863C30.4277 5.77032 30.5596 5.8305 30.6682 5.92253C30.7763 6.00934 30.8579 6.12464 30.9039 6.25541C30.9498 6.38618 30.9582 6.5272 30.9282 6.66251L26.2698 29.539Z" fill="white"/>
</svg>
