<svg width="38" height="39" viewBox="0 0 38 39" fill="none" xmlns="http://www.w3.org/2000/svg">
<path d="M34.7463 4.87789C34.405 4.5946 33.9934 4.40908 33.5551 4.34105C33.1168 4.27303 32.6683 4.32504 32.2573 4.49156L3.88868 15.9438C3.43026 16.1322 3.03998 16.4555 2.76964 16.8709C2.4993 17.2863 2.3617 17.7741 2.3751 18.2696C2.3885 18.765 2.55227 19.2447 2.84466 19.6448C3.13706 20.045 3.54425 20.3468 4.01218 20.5101L10.1333 22.635L13.4504 33.6011C13.4568 33.6233 13.4773 33.6376 13.4868 33.6581C13.5215 33.7454 13.5713 33.8258 13.6341 33.8956C13.7306 34.0022 13.8543 34.0805 13.9919 34.1221C14.0078 34.1284 14.0188 34.1426 14.0347 34.1458H14.0442L14.0489 34.1474C14.1714 34.1736 14.2987 34.167 14.4178 34.1284L14.4574 34.1205C14.5717 34.0801 14.6752 34.014 14.7598 33.9273C14.7693 33.9162 14.7852 33.9146 14.7947 33.9051L19.5653 28.639L26.5272 34.0302C26.9499 34.3611 27.4708 34.5401 28.0076 34.5401C29.1698 34.5401 30.172 33.7262 30.4111 32.591L35.5759 7.22914C35.6641 6.79859 35.6334 6.35217 35.4873 5.93771C35.3411 5.52324 35.085 5.15634 34.7463 4.87631M15.181 24.7171L14.0616 30.159L11.7262 22.4355L23.3083 16.403L15.3963 24.3165C15.2869 24.4261 15.2121 24.5653 15.181 24.7171ZM28.8594 32.2727C28.8297 32.4163 28.7636 32.5498 28.6673 32.6604C28.5711 32.7711 28.4481 32.8551 28.31 32.9045C28.1752 32.9555 28.0295 32.971 27.8869 32.9494C27.7444 32.9277 27.6098 32.8697 27.4962 32.781L19.9548 26.9401C19.7971 26.8184 19.5994 26.7605 19.401 26.7782C19.2026 26.7958 19.0182 26.8875 18.8844 27.0351L15.5642 30.6941L16.682 25.2681L28.0646 13.8839C28.1979 13.7501 28.279 13.5732 28.2933 13.3849C28.3076 13.1966 28.2541 13.0094 28.1425 12.8571C28.0309 12.7048 27.8685 12.5974 27.6847 12.5543C27.5008 12.5112 27.3076 12.5352 27.1399 12.622L10.7318 21.1688L4.52993 19.0123C4.366 18.9572 4.22309 18.8528 4.12078 18.7133C4.01846 18.5739 3.96173 18.4062 3.95835 18.2333C3.94998 18.0585 3.99647 17.8855 4.09129 17.7384C4.18611 17.5914 4.32453 17.4776 4.48718 17.4131L32.851 5.96089C32.9965 5.89986 33.156 5.88028 33.312 5.90431C33.4679 5.92834 33.6141 5.99505 33.7345 6.09706C33.8543 6.19327 33.9447 6.32107 33.9957 6.46601C34.0466 6.61095 34.056 6.76724 34.0227 6.91722L28.8594 32.2727Z" fill="white"/>
</svg>
