<svg width="14" height="14" viewBox="0 0 14 14" fill="none" xmlns="http://www.w3.org/2000/svg">
<path fill-rule="evenodd" clip-rule="evenodd" d="M10.473 0.586857C10.3351 0.366495 10.1319 0.194613 9.89171 0.0951373C9.65154 -0.00433835 9.38632 -0.0264583 9.13299 0.0318572L7.33498 0.444857C7.15072 0.487209 6.95925 0.487209 6.77498 0.444857L4.97698 0.0318572C4.72365 -0.0264583 4.45844 -0.00433835 4.21826 0.0951373C3.97808 0.194613 3.7749 0.366495 3.63698 0.586857L2.65698 2.15086C2.55698 2.31086 2.42198 2.44586 2.26198 2.54686L0.697985 3.52686C0.478002 3.66465 0.306373 3.8675 0.206918 4.10727C0.107464 4.34704 0.0851189 4.61181 0.142984 4.86486L0.555985 6.66486C0.598183 6.8488 0.598183 7.03991 0.555985 7.22386L0.142984 9.02286C0.084894 9.27605 0.107127 9.54104 0.206592 9.78101C0.306057 10.021 0.477812 10.224 0.697985 10.3619L2.26198 11.3419C2.42198 11.4419 2.55698 11.5769 2.65798 11.7369L3.63798 13.3009C3.91998 13.7519 4.45798 13.9749 4.97698 13.8559L6.77498 13.4429C6.95925 13.4005 7.15072 13.4005 7.33498 13.4429L9.13399 13.8559C9.38717 13.9139 9.65217 13.8917 9.89214 13.7922C10.1321 13.6928 10.3351 13.521 10.473 13.3009L11.453 11.7369C11.553 11.5769 11.688 11.4419 11.848 11.3419L13.413 10.3619C13.6332 10.2238 13.8048 10.0206 13.9041 9.78039C14.0034 9.54023 14.0254 9.27509 13.967 9.02186L13.555 7.22386C13.5126 7.03959 13.5126 6.84812 13.555 6.66386L13.968 4.86486C14.0262 4.61177 14.0041 4.34685 13.9048 4.10689C13.8055 3.86693 13.634 3.66385 13.414 3.52586L11.849 2.54586C11.6892 2.44567 11.5542 2.31064 11.454 2.15086L10.473 0.586857ZM9.96999 4.71386C10.0318 4.60012 10.0472 4.46683 10.0127 4.34203C9.97831 4.21723 9.89682 4.11064 9.7854 4.0447C9.67399 3.97876 9.54134 3.9586 9.41537 3.98848C9.2894 4.01835 9.17993 4.09591 9.10999 4.20486L6.49498 8.63086L4.91598 7.11886C4.86914 7.07076 4.81309 7.03259 4.75118 7.00662C4.68926 6.98065 4.62275 6.96742 4.55561 6.96771C4.48847 6.96801 4.42208 6.98182 4.36039 7.00832C4.29871 7.03483 4.24299 7.07349 4.19657 7.12199C4.15014 7.1705 4.11397 7.22786 4.09019 7.29065C4.06641 7.35344 4.05553 7.42037 4.05818 7.48746C4.06083 7.55455 4.07697 7.62041 4.10563 7.68113C4.13428 7.74185 4.17488 7.79617 4.22498 7.84086L6.25899 9.78986C6.31342 9.84191 6.37892 9.88099 6.45058 9.90418C6.52224 9.92737 6.59822 9.93408 6.67283 9.92379C6.74744 9.9135 6.81877 9.88649 6.88148 9.84477C6.94419 9.80305 6.99666 9.7477 7.03498 9.68286L9.96999 4.71386Z" fill="#42275E"/>
</svg>
