<svg width="28" height="27" viewBox="0 0 28 27" fill="none" xmlns="http://www.w3.org/2000/svg">
<path d="M19.5302 15.0311L14.4541 19.9006C14.3755 19.9762 14.2827 20.0355 14.1812 20.0752C14.0796 20.1149 13.9712 20.1342 13.8622 20.1319C13.7532 20.1296 13.6457 20.1059 13.5459 20.062C13.446 20.0181 13.3559 19.955 13.2805 19.8762L8.41099 14.8001C8.25859 14.6412 8.17555 14.4283 8.18012 14.2082C8.1847 13.9881 8.27651 13.7789 8.43537 13.6265C8.59423 13.4741 8.80712 13.391 9.02721 13.3956C9.2473 13.4002 9.45656 13.492 9.60896 13.6509L13.0922 17.2837L13.2918 7.68116C13.2963 7.46135 13.388 7.25236 13.5467 7.10015C13.7053 6.94795 13.918 6.86502 14.1378 6.86958C14.3576 6.87415 14.5666 6.96585 14.7188 7.12451C14.871 7.28317 14.9539 7.49579 14.9494 7.71561L14.7498 17.3181L18.381 13.8331C18.5399 13.6808 18.7528 13.5977 18.9728 13.6023C19.1929 13.6069 19.4022 13.6987 19.5546 13.8575C19.707 14.0164 19.79 14.2293 19.7854 14.4494C19.7809 14.6695 19.6891 14.8787 19.5302 15.0311ZM13.7245 26.7608C17.2414 26.8339 20.6434 25.5069 23.182 23.0717C25.7206 20.6365 27.1878 17.2925 27.2608 13.7755C27.3339 10.2586 26.0069 6.85658 23.5717 4.31802C21.1365 1.77945 17.7925 0.312245 14.2756 0.239165C10.7586 0.166085 7.35659 1.49312 4.81802 3.92833C2.27946 6.36354 0.812251 9.70746 0.73917 13.2244C0.66609 16.7414 1.99312 20.1434 4.42833 22.682C6.86355 25.2205 10.2075 26.6878 13.7245 26.7608ZM25.6032 13.7411C25.5716 15.2649 25.2401 16.7675 24.6277 18.1631C24.0154 19.5588 23.1341 20.8201 22.0342 21.8752C20.9344 22.9303 19.6375 23.7584 18.2176 24.3123C16.7977 24.8661 15.2827 25.1349 13.7589 25.1032C12.2351 25.0716 10.7325 24.7401 9.33689 24.1277C7.94123 23.5154 6.67987 22.6341 5.62479 21.5342C4.56972 20.4344 3.74161 19.1375 3.18775 17.7176C2.63389 16.2977 2.36511 14.7827 2.39678 13.2589C2.46072 10.1815 3.74453 7.2556 5.96577 5.12479C8.18701 2.99398 11.1637 1.83282 14.2411 1.89677C17.3185 1.96072 20.2444 3.24452 22.3752 5.46576C24.506 7.68701 25.6672 10.6637 25.6032 13.7411Z" fill="white"/>
</svg>
