<svg width="30" height="31" viewBox="0 0 30 31" fill="none" xmlns="http://www.w3.org/2000/svg">
<path d="M15 0.5C23.2845 0.5 30 7.2155 30 15.5C30 23.7845 23.2845 30.5 15 30.5C6.7155 30.5 0 23.7845 0 15.5C0 7.2155 6.7155 0.5 15 0.5ZM16.5 8H12C11.6022 8 11.2206 8.15804 10.9393 8.43934C10.658 8.72064 10.5 9.10218 10.5 9.5V21.5C10.5 21.8978 10.658 22.2794 10.9393 22.5607C11.2206 22.842 11.6022 23 12 23H16.5C17.3686 22.9997 18.2185 22.748 18.9472 22.2754C19.6759 21.8028 20.2522 21.1293 20.6066 20.3364C20.9611 19.5434 21.0785 18.6649 20.9447 17.8067C20.8108 16.9485 20.4315 16.1474 19.8525 15.5C20.4315 14.8526 20.8108 14.0515 20.9447 13.1933C21.0785 12.3351 20.9611 11.4566 20.6066 10.6636C20.2522 9.87067 19.6759 9.19725 18.9472 8.72461C18.2185 8.25197 17.3686 8.00031 16.5 8ZM16.5 17C16.8978 17 17.2794 17.158 17.5607 17.4393C17.842 17.7206 18 18.1022 18 18.5L17.9895 18.6755C17.9465 19.0404 17.7711 19.3768 17.4966 19.6209C17.222 19.8651 16.8674 20 16.5 20H13.5V17H16.5ZM16.5 11C16.8978 11 17.2794 11.158 17.5607 11.4393C17.842 11.7206 18 12.1022 18 12.5C18 12.8978 17.842 13.2794 17.5607 13.5607C17.2794 13.842 16.8978 14 16.5 14H13.5V11H16.5Z" fill="white"/>
</svg>
