<svg width="24" height="24" viewBox="0 0 24 24" fill="none" xmlns="http://www.w3.org/2000/svg">
<path d="M15.2327 18.3492V19.505C15.2327 21.4201 13.6803 22.9725 11.7652 22.9725C9.85011 22.9725 8.29772 21.4201 8.29772 19.505V18.3492M15.2327 18.3492H8.29772M15.2327 18.3492H19.3827C19.8248 18.3492 20.047 18.3492 20.226 18.2888C20.568 18.1735 20.8356 17.9049 20.951 17.563C21.0115 17.3832 21.0115 17.1604 21.0115 16.7147C21.0115 16.5197 21.0113 16.4223 20.996 16.3292C20.9672 16.1536 20.8991 15.987 20.7953 15.8424C20.7404 15.766 20.6705 15.6963 20.5331 15.5588L20.0829 15.1086C19.9376 14.9633 19.856 14.7662 19.856 14.5608V10.2583C19.856 5.7899 16.2337 2.16752 11.7652 2.16753C7.29678 2.16754 3.67439 5.78992 3.67439 10.2583V14.5608C3.67439 14.7663 3.5926 14.9633 3.44735 15.1086L2.99714 15.5588C2.85926 15.6967 2.79023 15.7659 2.73528 15.8424C2.63144 15.9871 2.56265 16.1536 2.53382 16.3292C2.51856 16.4223 2.51856 16.5197 2.51856 16.7148C2.51856 17.1604 2.51856 17.3831 2.57918 17.5629C2.69453 17.9049 2.96332 18.1735 3.30529 18.2888C3.48432 18.3492 3.70561 18.3492 4.14777 18.3492H8.29772M18.7217 1.0275C20.3158 2.22878 21.5716 3.82241 22.367 5.65321M4.80938 1.0275C3.21524 2.22878 1.95937 3.82241 1.16406 5.65321" stroke="#F5FAFF" stroke-width="2" stroke-linecap="round" stroke-linejoin="round"/>
</svg>
