<svg width="24" height="24" viewBox="0 0 24 24" fill="none" xmlns="http://www.w3.org/2000/svg">
<path d="M12.5211 6.39238H10.5547V10.8808H12.5211C14.4276 10.8808 15.4658 10.0957 15.4658 8.52664C15.4658 6.95756 14.4276 6.39238 12.5211 6.39238ZM12 0.390259C5.53119 0.390259 0.286942 5.58825 0.286942 12C0.286942 18.4117 5.53119 23.6097 12 23.6097C18.4688 23.6097 23.713 18.4117 23.713 12C23.713 5.58825 18.4688 0.390259 12 0.390259ZM18.6664 11.7795H16.442C16.2275 11.9474 15.992 12.094 15.7397 12.2205H18.6664V13.3726H15.633L18.4451 18.2293H15.6702L12.6752 12.8377H10.5547V18.2293H8.08642V13.3726H5.95518V12.2205H8.08642V11.7795H5.95518V10.6273H8.08642V4.43494H12.7763C15.6702 4.43494 17.9003 5.44724 17.9003 8.52664C17.9003 9.34979 17.7286 10.0482 17.4181 10.6273H18.6664V11.7795ZM12.5211 6.39238H10.5547V10.8808H12.5211C14.4276 10.8808 15.4658 10.0957 15.4658 8.52664C15.4658 6.95756 14.4276 6.39238 12.5211 6.39238Z" fill="#F2F2F2"/>
</svg>
