<svg width="24" height="25" viewBox="0 0 24 25" fill="none" xmlns="http://www.w3.org/2000/svg">
<g clip-path="url(#clip0_4245_772)">
<path d="M8 8.5H12" stroke="#C4C4C4" stroke-width="1.5" stroke-linecap="round" stroke-linejoin="round"/>
<path d="M22.833 9.5H20.231C18.446 9.5 17 10.843 17 12.5C17 14.157 18.447 15.5 20.23 15.5H22.833C22.917 15.5 22.958 15.5 22.993 15.498C23.533 15.465 23.963 15.066 23.998 14.565C24 14.533 24 14.494 24 14.417V10.583C24 10.506 24 10.467 23.998 10.435C23.962 9.934 23.533 9.535 22.993 9.502C22.959 9.5 22.917 9.5 22.833 9.5Z" stroke="#C4C4C4" stroke-width="1.5"/>
<path d="M22.965 9.5C22.887 7.628 22.637 6.48 21.828 5.672C20.657 4.5 18.771 4.5 15 4.5H12C8.229 4.5 6.343 4.5 5.172 5.672C4 6.843 4 8.729 4 12.5C4 16.271 4 18.157 5.172 19.328C6.343 20.5 8.229 20.5 12 20.5H15C18.771 20.5 20.657 20.5 21.828 19.328C22.637 18.52 22.888 17.372 22.965 15.5" stroke="#C4C4C4" stroke-width="1.5"/>
<path d="M19.991 12.5H20.001" stroke="#C4C4C4" stroke-width="2" stroke-linecap="round" stroke-linejoin="round"/>
</g>
<defs>
<clipPath id="clip0_4245_772">
<rect width="24" height="24" fill="white" transform="translate(0 0.5)"/>
</clipPath>
</defs>
</svg>
