<svg width="25" height="25" viewBox="0 0 25 25" fill="none" xmlns="http://www.w3.org/2000/svg">
<g clip-path="url(#clip0_4152_1382)">
<path d="M8.5 8.5H12.5" stroke="#F8F8F8" stroke-width="1.5" stroke-linecap="round" stroke-linejoin="round"/>
<path d="M23.333 9.5H20.731C18.946 9.5 17.5 10.843 17.5 12.5C17.5 14.157 18.947 15.5 20.73 15.5H23.333C23.417 15.5 23.458 15.5 23.493 15.498C24.033 15.465 24.463 15.066 24.498 14.565C24.5 14.533 24.5 14.494 24.5 14.417V10.583C24.5 10.506 24.5 10.467 24.498 10.435C24.462 9.934 24.033 9.535 23.493 9.502C23.459 9.5 23.417 9.5 23.333 9.5Z" stroke="#F8F8F8" stroke-width="1.5"/>
<path d="M23.465 9.5C23.387 7.628 23.137 6.48 22.328 5.672C21.157 4.5 19.271 4.5 15.5 4.5H12.5C8.729 4.5 6.843 4.5 5.672 5.672C4.5 6.843 4.5 8.729 4.5 12.5C4.5 16.271 4.5 18.157 5.672 19.328C6.843 20.5 8.729 20.5 12.5 20.5H15.5C19.271 20.5 21.157 20.5 22.328 19.328C23.137 18.52 23.388 17.372 23.465 15.5" stroke="#F8F8F8" stroke-width="1.5"/>
<path d="M20.491 12.5H20.501" stroke="#F8F8F8" stroke-width="2" stroke-linecap="round" stroke-linejoin="round"/>
</g>
<defs>
<clipPath id="clip0_4152_1382">
<rect width="24" height="24" fill="white" transform="translate(0.5 0.5)"/>
</clipPath>
</defs>
</svg>
